<svg width="200" height="180" xmlns="http://www.w3.org/2000/svg">
 <style type="text/css">.st0{fill:#FFFFFF;}
	.st1{fill:#E30613;}
	.st2{fill:none;}
	.st3{fill:#878787;}
	.st4{fill:#666666;}
	.st5{fill:#FFDC00;}
	.st6{fill:#005CA9;}
	.st7{fill:#525251;}</style>

 <g>
  <title>background</title>
  <rect fill="none" id="canvas_background" height="182" width="202" y="-1" x="-1"/>
 </g>
 <g>
  <title>Layer 1</title>
  <g stroke="null" id="svg_151">
   <path stroke="null" id="svg_1" d="m186.417091,133.310421l-121.417388,41.598327c-2.169634,0.774031 -4.37445,0.140733 -4.925655,-1.40733l-2.275183,-6.391623c-0.551204,-1.548063 0.750576,-3.436231 2.92021,-4.210262l119.822414,-46.066599c2.169634,-0.774031 4.37445,-0.140733 4.925655,1.40733l3.881885,10.848168c0.539476,1.559791 -0.762304,3.447958 -2.931937,4.22199z"/>
   <path stroke="null" id="svg_2" d="m45.660644,135.104767c-1.51288,-0.926492 -2.885026,-1.77089 -4.339267,-2.650471c0.633298,-0.551204 1.313508,-1.137592 2.075812,-1.794346c1.442513,0.598115 2.826388,1.161047 4.22199,1.747435c4.339267,1.806073 8.666807,3.623875 13.006074,5.429948c0.410471,0.164188 0.879581,0.316649 1.348691,0.398743c23.314766,4.433089 46.629531,8.866178 69.944297,13.28754c2.498011,0.46911 4.984293,0.961675 7.50576,1.40733c1.454241,0.25801 2.369005,0.797487 2.873299,1.606702c0.926492,1.501152 0.844398,3.049215 0.422199,4.597278c-0.83267,3.002304 -2.638744,5.78178 -6.192252,8.080419c-0.57466,0.375288 -1.290052,0.691937 -2.005445,0.973403c-1.184503,0.480838 -2.474555,0.539476 -3.85843,0.269738c-7.86932,-1.51288 -15.73864,-3.002304 -23.619687,-4.491728c-0.680209,-0.129005 -1.419058,-0.199372 -2.13445,-0.199372c-7.681676,0.023455 -15.363352,0.070366 -23.045027,0.10555c-0.398743,0 -0.797487,0 -1.219686,0c0,-0.715393 -0.035183,-1.40733 0.035183,-2.099267c0.011728,-0.117277 0.46911,-0.293194 0.762304,-0.316649c2.263456,-0.234555 4.538639,-0.433927 6.813822,-0.645026c0.351832,-0.035183 0.703665,-0.082094 1.383874,-0.164188c-2.838115,-0.539476 -5.371309,-1.020314 -7.904503,-1.501152c-25.566493,-4.855288 -51.132987,-9.722304 -76.722936,-14.565865c-1.98199,-0.375288 -3.037487,-1.090681 -3.506597,-2.204817c-0.809215,-1.958534 -0.375288,-3.881885 0.46911,-5.793508c1.008586,-2.263456 2.580105,-4.37445 5.265759,-6.157068c0.645026,-0.422199 1.419058,-0.797487 2.204817,-1.137592c1.231414,-0.527749 2.556649,-0.598115 4.046074,-0.316649c10.437697,2.005445 20.887121,3.975707 31.324818,5.957697c0.199372,0.070366 0.445654,0.10555 0.844398,0.175916z"/>
   <path stroke="null" id="svg_17" d="m166.04599,60.410732l0.082094,-6.907644l-144.216133,-1.606702l-0.082094,6.907644l-18.647121,-5.969424l-0.152461,13.533823l18.635394,6.82555l-0.433927,39.147227c-0.152461,13.991205 11.059268,25.460944 25.050472,25.613404l93.552256,1.04377c13.991205,0.152461 25.460944,-11.059268 25.613404,-25.050472l0.433927,-39.147227l18.787854,-6.415079l0.152461,-13.533823l-18.776127,5.558953z" class="st1"/>
   <g stroke="null" id="svg_18">
    <g stroke="null" id="svg_19">
     <path stroke="null" id="svg_20" d="m81.524101,21.896803l24.311624,-0.926492c2.81466,-0.10555 5.019477,-2.474555 4.913927,-5.300943l-0.222827,-5.899058c-0.10555,-2.81466 -2.474555,-5.019477 -5.300943,-4.913927l-24.311624,0.926492c-2.81466,0.10555 -5.019477,2.474555 -4.913927,5.300943l0.222827,5.899058c0.117277,2.826388 2.486283,5.019477 5.300943,4.913927z"/>
     <path stroke="null" id="svg_21" d="m94.494992,23.99607c-39.405238,1.489424 -70.999794,11.657383 -70.577595,22.693195l142.679798,-5.406492c-0.422199,-11.035812 -32.696965,-18.776127 -72.102203,-17.286702z"/>
    </g>
   </g>
   <path stroke="null" id="svg_22" d="m107.68871,149.764453c1.04377,-0.527749 2.122723,-1.032042 3.131309,-1.594974c2.591833,-1.454241 4.526911,-3.236859 5.05466,-5.641047c0.398743,-1.806073 -0.093822,-3.54178 -0.985131,-5.230576c-1.688796,-3.189948 -4.433089,-5.945969 -7.024922,-8.760629c-2.369005,-2.568377 -4.761466,-5.125026 -6.9311,-7.775498c-1.759162,-2.146178 -2.955393,-4.48 -2.779477,-7.048377c0.058639,-0.774031 0.328377,-1.536335 0.504293,-2.357278c-2.064084,1.254869 -3.799791,2.673927 -5.242304,4.268901c-3.893613,4.292356 -5.31267,9.053822 -5.019477,14.085027c0.152461,2.568377 0.703665,5.125026 1.067225,7.576126c-1.735707,-1.583246 -4.433089,-2.427644 -7.095288,-3.318953c-2.404189,-0.820942 -4.433089,-1.970262 -5.558953,-3.799791c-0.082094,0.023455 -0.152461,0.046911 -0.234555,0.070366c0.070366,0.949948 0.10555,1.911623 0.222827,2.849843c0.492565,3.682513 1.594974,7.259477 4.022618,10.566702c2.4511,3.330681 5.969424,5.840419 10.930262,7.224294c0.10555,0.023455 0.211099,0.058639 0.492565,0.152461c-7.951414,0.375288 -15.117069,-0.774031 -21.180315,-4.339267c-8.737173,-5.136754 -13.170262,-11.798116 -12.665969,-19.925446c0.269738,-4.397906 2.263456,-8.526074 5.031204,-12.431414c2.110995,-2.990576 4.409634,-5.910786 6.508901,-8.901362c2.286911,-3.272042 3.788063,-6.72 4.186806,-10.390786c0.023455,-0.199372 0.082094,-0.410471 0.152461,-0.762304c1.090681,1.594974 1.852984,3.119581 2.064084,4.714555c0.316649,2.322094 0.433927,4.655916 0.492565,6.989739c0.058639,2.122723 -0.351832,4.257173 0.340105,6.35644c0.340105,1.032042 0.996859,1.935079 2.298639,2.673927c0.023455,-0.152461 0.058639,-0.234555 0.035183,-0.304921c-0.715393,-3.365864 0.633298,-6.46199 2.544922,-9.464294c2.521466,-3.952252 5.88733,-7.540943 9.077278,-11.211728c3.377592,-3.881885 6.731728,-7.787226 9.018639,-12.09131c1.395602,-2.627016 2.333822,-5.336126 2.427644,-8.162513c0,-0.058639 0.046911,-0.117277 0.340105,-0.281466c1.184503,1.40733 2.486283,2.779477 3.530053,4.245445c2.404189,3.354136 3.447958,6.989739 3.28377,10.730891c-0.140733,3.248587 -0.586387,6.508901 -1.032042,9.74576c-0.586387,4.151623 -1.254869,8.279791 -0.304921,12.443142c1.102408,4.761466 4.268901,8.725445 8.995184,12.103037c0.058639,0.046911 0.164188,0.058639 0.25801,0.093822c-2.169634,-9.194555 1.383874,-12.935707 8.854451,-17.521257c-0.351832,0.83267 -0.703665,1.548063 -0.973403,2.298639c-1.114136,3.060943 -0.46911,6.016335 1.243141,8.866178c0.914764,1.524607 1.888168,3.037487 2.885026,4.550367c2.380733,3.600419 3.213403,7.318116 1.923351,11.258639c-1.290052,3.940524 -3.236859,7.646493 -6.989739,10.766074c-4.034346,3.330681 -9.229739,5.289215 -15.070158,6.485445c-0.586387,0.117277 -1.172775,0.222827 -1.759162,0.328377c-0.035183,-0.058639 -0.046911,-0.093822 -0.070366,-0.129005z" class="st0"/>
   <path stroke="null" id="svg_23" d="m196.16285,9.254289c-3.060943,-2.638744 -7.048377,0 -7.048377,0l-19.233509,23.408588l0,1.864712l-15.26953,17.990367l4.257173,0l13.944294,-14.577592l3.154765,-1.090681l20.183457,-19.06932c0.011728,0 3.975707,-5.113299 0.011728,-8.526074zm-2.943665,5.816964c-1.090681,0 -1.98199,-0.93822 -1.98199,-2.087539c0,-1.161047 0.891309,-2.087539 1.98199,-2.087539s1.98199,0.93822 1.98199,2.087539c0,1.149319 -0.879581,2.087539 -1.98199,2.087539z" class="st3"/>
   <g stroke="null" id="svg_146">
    <polygon stroke="null" id="svg_147" points="177.76199571962985,23.421410943950264 184.21225779540742,29.12110035824378 184.31784027503505,29.027274659716454 177.8558485342915,23.304131726091214 " class="st4"/>
    <polygon stroke="null" id="svg_148" points="170.94817600964285,31.712932141907345 170.94817600964285,31.75984305430427 176.01458553837853,36.251566790043285 177.034880451211,35.89973494706635 184.21225779540742,29.12110035824378 177.76199571962985,23.421410943950264 " class="st5"/>
    <polygon stroke="null" id="svg_149" points="182.00748365008673,18.237745439756395 177.8558485342915,23.304131726091214 184.31784027503505,29.027274659716454 189.0910081796215,24.512095467778977 " class="st6"/>
    <polygon stroke="null" id="svg_150" points="189.0910081796215,24.512095467778977 193.87593673904172,19.996908528374547 186.1708174409801,13.183088818387546 182.00748365008673,18.237745439756395 " class="st1"/>
   </g>
  </g>
 </g>
</svg>