<svg width="792" height="218.47" xmlns="http://www.w3.org/2000/svg">
 <style type="text/css">.st0{fill:#FFFFFF;}
	.st1{fill:#E30613;}
	.st2{fill:none;}
	.st3{fill:#878787;}
	.st4{fill:#666666;}
	.st5{fill:#FFDC00;}
	.st6{fill:#005CA9;}
	.st7{fill:#525251;}</style>

 <g>
  <title>background</title>
  <rect fill="none" id="canvas_background" height="402" width="582" y="-1" x="-1"/>
 </g>
 <g>
  <title>Layer 1</title>
  <g stroke="null" id="svg_151">
   <path stroke="null" id="svg_1" d="m226.757511,159.414587l-145.507313,49.85168c-2.600102,0.927604 -5.242367,0.168655 -5.902934,-1.686552l-2.726593,-7.659759c-0.660566,-1.855208 0.899495,-4.117999 3.499596,-5.045603l143.595887,-55.206484c2.600102,-0.927604 5.242367,-0.168655 5.902934,1.686552l4.652074,13.000509c0.646512,1.869262 -0.913549,4.132054 -3.513651,5.059657z"/>
   <path stroke="null" id="svg_2" d="m58.074156,161.564941c-1.813044,-1.110314 -3.457433,-2.122245 -5.200203,-3.17634c0.758949,-0.660566 1.574116,-1.363297 2.487665,-2.150354c1.728716,0.716785 3.38716,1.391406 5.059657,2.094136c5.200203,2.164409 10.386352,4.342873 15.586556,6.507282c0.491911,0.196764 1.054095,0.379474 1.616279,0.477857c27.940552,5.31264 55.881105,10.62528 83.821657,15.923866c2.993631,0.562184 5.973207,1.152478 8.994946,1.686552c1.742771,0.309201 2.83903,0.955713 3.443378,1.925481c1.110314,1.798989 1.011931,3.654197 0.505966,5.509405c-0.997877,3.597979 -3.162286,6.92892 -7.420831,9.683622c-0.688676,0.449747 -1.546006,0.829222 -2.403337,1.166532c-1.419515,0.576239 -2.965521,0.646512 -4.623965,0.323256c-9.430639,-1.813044 -18.861278,-3.597979 -28.305972,-5.382913c-0.815167,-0.154601 -1.700607,-0.238928 -2.557938,-0.238928c-9.205765,0.028109 -18.411531,0.084328 -27.617296,0.126491c-0.477857,0 -0.955713,0 -1.461679,0c0,-0.857331 -0.042164,-1.686552 0.042164,-2.515774c0.014055,-0.140546 0.562184,-0.351365 0.913549,-0.379474c2.712539,-0.281092 5.439132,-0.52002 8.165725,-0.773003c0.421638,-0.042164 0.843276,-0.098382 1.658443,-0.196764c-3.401214,-0.646512 -6.437009,-1.222751 -9.472803,-1.798989c-30.639036,-5.818606 -61.278073,-11.651267 -91.945218,-17.455818c-2.375228,-0.449747 -3.640142,-1.307078 -4.202327,-2.642266c-0.969768,-2.347119 -0.449747,-4.652074 0.562184,-6.942974c1.208696,-2.712539 3.092013,-5.242367 6.310517,-7.378667c0.773003,-0.505966 1.700607,-0.955713 2.642266,-1.363297c1.475733,-0.632457 3.063904,-0.716785 4.848838,-0.379474c12.508597,2.403337 25.031249,4.764511 37.539847,7.139739c0.238928,0.084328 0.534075,0.126491 1.011931,0.210819z"/>
   <g stroke="null" id="svg_3">
    <path stroke="null" id="svg_4" d="m338.660267,82.648341c0,4.047726 -1.531952,7.940851 -4.60991,11.665321c-3.316886,4.047726 -7.252176,6.071589 -11.791813,6.071589l-7.772196,0l0,38.762597l-9.838223,0l0,-87.236926l17.624473,0c4.623965,0 8.587363,1.981699 11.904249,5.959152c2.993631,3.569869 4.497473,7.406776 4.497473,11.53883l0,13.239437l-0.014055,0zm-9.852277,-1.574116l0,-9.964714c0,-2.670375 -0.744894,-4.905057 -2.248737,-6.675937c-1.503843,-1.784935 -3.626088,-2.670375 -6.38079,-2.670375l-5.706169,0l0,28.797883l5.706169,0c2.262791,0 4.2726,-0.955713 6.01537,-2.853085c1.742771,-1.911426 2.614156,-4.117999 2.614156,-6.633773z"/>
    <path stroke="null" id="svg_5" d="m373.895159,139.147848l-6.5635,0l-2.192518,-3.766634c-2.600102,2.515774 -5.340749,3.766634 -8.264107,3.766634c-4.694238,0 -8.713854,-1.658443 -12.030741,-4.97533c-3.316886,-3.316886 -4.97533,-7.336503 -4.97533,-12.030741c0,-5.340749 2.066027,-10.006878 6.19808,-13.970276c1.054095,-0.969768 4.933166,-3.72447 11.665321,-8.264107c4.216381,-2.83903 6.324572,-5.509405 6.324572,-8.025179l0,-3.766634c0,-1.939535 -0.70273,-3.626088 -2.122245,-5.045603c-1.419515,-1.419515 -3.092013,-2.122245 -5.045603,-2.122245c-3.485542,0 -5.748333,1.616279 -6.802428,4.862893l-8.264107,-4.258545c0.730839,-3.316886 2.47361,-5.888879 5.228313,-7.715977c2.754702,-1.827098 6.029425,-2.740648 9.838223,-2.740648c4.694238,0 8.6998,1.658443 12.030741,4.97533c3.316886,3.316886 4.97533,7.336503 4.97533,12.030741l0,51.046321zm-9.852277,-17.006071l0,-17.624473c0,1.784935 -1.194641,3.527706 -3.583924,5.228313c-2.389283,1.700607 -4.764511,3.35905 -7.11163,4.97533c-2.431446,2.192518 -3.640142,4.652074 -3.640142,7.406776c0,2.023863 0.688676,3.72447 2.066027,5.101821c1.377351,1.377351 3.077958,2.066027 5.101821,2.066027c1.939535,0 3.626088,-0.688676 5.045603,-2.066027c1.419515,-1.363297 2.122245,-3.063904 2.122245,-5.087767z"/>
    <path stroke="null" id="svg_6" d="m416.171407,122.141777c0,4.694238 -1.658443,8.713854 -4.97533,12.030741c-3.316886,3.316886 -7.336503,4.97533 -12.030741,4.97533c-4.694238,0 -8.713854,-1.658443 -12.030741,-4.97533c-3.316886,-3.316886 -4.97533,-7.336503 -4.97533,-12.030741l0,-4.736401l9.838223,2.192518l0,2.557938c0,2.023863 0.688676,3.72447 2.066027,5.101821c1.377351,1.377351 3.077958,2.066027 5.101821,2.066027c1.939535,0 3.626088,-0.688676 5.045603,-2.066027c1.419515,-1.377351 2.122245,-3.077958 2.122245,-5.101821c0,-3.893125 -2.108191,-7.491104 -6.324572,-10.80799c-3.893125,-2.993631 -7.772196,-5.959152 -11.665321,-8.868455c-4.132054,-4.132054 -6.19808,-9.191711 -6.19808,-15.193027c0,-4.694238 1.658443,-8.6998 4.97533,-12.030741c3.316886,-3.316886 7.336503,-4.97533 12.030741,-4.97533c4.694238,0 8.6998,1.658443 12.030741,4.97533c3.316886,3.316886 4.97533,7.336503 4.97533,12.030741l0,4.736401l-9.838223,-2.192518l0,-2.557938c0,-2.023863 -0.70273,-3.72447 -2.122245,-5.101821c-1.419515,-1.377351 -3.092013,-2.066027 -5.045603,-2.066027c-2.023863,0 -3.72447,0.688676 -5.101821,2.066027c-1.377351,1.377351 -2.066027,3.077958 -2.066027,5.101821c0,4.047726 2.066027,7.81436 6.19808,11.299901c3.893125,3.077958 7.772196,6.113753 11.665321,9.107383c4.216381,4.132054 6.324572,8.952783 6.324572,14.462187z"/>
    <path stroke="null" id="svg_7" d="m458.447655,122.141777c0,4.694238 -1.658443,8.713854 -4.97533,12.030741c-3.316886,3.316886 -7.336503,4.97533 -12.030741,4.97533c-4.694238,0 -8.713854,-1.658443 -12.030741,-4.97533c-3.316886,-3.316886 -4.97533,-7.336503 -4.97533,-12.030741l0,-34.026196c0,-4.694238 1.658443,-8.6998 4.97533,-12.030741c3.316886,-3.316886 7.336503,-4.97533 12.030741,-4.97533c4.694238,0 8.6998,1.658443 12.030741,4.97533c3.316886,3.316886 4.97533,7.336503 4.97533,12.030741c0,5.593732 -0.744894,9.824168 -2.248737,12.691307c-1.503843,2.881194 -4.146108,5.607787 -7.954906,8.207889c-4.694238,2.993631 -9.360366,6.001316 -13.970276,8.994946l0,4.132054c0,2.023863 0.688676,3.72447 2.066027,5.101821c1.377351,1.377351 3.077958,2.066027 5.101821,2.066027c1.939535,0 3.626088,-0.688676 5.045603,-2.066027c1.419515,-1.377351 2.122245,-3.077958 2.122245,-5.101821l0,-1.096259l9.838223,-3.274723l0,4.370982zm-9.838223,-34.026196c0,-1.939535 -0.70273,-3.626088 -2.122245,-5.045603c-1.419515,-1.419515 -3.092013,-2.122245 -5.045603,-2.122245c-2.023863,0 -3.72447,0.716785 -5.101821,2.122245c-1.377351,1.419515 -2.066027,3.092013 -2.066027,5.045603l0,18.594241c5.832661,-3.316886 9.557131,-5.916988 11.17341,-7.772196c2.108191,-2.431446 3.162286,-6.029425 3.162286,-10.822045z"/>
    <path stroke="null" id="svg_8" d="m500.737958,122.141777c0,4.694238 -1.658443,8.713854 -4.97533,12.030741c-3.316886,3.316886 -7.336503,4.97533 -12.030741,4.97533c-4.694238,0 -8.713854,-1.658443 -12.030741,-4.97533c-3.316886,-3.316886 -4.97533,-7.336503 -4.97533,-12.030741l0,-34.026196c0,-4.694238 1.658443,-8.6998 4.97533,-12.030741c3.316886,-3.316886 7.336503,-4.97533 12.030741,-4.97533c4.694238,0 8.6998,1.658443 12.030741,4.97533c3.316886,3.316886 4.97533,7.336503 4.97533,12.030741l0,34.026196zm-9.838223,0l0,-34.026196c0,-1.939535 -0.70273,-3.626088 -2.122245,-5.045603c-1.419515,-1.419515 -3.092013,-2.122245 -5.045603,-2.122245c-2.023863,0 -3.72447,0.716785 -5.101821,2.122245c-1.377351,1.419515 -2.066027,3.092013 -2.066027,5.045603l0,34.026196c0,2.023863 0.688676,3.72447 2.066027,5.101821c1.377351,1.377351 3.077958,2.066027 5.101821,2.066027c1.939535,0 3.626088,-0.688676 5.045603,-2.066027c1.40546,-1.377351 2.122245,-3.077958 2.122245,-5.101821z"/>
   </g>
   <g stroke="null" id="svg_9">
    <path stroke="null" id="svg_10" d="m566.401067,59.387971c-0.407584,0.674621 -0.674621,1.363297 -0.674621,2.037918c0,1.489788 -0.54813,2.979576 -1.222751,4.342873c-1.082204,2.712539 -2.712539,5.706169 -3.38716,8.545199c-0.54813,2.037918 -1.489788,3.794743 -1.630334,5.973207c-0.54813,4.483419 -2.037918,8.685745 -2.993631,13.028618c-0.674621,3.38716 -1.489788,6.647828 -1.630334,10.049042c-0.140546,2.304955 -0.674621,4.60991 -0.267037,6.914865c0,0.407584 0,0.674621 -0.140546,1.082204c-0.815167,3.260668 -0.267037,6.507282 -0.267037,9.76795c0.267037,4.60991 0.54813,9.093329 0.815167,13.703239c0,1.363297 0.674621,2.853085 0.54813,4.342873c0,0.815167 0.140546,1.222751 0.674621,2.037918c0.267037,0.407584 -0.407584,1.082204 -0.267037,1.489788c0.54813,0.955713 0.140546,1.363297 -0.674621,1.630334c-1.222751,0.140546 -2.164409,-0.140546 -3.120122,-0.955713c-1.897372,-1.630334 -3.260668,-3.668252 -3.527706,-6.240244c-0.407584,-3.527706 -0.955713,-6.914865 -1.222751,-10.442571c-0.407584,-5.017494 -0.54813,-9.908496 -0.815167,-14.925989c0,-0.955713 0,-1.897372 0,-2.993631c0,-0.140546 -0.140546,-0.267037 -0.267037,-0.407584s-0.267037,0.140546 -0.407584,0.140546c-0.140546,0.140546 -0.140546,0.267037 -0.267037,0.267037c-0.815167,1.630334 -1.630334,3.260668 -2.445501,4.891002c-1.222751,2.304955 -2.445501,4.60991 -3.668252,6.914865c-0.407584,0.54813 -0.674621,1.082204 -0.955713,1.630334c-0.674621,1.222751 -1.363297,2.164409 -2.445501,2.979576c-1.082204,0.674621 -1.897372,1.630334 -2.712539,2.445501c-1.489788,1.630334 -2.853085,1.897372 -4.483419,0.54813c-5.565623,-4.60991 -7.462995,-13.843785 -5.565623,-20.899196c1.630334,-5.973207 4.750456,-11.665321 8.278162,-16.696869c0.815167,-1.082204 2.037918,-1.77088 2.853085,-2.853085c0,-0.140546 0.267037,-0.140546 0.407584,-0.140546c1.77088,-0.267037 3.668252,-0.54813 5.425077,-0.54813c1.082204,0 2.164409,0.54813 2.853085,1.489788c0.140546,0.140546 0.267037,0.267037 0.407584,0.407584c1.630334,0.815167 1.77088,2.304955 1.77088,4.075835c0.140546,1.082204 0.407584,2.037918 0.674621,3.120122c0.140546,0.140546 0.407584,0.267037 0.54813,0.407584c0.140546,-0.140546 0.267037,-0.267037 0.267037,-0.54813c0.267037,-0.54813 0.407584,-1.222751 0.674621,-1.77088c1.489788,-3.120122 1.756825,-6.647828 2.712539,-9.908496c1.082204,-3.935289 2.304955,-7.730032 3.38716,-11.665321c0.674621,-2.037918 1.630334,-4.750456 2.304955,-6.914865c0.54813,-1.363297 1.082204,-2.571992 1.630334,-3.935289c1.082204,-2.712539 3.120122,-4.60991 4.075835,-7.322449c0.54813,-1.082204 1.349242,-1.630334 2.304955,-1.77088c0.54813,-0.140546 1.222751,-0.140546 1.349242,0.815167c0,0.674621 0.54813,0.815167 1.082204,0.815167c0.54813,0.140546 0.815167,0.407584 0.674621,1.082204c0.014055,1.377351 0.014055,2.740648 -0.660566,3.963398zm-24.834485,32.564517c-0.407584,-2.304955 -2.853085,-2.979576 -4.342873,-1.363297c-0.815167,0.955713 -1.630334,1.897372 -2.304955,2.979576c-0.54813,0.815167 -1.349242,1.630334 -1.489788,2.571992c-0.267037,2.304955 -0.54813,4.075835 -1.222751,6.647828c-0.267037,1.222751 -0.674621,1.77088 -0.955713,2.979576c-0.407584,1.897372 -0.54813,2.979576 -0.674621,5.017494c-0.140546,3.260668 0.267037,5.692115 0.407584,8.278162c0,0.54813 1.222751,0 1.363297,-0.140546c0.267037,-0.267037 0.407584,-0.407584 0.54813,-0.674621c1.363297,-1.897372 2.712539,-3.668252 3.935289,-5.565623c1.349242,-1.77088 2.979576,-2.979576 3.794743,-5.425077c0.140546,-0.54813 0.140546,-0.815167 0.267037,-1.222751c0.407584,-1.082204 1.082204,-1.489788 1.489788,-2.712539c0.54813,-1.630334 0.267037,-2.712539 0.140546,-4.202327c-0.140546,-2.417392 -0.54813,-4.862893 -0.955713,-7.167848z" class="st1"/>
    <path stroke="null" id="svg_11" d="m594.215128,103.758356c-1.222751,2.979576 -5.425077,7.195957 -7.195957,9.76795c-1.897372,2.853085 -7.462995,9.360366 -9.641458,11.946413c-1.630334,1.897372 -3.935289,2.853085 -6.38079,2.571992c-1.77088,-0.140546 -3.668252,-0.407584 -5.425077,-1.630334c-2.571992,-2.037918 -4.483419,-4.483419 -4.60991,-7.870578c-0.140546,-1.082204 -0.267037,-2.304955 -0.267037,-3.38716c0.140546,-3.527706 0.674621,-7.055411 1.756825,-10.456625c0.955713,-2.712539 1.77088,-5.425077 2.853085,-8.011124c1.756825,-4.075835 3.935289,-7.870578 7.055411,-11.131246c0.815167,-0.815167 1.630334,-1.363297 2.853085,-1.363297c0.955713,0 1.756825,0 2.571992,-0.140546c2.037918,-0.267037 3.527706,0.815167 4.750456,2.445501c0.674621,0.955713 1.363297,1.77088 1.897372,2.853085c0.267037,0.407584 0.407584,1.082204 0.267037,1.489788c-0.674621,2.571992 -1.222751,5.15804 -2.445501,7.462995c-1.222751,2.304955 -2.853085,4.075835 -4.60991,5.832661c-1.897372,1.630334 -3.527706,3.527706 -5.832661,4.891002c-0.54813,0.267037 -0.955713,1.082204 -1.489788,1.630334c-0.267037,0.140546 -0.407584,0.54813 -0.674621,0.54813c-1.222751,0.267037 -1.489788,1.363297 -1.630334,2.445501c-0.267037,2.712539 -0.674621,5.298586 0.267037,8.137616c0.407584,1.082204 0.815167,1.489788 1.897372,0.955713c1.630334,-0.674621 3.120122,-1.489788 4.750456,-2.304955l0,0.140546l0,-0.140546c2.445501,-2.037918 8.685745,-8.011124 10.850154,-10.316079c1.222751,-1.363297 4.60991,-4.075835 5.565623,-5.425077c0.54813,-0.815167 1.363297,-1.630334 2.304955,-1.77088c0.267037,0 0.54813,0.140546 0.674621,0.407584c0.028109,0.154601 0.028109,0.295147 -0.112437,0.421638zm-13.843785,-15.474119c-0.140546,-0.407584 -0.54813,-0.54813 -0.815167,-0.955713c-0.674621,-0.955713 -1.222751,-1.082204 -2.037918,-0.267037c-0.407584,0.54813 -0.674621,1.222751 -1.082204,1.77088c-0.267037,0.54813 -0.407584,1.222751 -0.674621,1.77088c-0.674621,1.363297 -1.222751,2.712539 -1.630334,4.202327c-0.407584,1.77088 -1.222751,3.38716 -2.445501,4.750456c-0.674621,0.955713 -0.955713,2.037918 -1.222751,2.712539c0,1.363297 0.267037,1.630334 1.222751,1.082204c2.304955,-1.363297 4.202327,-3.260668 5.832661,-5.425077c1.630334,-2.445501 2.304955,-5.298586 3.260668,-7.870578c0.140546,-0.54813 -0.126491,-1.222751 -0.407584,-1.77088z" class="st1"/>
   </g>
   <g stroke="null" id="svg_12">
    <path stroke="null" id="svg_13" d="m636.786523,122.141777c0,4.694238 -1.658443,8.713854 -4.97533,12.030741c-3.316886,3.316886 -7.336503,4.97533 -12.030741,4.97533c-4.694238,0 -8.713854,-1.658443 -12.030741,-4.97533c-3.316886,-3.316886 -4.97533,-7.336503 -4.97533,-12.030741l0,-34.026196c0,-4.694238 1.658443,-8.6998 4.97533,-12.030741c3.316886,-3.316886 7.336503,-4.97533 12.030741,-4.97533c4.694238,0 8.6998,1.658443 12.030741,4.97533c3.316886,3.316886 4.97533,7.336503 4.97533,12.030741l0,34.026196zm-9.838223,0l0,-34.026196c0,-1.939535 -0.70273,-3.626088 -2.122245,-5.045603c-1.419515,-1.419515 -3.092013,-2.122245 -5.045603,-2.122245c-2.023863,0 -3.72447,0.716785 -5.101821,2.122245c-1.377351,1.419515 -2.066027,3.092013 -2.066027,5.045603l0,34.026196c0,2.023863 0.688676,3.72447 2.066027,5.101821c1.377351,1.377351 3.077958,2.066027 5.101821,2.066027c1.939535,0 3.626088,-0.688676 5.045603,-2.066027c1.419515,-1.377351 2.122245,-3.077958 2.122245,-5.101821z"/>
    <path stroke="null" id="svg_14" d="m654.902907,139.147848l-9.838223,0l0,-83.948149l9.838223,-3.274723l0,87.222871z"/>
    <path stroke="null" id="svg_15" d="m672.021415,139.147848l-9.838223,0l0,-83.948149l9.838223,-3.274723l0,87.222871z"/>
    <path stroke="null" id="svg_16" d="m713.34195,139.147848l-6.5635,0l-2.192518,-3.766634c-2.600102,2.515774 -5.340749,3.766634 -8.264107,3.766634c-4.694238,0 -8.713854,-1.658443 -12.030741,-4.97533c-3.316886,-3.316886 -4.97533,-7.336503 -4.97533,-12.030741c0,-5.340749 2.066027,-10.006878 6.19808,-13.970276c1.054095,-0.969768 4.933166,-3.72447 11.665321,-8.264107c4.216381,-2.83903 6.324572,-5.509405 6.324572,-8.025179l0,-3.766634c0,-1.939535 -0.70273,-3.626088 -2.122245,-5.045603c-1.419515,-1.419515 -3.092013,-2.122245 -5.045603,-2.122245c-3.485542,0 -5.748333,1.616279 -6.802428,4.862893l-8.264107,-4.258545c0.730839,-3.316886 2.47361,-5.888879 5.228313,-7.715977c2.754702,-1.827098 6.029425,-2.740648 9.838223,-2.740648c4.694238,0 8.6998,1.658443 12.030741,4.97533c3.316886,3.316886 4.97533,7.336503 4.97533,12.030741l0,51.046321zm-9.852277,-17.006071l0,-17.624473c0,1.784935 -1.194641,3.527706 -3.583924,5.228313c-2.389283,1.700607 -4.764511,3.35905 -7.11163,4.97533c-2.431446,2.192518 -3.640142,4.652074 -3.640142,7.406776c0,2.023863 0.688676,3.72447 2.066027,5.101821c1.377351,1.377351 3.077958,2.066027 5.101821,2.066027c1.939535,0 3.626088,-0.688676 5.045603,-2.066027c1.419515,-1.363297 2.122245,-3.063904 2.122245,-5.087767z"/>
   </g>
   <path stroke="null" id="svg_17" d="m202.344664,72.051169l0.098382,-8.278162l-172.829463,-1.925481l-0.098382,8.278162l-22.34682,-7.153793l-0.18271,16.219013l22.332765,8.179779l-0.52002,46.914268c-0.18271,16.767142 13.253491,30.512545 30.020634,30.695255l112.113575,1.25086c16.767142,0.18271 30.512545,-13.253491 30.695255,-30.020634l0.52002,-46.914268l22.515475,-7.687868l0.18271,-16.219013l-22.501421,6.661882z" class="st1"/>
   <g stroke="null" id="svg_18">
    <g stroke="null" id="svg_19">
     <path stroke="null" id="svg_20" d="m101.053135,25.89585l29.135194,-1.110314c3.373105,-0.126491 6.01537,-2.965521 5.888879,-6.352681l-0.267037,-7.069466c-0.126491,-3.373105 -2.965521,-6.01537 -6.352681,-5.888879l-29.135194,1.110314c-3.373105,0.126491 -6.01537,2.965521 -5.888879,6.352681l0.267037,7.069466c0.140546,3.38716 2.979576,6.01537 6.352681,5.888879z"/>
     <path stroke="null" id="svg_21" d="m116.597527,28.411625c-47.223469,1.784935 -85.086571,13.970276 -84.580606,27.195658l170.98831,-6.479172c-0.505966,-13.225382 -39.184235,-22.501421 -86.407704,-20.716486z"/>
    </g>
   </g>
   <path stroke="null" id="svg_22" d="m132.408956,179.133196c1.25086,-0.632457 2.543883,-1.236805 3.752579,-1.911426c3.106067,-1.742771 5.425077,-3.879071 6.057534,-6.760264c0.477857,-2.164409 -0.112437,-4.24449 -1.180587,-6.268353c-2.023863,-3.822852 -5.31264,-7.125684 -8.418708,-10.498789c-2.83903,-3.077958 -5.706169,-6.141862 -8.306271,-9.318202c-2.108191,-2.571992 -3.54176,-5.368859 -3.330941,-8.446817c0.070273,-0.927604 0.393529,-1.841153 0.604348,-2.824975c-2.47361,1.503843 -4.553692,3.20445 -6.282408,5.115876c-4.666128,5.143985 -6.366736,10.850154 -6.01537,16.879579c0.18271,3.077958 0.843276,6.141862 1.278969,9.079274c-2.080081,-1.897372 -5.31264,-2.909303 -8.503035,-3.977453c-2.881194,-0.983822 -5.31264,-2.361173 -6.661882,-4.553692c-0.098382,0.028109 -0.18271,0.056218 -0.281092,0.084328c0.084328,1.138423 0.126491,2.2909 0.267037,3.415269c0.590293,4.413146 1.911426,8.6998 4.820729,12.663198c2.937412,3.991507 7.153793,6.999193 13.098891,8.657636c0.126491,0.028109 0.252983,0.070273 0.590293,0.18271c-9.529021,0.449747 -18.116384,-0.927604 -25.382614,-5.200203c-10.47068,-6.155916 -15.78332,-14.138931 -15.178972,-23.878772c0.323256,-5.270476 2.712539,-10.217697 6.029425,-14.89788c2.529829,-3.583924 5.284531,-7.08352 7.800305,-10.667444c2.740648,-3.921234 4.539637,-8.053288 5.017494,-12.452379c0.028109,-0.238928 0.098382,-0.491911 0.18271,-0.913549c1.307078,1.911426 2.220627,3.738525 2.47361,5.649951c0.379474,2.782812 0.52002,5.579678 0.590293,8.376544c0.070273,2.543883 -0.421638,5.101821 0.407584,7.617595c0.407584,1.236805 1.194641,2.31901 2.754702,3.20445c0.028109,-0.18271 0.070273,-0.281092 0.042164,-0.36542c-0.857331,-4.033671 0.758949,-7.744087 3.049849,-11.342065c3.02174,-4.736401 7.055411,-9.03711 10.878263,-13.436201c4.047726,-4.652074 8.067343,-9.332257 10.80799,-14.490297c1.672498,-3.148231 2.796866,-6.394845 2.909303,-9.782004c0,-0.070273 0.056218,-0.140546 0.407584,-0.33731c1.419515,1.686552 2.979576,3.330941 4.230436,5.087767c2.881194,4.019617 4.132054,8.376544 3.935289,12.859962c-0.168655,3.893125 -0.70273,7.800305 -1.236805,11.679376c-0.70273,4.97533 -1.503843,9.92255 -0.36542,14.911935c1.321133,5.706169 5.115876,10.456625 10.779881,14.504351c0.070273,0.056218 0.196764,0.070273 0.309201,0.112437c-2.600102,-11.018809 1.658443,-15.502228 10.611226,-20.997578c-0.421638,0.997877 -0.843276,1.855208 -1.166532,2.754702c-1.335187,3.668252 -0.562184,7.210012 1.489788,10.62528c1.096259,1.827098 2.262791,3.640142 3.457433,5.453186c2.853085,4.314763 3.850961,8.770073 2.304955,13.49242c-1.546006,4.722347 -3.879071,9.163602 -8.376544,12.902126c-4.834784,3.991507 -11.060973,6.338626 -18.060166,7.772196c-0.70273,0.140546 -1.40546,0.267037 -2.108191,0.393529c-0.042164,-0.070273 -0.056218,-0.112437 -0.084328,-0.154601z" class="st0"/>
   <path stroke="null" id="svg_23" d="m238.436887,10.744988c-3.668252,-3.162286 -8.446817,0 -8.446817,0l-23.04955,28.052989l0,2.234682l-18.299094,21.559762l5.101821,0l16.710924,-17.469873l3.780688,-1.307078l24.187973,-22.852786c0.014055,0 4.764511,-6.127807 0.014055,-10.217697zm-3.527706,6.971083c-1.307078,0 -2.375228,-1.124368 -2.375228,-2.501719c0,-1.391406 1.06815,-2.501719 2.375228,-2.501719s2.375228,1.124368 2.375228,2.501719c0,1.377351 -1.054095,2.501719 -2.375228,2.501719z" class="st3"/>
   <g stroke="null" id="svg_24">
    <path stroke="null" id="svg_25" d="m276.496754,189.140074c1.981699,0 3.583924,0.590293 4.806675,1.756825c1.208696,1.166532 1.827098,2.698484 1.827098,4.581801c0,1.897372 -0.604348,3.415269 -1.798989,4.553692c-1.194641,1.138423 -2.810921,1.714662 -4.834784,1.714662l-5.396968,0l0,-12.60698l5.396968,0zm0,1.447624l-3.836907,0l0,9.697677l3.836907,0c1.546006,0 2.768757,-0.435693 3.668252,-1.307078c0.88544,-0.871385 1.335187,-2.051972 1.335187,-3.527706c0,-1.461679 -0.449747,-2.642266 -1.363297,-3.527706s-2.122245,-1.335187 -3.640142,-1.335187z" class="st7"/>
    <path stroke="null" id="svg_26" d="m283.552165,201.747053l6.169971,-12.60698l1.307078,0l6.240244,12.60698l-1.700607,0l-1.714662,-3.38716l-6.957029,0l-1.672498,3.38716l-1.672498,0zm4.075835,-4.862893l5.551569,0l-2.782812,-5.579678l-2.768757,5.579678z" class="st7"/>
    <path stroke="null" id="svg_27" d="m299.194939,201.747053l0,-12.60698l1.560061,0l0,11.159355l8.235998,0l0,1.447624l-9.796059,0z" class="st7"/>
    <path stroke="null" id="svg_28" d="m310.88837,201.747053l0,-12.60698l9.908496,0l0,1.447624l-8.348435,0l0,3.696361l5.045603,0l0,1.447624l-5.045603,0l0,4.553692l8.8544,0l0,1.447624l-10.414461,0l0,0.014055z" class="st7"/>
    <path stroke="null" id="svg_29" d="m331.365927,201.747053l0,-12.60698l7.224066,0c1.222751,0 2.192518,0.309201 2.895248,0.913549s1.054095,1.447624 1.054095,2.501719c0,1.096259 -0.33731,1.981699 -1.025986,2.65632c-0.674621,0.674621 -1.58817,1.011931 -2.726593,1.011931l-5.86077,0l0,5.509405l-1.560061,0l0,0.014055zm1.560061,-6.985138l5.565623,0c0.787058,0 1.391406,-0.18271 1.798989,-0.52002c0.407584,-0.351365 0.604348,-0.857331 0.604348,-1.546006c0,-0.660566 -0.210819,-1.180587 -0.604348,-1.546006c-0.407584,-0.36542 -0.983822,-0.54813 -1.714662,-0.54813l-5.635896,0l0,4.160163l-0.014055,0z" class="st7"/>
    <path stroke="null" id="svg_30" d="m345.139439,201.747053l0,-12.60698l1.560061,0l0,11.159355l8.235998,0l0,1.447624l-9.796059,0z" class="st7"/>
    <path stroke="null" id="svg_31" d="m354.935498,201.747053l6.169971,-12.60698l1.307078,0l6.240244,12.60698l-1.700607,0l-1.714662,-3.38716l-6.957029,0l-1.672498,3.38716l-1.672498,0zm4.061781,-4.862893l5.551569,0l-2.782812,-5.579678l-2.768757,5.579678z" class="st7"/>
    <path stroke="null" id="svg_32" d="m372.672408,201.747053l0,-6.310517l-5.67806,-6.296463l1.967645,0l4.511528,4.97533l4.483419,-4.97533l1.981699,0l-5.706169,6.310517l0,6.296463l-1.560061,0z" class="st7"/>
    <path stroke="null" id="svg_33" d="m386.558357,201.747053l6.169971,-12.60698l1.307078,0l6.240244,12.60698l-1.700607,0l-1.714662,-3.38716l-6.957029,0l-1.672498,3.38716l-1.672498,0zm4.061781,-4.862893l5.551569,0l-2.782812,-5.579678l-2.768757,5.579678z" class="st7"/>
    <path stroke="null" id="svg_34" d="m409.987381,201.747053l0,-12.60698l1.560061,0l0,11.159355l8.235998,0l0,1.447624l-9.796059,0z" class="st7"/>
    <path stroke="null" id="svg_35" d="m426.782633,202.070309c-1.883317,0 -3.443378,-0.618403 -4.680183,-1.869262c-1.236805,-1.236805 -1.841153,-2.824975 -1.841153,-4.736401c0,-1.911426 0.618403,-3.499596 1.855208,-4.750456s2.782812,-1.869262 4.666128,-1.869262c1.883317,0 3.457433,0.618403 4.694238,1.869262c1.236805,1.25086 1.855208,2.824975 1.855208,4.736401s-0.618403,3.485542 -1.855208,4.736401c-1.236805,1.264914 -2.810921,1.883317 -4.694238,1.883317zm0,-1.475733c1.419515,0 2.586047,-0.477857 3.513651,-1.447624c0.927604,-0.969768 1.391406,-2.192518 1.391406,-3.682306c0,-1.489788 -0.463802,-2.726593 -1.391406,-3.682306c-0.927604,-0.969768 -2.094136,-1.447624 -3.527706,-1.447624c-1.419515,0 -2.586047,0.477857 -3.513651,1.461679c-0.927604,0.969768 -1.391406,2.192518 -1.391406,3.682306s0.463802,2.712539 1.391406,3.682306c0.941658,0.955713 2.108191,1.43357 3.527706,1.43357z" class="st7"/>
    <path stroke="null" id="svg_36" d="m434.878085,199.849682l0.913549,-1.363297c0.88544,0.688676 1.813044,1.222751 2.782812,1.58817c0.955713,0.36542 1.911426,0.54813 2.853085,0.54813c1.166532,0 2.108191,-0.252983 2.83903,-0.744894c0.730839,-0.491911 1.096259,-1.124368 1.096259,-1.911426c0,-0.618403 -0.267037,-1.124368 -0.787058,-1.517897c-0.52002,-0.393529 -1.236805,-0.632457 -2.164409,-0.716785c-0.224874,-0.028109 -0.534075,-0.042164 -0.955713,-0.070273c-2.066027,-0.140546 -3.485542,-0.393529 -4.230436,-0.730839c-0.590293,-0.281092 -1.025986,-0.646512 -1.335187,-1.096259c-0.309201,-0.449747 -0.449747,-0.941658 -0.449747,-1.503843c0,-1.011931 0.449747,-1.841153 1.363297,-2.501719c0.899495,-0.646512 2.080081,-0.983822 3.527706,-0.983822c1.054095,0 2.094136,0.168655 3.106067,0.52002c1.025986,0.351365 1.995754,0.857331 2.923358,1.531952l-0.913549,1.307078c-0.773003,-0.618403 -1.58817,-1.096259 -2.445501,-1.40546c-0.857331,-0.309201 -1.742771,-0.477857 -2.642266,-0.477857c-0.955713,0 -1.728716,0.18271 -2.347119,0.54813c-0.618403,0.36542 -0.927604,0.829222 -0.927604,1.391406c0,0.224874 0.056218,0.421638 0.154601,0.604348s0.252983,0.351365 0.463802,0.52002c0.52002,0.393529 1.630334,0.632457 3.35905,0.744894c0.787058,0.042164 1.40546,0.098382 1.841153,0.154601c1.278969,0.140546 2.2909,0.562184 3.035794,1.236805c0.744894,0.674621 1.124368,1.517897 1.124368,2.501719c0,1.180587 -0.505966,2.150354 -1.531952,2.909303c-1.025986,0.758949 -2.361173,1.138423 -4.019617,1.138423c-1.25086,0 -2.417392,-0.18271 -3.499596,-0.54813c-1.138423,-0.36542 -2.150354,-0.927604 -3.134177,-1.672498z" class="st7"/>
    <path stroke="null" id="svg_37" d="m457.75898,201.747053l0,-12.60698l1.447624,0l5.087767,7.715977l5.12993,-7.715977l1.419515,0l0,12.60698l-1.546006,0l0,-9.838223l-5.003439,7.44894l-5.003439,-7.44894l0,9.838223l-1.531952,0z" class="st7"/>
    <path stroke="null" id="svg_38" d="m474.540176,201.747053l0,-12.60698l9.908496,0l0,1.447624l-8.348435,0l0,3.696361l5.045603,0l0,1.447624l-5.045603,0l0,4.553692l8.8544,0l0,1.447624l-10.414461,0l0,0.014055z" class="st7"/>
    <path stroke="null" id="svg_39" d="m485.854133,196.321976l1.560061,0l0,1.967645c0,0.815167 0.295147,1.40546 0.899495,1.77088c0.590293,0.36542 1.574116,0.54813 2.923358,0.54813c1.321133,0 2.220627,-0.224874 2.712539,-0.688676c0.477857,-0.449747 0.730839,-1.321133 0.730839,-2.614156l0,-8.165725l1.560061,0l0,8.587363c0,1.560061 -0.407584,2.670375 -1.222751,3.344996c-0.815167,0.674621 -2.164409,1.011931 -4.061781,1.011931c-1.728716,0 -3.007685,-0.309201 -3.836907,-0.927604c-0.829222,-0.618403 -1.25086,-1.560061 -1.25086,-2.824975l0,-2.009808l-0.014055,0z" class="st7"/>
    <path stroke="null" id="svg_40" d="m505.375977,202.070309c-1.883317,0 -3.443378,-0.618403 -4.680183,-1.869262c-1.236805,-1.236805 -1.841153,-2.824975 -1.841153,-4.736401c0,-1.911426 0.618403,-3.499596 1.855208,-4.750456s2.782812,-1.869262 4.666128,-1.869262c1.883317,0 3.457433,0.618403 4.694238,1.869262c1.236805,1.25086 1.855208,2.824975 1.855208,4.736401s-0.618403,3.485542 -1.855208,4.736401c-1.236805,1.264914 -2.810921,1.883317 -4.694238,1.883317zm0,-1.475733c1.419515,0 2.586047,-0.477857 3.513651,-1.447624c0.927604,-0.969768 1.391406,-2.192518 1.391406,-3.682306c0,-1.489788 -0.463802,-2.726593 -1.391406,-3.682306c-0.927604,-0.969768 -2.094136,-1.447624 -3.527706,-1.447624c-1.419515,0 -2.586047,0.477857 -3.513651,1.461679c-0.927604,0.969768 -1.391406,2.192518 -1.391406,3.682306s0.463802,2.712539 1.391406,3.682306c0.941658,0.955713 2.108191,1.43357 3.527706,1.43357z" class="st7"/>
    <path stroke="null" id="svg_41" d="m514.609852,201.747053l0,-12.60698l7.224066,0c1.236805,0 2.206573,0.309201 2.895248,0.927604c0.70273,0.618403 1.054095,1.475733 1.054095,2.571992c0,0.913549 -0.267037,1.700607 -0.815167,2.347119c-0.54813,0.646512 -1.264914,1.054095 -2.164409,1.222751l3.148231,5.537514l-1.742771,0l-3.148231,-5.509405l-4.891002,0l0,5.509405l-1.560061,0zm1.560061,-6.985138l5.565623,0c0.787058,0 1.391406,-0.18271 1.798989,-0.52002c0.407584,-0.351365 0.604348,-0.857331 0.604348,-1.546006c0,-0.660566 -0.210819,-1.180587 -0.604348,-1.546006c-0.407584,-0.36542 -0.983822,-0.54813 -1.714662,-0.54813l-5.635896,0l0,4.160163l-0.014055,0z" class="st7"/>
    <path stroke="null" id="svg_42" d="m528.636347,201.747053l0,-12.60698l9.908496,0l0,1.447624l-8.348435,0l0,3.696361l5.045603,0l0,1.447624l-5.045603,0l0,4.553692l8.8544,0l0,1.447624l-10.414461,0l0,0.014055z" class="st7"/>
    <path stroke="null" id="svg_43" d="m540.203285,199.849682l0.913549,-1.363297c0.88544,0.688676 1.813044,1.222751 2.782812,1.58817c0.955713,0.36542 1.911426,0.54813 2.853085,0.54813c1.166532,0 2.108191,-0.252983 2.83903,-0.744894c0.730839,-0.491911 1.096259,-1.124368 1.096259,-1.911426c0,-0.618403 -0.267037,-1.124368 -0.787058,-1.517897c-0.52002,-0.393529 -1.236805,-0.632457 -2.164409,-0.716785c-0.224874,-0.028109 -0.534075,-0.042164 -0.955713,-0.070273c-2.066027,-0.140546 -3.485542,-0.393529 -4.230436,-0.730839c-0.590293,-0.281092 -1.025986,-0.646512 -1.335187,-1.096259c-0.309201,-0.449747 -0.449747,-0.941658 -0.449747,-1.503843c0,-1.011931 0.449747,-1.841153 1.363297,-2.501719c0.899495,-0.646512 2.080081,-0.983822 3.527706,-0.983822c1.054095,0 2.094136,0.168655 3.106067,0.52002c1.025986,0.351365 1.995754,0.857331 2.923358,1.531952l-0.913549,1.307078c-0.773003,-0.618403 -1.58817,-1.096259 -2.445501,-1.40546c-0.857331,-0.309201 -1.742771,-0.477857 -2.642266,-0.477857c-0.955713,0 -1.728716,0.18271 -2.347119,0.54813c-0.618403,0.36542 -0.927604,0.829222 -0.927604,1.391406c0,0.224874 0.056218,0.421638 0.154601,0.604348s0.252983,0.351365 0.463802,0.52002c0.52002,0.393529 1.630334,0.632457 3.35905,0.744894c0.787058,0.042164 1.40546,0.098382 1.841153,0.154601c1.278969,0.140546 2.2909,0.562184 3.035794,1.236805c0.744894,0.674621 1.124368,1.517897 1.124368,2.501719c0,1.180587 -0.505966,2.150354 -1.531952,2.909303c-1.025986,0.758949 -2.361173,1.138423 -4.019617,1.138423c-1.25086,0 -2.417392,-0.18271 -3.499596,-0.54813c-1.138423,-0.36542 -2.164409,-0.927604 -3.134177,-1.672498z" class="st7"/>
    <path stroke="null" id="svg_44" d="m563.070126,201.747053l0,-12.60698l7.224066,0c1.222751,0 2.192518,0.309201 2.895248,0.913549s1.054095,1.447624 1.054095,2.501719c0,1.096259 -0.33731,1.981699 -1.025986,2.65632c-0.674621,0.674621 -1.58817,1.011931 -2.726593,1.011931l-5.86077,0l0,5.509405l-1.560061,0l0,0.014055zm1.574116,-6.985138l5.565623,0c0.787058,0 1.391406,-0.18271 1.798989,-0.52002c0.407584,-0.351365 0.604348,-0.857331 0.604348,-1.546006c0,-0.660566 -0.210819,-1.180587 -0.604348,-1.546006c-0.407584,-0.36542 -0.983822,-0.54813 -1.714662,-0.54813l-5.635896,0l0,4.160163l-0.014055,0z" class="st7"/>
    <path stroke="null" id="svg_45" d="m576.843638,201.747053l0,-12.60698l1.560061,0l0,11.159355l8.235998,0l0,1.447624l-9.796059,0z" class="st7"/>
    <path stroke="null" id="svg_46" d="m586.639696,201.747053l6.169971,-12.60698l1.307078,0l6.240244,12.60698l-1.700607,0l-1.714662,-3.38716l-6.957029,0l-1.672498,3.38716l-1.672498,0zm4.061781,-4.862893l5.551569,0l-2.782812,-5.579678l-2.768757,5.579678z" class="st7"/>
    <path stroke="null" id="svg_47" d="m603.19602,201.747053l0,-11.159355l-5.298586,0l0,-1.447624l12.185342,0l0,1.447624l-5.31264,0l0,11.159355l-1.574116,0z" class="st7"/>
    <path stroke="null" id="svg_48" d="m616.266801,202.070309c-1.883317,0 -3.443378,-0.618403 -4.680183,-1.869262c-1.236805,-1.236805 -1.841153,-2.824975 -1.841153,-4.736401c0,-1.911426 0.618403,-3.499596 1.855208,-4.750456s2.782812,-1.869262 4.666128,-1.869262c1.883317,0 3.457433,0.618403 4.694238,1.869262c1.236805,1.25086 1.855208,2.824975 1.855208,4.736401s-0.618403,3.485542 -1.855208,4.736401c-1.236805,1.264914 -2.810921,1.883317 -4.694238,1.883317zm0,-1.475733c1.419515,0 2.586047,-0.477857 3.513651,-1.447624c0.927604,-0.969768 1.391406,-2.192518 1.391406,-3.682306c0,-1.489788 -0.463802,-2.726593 -1.391406,-3.682306c-0.927604,-0.969768 -2.094136,-1.447624 -3.527706,-1.447624c-1.419515,0 -2.586047,0.477857 -3.513651,1.461679c-0.927604,0.969768 -1.391406,2.192518 -1.391406,3.682306s0.463802,2.712539 1.391406,3.682306c0.941658,0.955713 2.108191,1.43357 3.527706,1.43357z" class="st7"/>
    <path stroke="null" id="svg_49" d="m624.362253,199.849682l0.913549,-1.363297c0.88544,0.688676 1.813044,1.222751 2.782812,1.58817c0.955713,0.36542 1.911426,0.54813 2.853085,0.54813c1.166532,0 2.108191,-0.252983 2.83903,-0.744894c0.730839,-0.491911 1.096259,-1.124368 1.096259,-1.911426c0,-0.618403 -0.267037,-1.124368 -0.787058,-1.517897c-0.52002,-0.393529 -1.236805,-0.632457 -2.164409,-0.716785c-0.224874,-0.028109 -0.534075,-0.042164 -0.955713,-0.070273c-2.066027,-0.140546 -3.485542,-0.393529 -4.230436,-0.730839c-0.590293,-0.281092 -1.025986,-0.646512 -1.335187,-1.096259c-0.309201,-0.449747 -0.449747,-0.941658 -0.449747,-1.503843c0,-1.011931 0.449747,-1.841153 1.363297,-2.501719c0.899495,-0.646512 2.080081,-0.983822 3.527706,-0.983822c1.054095,0 2.094136,0.168655 3.106067,0.52002c1.025986,0.351365 1.995754,0.857331 2.923358,1.531952l-0.913549,1.307078c-0.773003,-0.618403 -1.58817,-1.096259 -2.445501,-1.40546c-0.857331,-0.309201 -1.742771,-0.477857 -2.642266,-0.477857c-0.955713,0 -1.728716,0.18271 -2.347119,0.54813c-0.618403,0.36542 -0.927604,0.829222 -0.927604,1.391406c0,0.224874 0.056218,0.421638 0.154601,0.604348s0.252983,0.351365 0.463802,0.52002c0.52002,0.393529 1.630334,0.632457 3.35905,0.744894c0.787058,0.042164 1.40546,0.098382 1.841153,0.154601c1.278969,0.140546 2.2909,0.562184 3.035794,1.236805c0.744894,0.674621 1.124368,1.517897 1.124368,2.501719c0,1.180587 -0.505966,2.150354 -1.531952,2.909303c-1.025986,0.758949 -2.361173,1.138423 -4.019617,1.138423c-1.25086,0 -2.417392,-0.18271 -3.499596,-0.54813c-1.138423,-0.36542 -2.150354,-0.927604 -3.134177,-1.672498z" class="st7"/>
    <path stroke="null" id="svg_50" d="m652.710389,189.140074c1.981699,0 3.583924,0.590293 4.806675,1.756825c1.208696,1.166532 1.827098,2.698484 1.827098,4.581801c0,1.897372 -0.604348,3.415269 -1.798989,4.553692c-1.194641,1.138423 -2.810921,1.714662 -4.834784,1.714662l-5.396968,0l0,-12.60698l5.396968,0zm0,1.447624l-3.836907,0l0,9.697677l3.836907,0c1.546006,0 2.768757,-0.435693 3.668252,-1.307078c0.88544,-0.871385 1.335187,-2.051972 1.335187,-3.527706c0,-1.461679 -0.449747,-2.642266 -1.363297,-3.527706s-2.122245,-1.335187 -3.640142,-1.335187z" class="st7"/>
    <path stroke="null" id="svg_51" d="m662.08481,201.747053l0,-12.60698l9.908496,0l0,1.447624l-8.348435,0l0,3.696361l5.045603,0l0,1.447624l-5.045603,0l0,4.553692l8.8544,0l0,1.447624l-10.414461,0l0,0.014055z" class="st7"/>
    <path stroke="null" id="svg_52" d="m692.681682,197.727437l1.25086,0.941658c-0.576239,1.096259 -1.363297,1.939535 -2.375228,2.529829c-0.997877,0.590293 -2.150354,0.88544 -3.429323,0.88544c-1.883317,0 -3.443378,-0.618403 -4.680183,-1.869262c-1.236805,-1.236805 -1.841153,-2.824975 -1.841153,-4.736401c0,-1.911426 0.618403,-3.499596 1.855208,-4.750456s2.782812,-1.869262 4.666128,-1.869262c1.166532,0 2.220627,0.252983 3.190395,0.758949c0.955713,0.505966 1.742771,1.236805 2.347119,2.178464l-1.307078,0.941658c-0.393529,-0.758949 -0.969768,-1.349242 -1.714662,-1.77088c-0.744894,-0.421638 -1.574116,-0.646512 -2.501719,-0.646512c-1.419515,0 -2.586047,0.477857 -3.513651,1.461679c-0.927604,0.969768 -1.391406,2.192518 -1.391406,3.682306s0.463802,2.712539 1.391406,3.682306c0.927604,0.969768 2.094136,1.447624 3.513651,1.447624c0.983822,0 1.869262,-0.238928 2.642266,-0.730839s1.40546,-1.194641 1.897372,-2.1363z" class="st7"/>
    <path stroke="null" id="svg_53" d="m702.266922,202.070309c-1.883317,0 -3.443378,-0.618403 -4.680183,-1.869262c-1.236805,-1.236805 -1.841153,-2.824975 -1.841153,-4.736401c0,-1.911426 0.618403,-3.499596 1.855208,-4.750456s2.782812,-1.869262 4.666128,-1.869262c1.883317,0 3.457433,0.618403 4.694238,1.869262c1.236805,1.25086 1.855208,2.824975 1.855208,4.736401s-0.618403,3.485542 -1.855208,4.736401c-1.236805,1.264914 -2.796866,1.883317 -4.694238,1.883317zm0,-1.475733c1.419515,0 2.586047,-0.477857 3.513651,-1.447624c0.927604,-0.969768 1.391406,-2.192518 1.391406,-3.682306c0,-1.489788 -0.463802,-2.726593 -1.391406,-3.682306c-0.927604,-0.969768 -2.094136,-1.447624 -3.527706,-1.447624c-1.419515,0 -2.586047,0.477857 -3.513651,1.461679c-0.927604,0.969768 -1.391406,2.192518 -1.391406,3.682306s0.463802,2.712539 1.391406,3.682306c0.941658,0.955713 2.108191,1.43357 3.527706,1.43357z" class="st7"/>
    <path stroke="null" id="svg_54" d="m711.57107,201.747053l0,-12.60698l1.560061,0l0,11.159355l8.235998,0l0,1.447624l-9.796059,0z" class="st7"/>
    <path stroke="null" id="svg_55" d="m728.366321,202.070309c-1.883317,0 -3.443378,-0.618403 -4.680183,-1.869262c-1.236805,-1.236805 -1.841153,-2.824975 -1.841153,-4.736401c0,-1.911426 0.618403,-3.499596 1.855208,-4.750456s2.782812,-1.869262 4.666128,-1.869262c1.883317,0 3.457433,0.618403 4.694238,1.869262c1.236805,1.25086 1.855208,2.824975 1.855208,4.736401s-0.618403,3.485542 -1.855208,4.736401c-1.236805,1.264914 -2.810921,1.883317 -4.694238,1.883317zm0,-1.475733c1.419515,0 2.586047,-0.477857 3.513651,-1.447624c0.927604,-0.969768 1.391406,-2.192518 1.391406,-3.682306c0,-1.489788 -0.463802,-2.726593 -1.391406,-3.682306c-0.927604,-0.969768 -2.094136,-1.447624 -3.527706,-1.447624c-1.419515,0 -2.586047,0.477857 -3.513651,1.461679c-0.927604,0.969768 -1.391406,2.192518 -1.391406,3.682306s0.463802,2.712539 1.391406,3.682306c0.941658,0.955713 2.108191,1.43357 3.527706,1.43357z" class="st7"/>
    <path stroke="null" id="svg_56" d="m737.600196,201.747053l0,-12.60698l1.447624,0l5.087767,7.715977l5.12993,-7.715977l1.419515,0l0,12.60698l-1.546006,0l0,-9.838223l-5.003439,7.44894l-5.003439,-7.44894l0,9.838223l-1.531952,0z" class="st7"/>
    <path stroke="null" id="svg_57" d="m754.381393,201.747053l0,-12.60698l7.44894,0c1.236805,0 2.178464,0.267037 2.810921,0.787058c0.632457,0.534075 0.955713,1.307078 0.955713,2.347119c0,0.505966 -0.098382,0.955713 -0.295147,1.349242c-0.196764,0.393529 -0.477857,0.716785 -0.843276,0.955713c0.674621,0.393529 1.180587,0.871385 1.517897,1.43357c0.33731,0.562184 0.52002,1.208696 0.52002,1.939535c0,1.166532 -0.379474,2.080081 -1.152478,2.768757c-0.758949,0.674621 -1.798989,1.025986 -3.106067,1.025986l-7.856524,0zm1.560061,-7.63165l6.029425,0c0.660566,0 1.166532,-0.154601 1.517897,-0.449747s0.52002,-0.730839 0.52002,-1.293024c0,-0.590293 -0.168655,-1.040041 -0.505966,-1.335187c-0.33731,-0.295147 -0.843276,-0.449747 -1.531952,-0.449747l-6.029425,0l0,3.527706zm0,6.169971l6.591609,0c0.716785,0 1.278969,-0.210819 1.686552,-0.632457c0.407584,-0.421638 0.618403,-0.997877 0.618403,-1.728716c0,-0.716785 -0.210819,-1.293024 -0.618403,-1.728716c-0.407584,-0.421638 -0.969768,-0.646512 -1.686552,-0.646512l-6.591609,0l0,4.736401z" class="st7"/>
    <path stroke="null" id="svg_58" d="m769.658747,201.747053l0,-12.677253l1.58817,0l0,12.677253l-1.58817,0z" class="st7"/>
    <path stroke="null" id="svg_59" d="m773.144289,201.747053l6.169971,-12.60698l1.307078,0l6.240244,12.60698l-1.700607,0l-1.714662,-3.38716l-6.957029,0l-1.672498,3.38716l-1.672498,0zm4.061781,-4.862893l5.551569,0l-2.782812,-5.579678l-2.768757,5.579678z" class="st7"/>
   </g>
   <g stroke="null" id="svg_60">
    <g stroke="null" id="svg_61">
     <g stroke="null" id="svg_62">
      <g stroke="null" id="svg_63">
       <g stroke="null" id="svg_64">
        <path stroke="null" id="svg_65" d="m770.249041,169.59012c0.716785,0.168655 0.562184,-0.449747 0.688676,-0.534075c-1.236805,-0.070273 -0.674621,0.688676 -0.688676,0.534075z" class="st1"/>
        <polygon stroke="null" id="svg_66" points="758.063720703125,168.9014434814453 758.316650390625,168.69061279296875 756.4614868164062,168.9857940673828 " class="st1"/>
        <path stroke="null" id="svg_67" d="m746.876234,167.0884c0.899495,1.138423 4.075835,0.491911 6.01537,1.152478l0.295147,0.281092l1.025986,-0.646512c-2.445501,-0.252983 -5.664005,-0.252983 -7.336503,-0.787058z" class="st1"/>
        <path stroke="null" id="svg_68" d="m741.226284,164.038551c0.309201,0.435693 -1.349242,0.140546 1.377351,0.33731c-0.126491,-0.056218 -0.168655,-0.098382 -0.238928,-0.140546c-0.238928,-0.042164 -0.576239,-0.084328 -1.138423,-0.196764z" class="st1"/>
        <path stroke="null" id="svg_69" d="m742.364707,164.235316c1.194641,0.154601 -0.716785,-0.449747 0,0l0,0z" class="st1"/>
        <path stroke="null" id="svg_70" d="m736.869357,163.616913l1.602225,-0.112437c-0.295147,-0.281092 -1.672498,-0.54813 -1.124368,-0.632457c-1.616279,-0.042164 -1.321133,0.238928 -0.477857,0.744894z" class="st1"/>
        <path stroke="null" id="svg_71" d="m735.295241,164.122879l0.829222,-0.028109c-0.126491,-0.112437 -0.33731,-0.168655 -0.829222,0.028109z" class="st1"/>
        <path stroke="null" id="svg_72" d="m737.881288,164.052606l-1.756825,0.056218c0.196764,0.196764 0.18271,0.52002 0.801112,0c-0.18271,0.267037 0.196764,0.042164 0.955713,-0.056218z" class="st1"/>
        <path stroke="null" id="svg_73" d="m738.822947,164.347753c0.843276,0.351365 1.95359,0.660566 0.33731,0.758949c2.993631,0.323256 2.65632,-0.449747 -0.33731,-0.758949z" class="st1"/>
        <path stroke="null" id="svg_74" d="m746.145395,168.030059l1.124368,0.463802l1.054095,-0.168655c-0.534075,0.084328 -2.206573,-0.618403 -2.178464,-0.295147z" class="st1"/>
        <path stroke="null" id="svg_75" d="m727.241953,161.705487c-0.126491,0.196764 0.449747,0.632457 0.52002,0.927604l1.180587,-0.070273c-0.562184,-0.238928 -1.672498,-0.534075 -1.700607,-0.857331z" class="st1"/>
        <path stroke="null" id="svg_76" d="m727.761973,162.633091l-1.77088,0.112437c1.531952,0.252983 1.841153,0.126491 1.77088,-0.112437z" class="st1"/>
        <polygon stroke="null" id="svg_77" points="734.845458984375,165.19102478027344 737.782958984375,164.8396759033203 734.3114013671875,165.1207733154297 " class="st1"/>
        <polygon stroke="null" id="svg_78" points="720.6504516601562,160.7638397216797 721.7045288085938,160.39840698242188 719.8633422851562,160.9043731689453 " class="st1"/>
        <path stroke="null" id="svg_79" d="m716.279362,160.243808c0.773003,-0.309201 -0.899495,-0.815167 -0.098382,-0.969768c-1.194641,-0.084328 -2.262791,0.112437 -3.218504,0.323256c0.997877,-0.056218 2.023863,0.140546 3.316886,0.646512z" class="st1"/>
        <path stroke="null" id="svg_80" d="m711.360251,159.864334c0.491911,-0.042164 1.025986,-0.140546 1.58817,-0.267037c-0.52002,0.028109 -1.040041,0.098382 -1.58817,0.267037z" class="st1"/>
        <path stroke="null" id="svg_81" d="m723.067736,162.225507c-0.112437,-0.140546 -0.323256,-0.52002 -1.278969,-0.787058l0.590293,0.688676c0.210819,0.028109 0.449747,0.070273 0.688676,0.098382z" class="st1"/>
        <path stroke="null" id="svg_82" d="m722.407169,162.155234l-0.028109,-0.028109c-0.730839,-0.112437 -1.236805,-0.196764 -1.461679,-0.238928c0.196764,0.042164 0.646512,0.112437 1.489788,0.267037z" class="st1"/>
        <path stroke="null" id="svg_83" d="m723.236391,162.253617c-0.056218,-0.014055 -0.112437,-0.014055 -0.168655,-0.028109c0.056218,0.070273 0.098382,0.098382 0.168655,0.028109z" class="st1"/>
        <path stroke="null" id="svg_84" d="m730.418293,163.996388c-1.054095,0.18271 -3.218504,0.238928 -1.25086,1.040041c0.787058,-0.295147 -0.33731,-0.758949 1.25086,-1.040041z" class="st1"/>
        <path stroke="null" id="svg_85" d="m723.981285,163.110947l1.813044,0.393529c-0.014055,-0.168655 -0.309201,-0.435693 0.210819,-0.534075l-2.023863,0.140546z" class="st1"/>
        <polygon stroke="null" id="svg_86" points="723.0536499023438,163.1812286376953 723.9813232421875,163.11093139648438 723.306640625,162.9704132080078 " class="st1"/>
        <path stroke="null" id="svg_87" d="m714.438209,160.820047c-0.829222,0.154601 -1.700607,0.070273 -2.684429,-0.028109c1.040041,0.252983 2.108191,0.449747 3.134177,0.590293c0.168655,-0.154601 0.674621,-0.421638 -0.449747,-0.562184z" class="st1"/>
        <path stroke="null" id="svg_88" d="m718.303225,161.522777c-0.056218,0 -0.126491,0.014055 -0.18271,0.014055c0.098382,0.056218 0.18271,0.084328 0.18271,-0.014055z" class="st1"/>
        <polygon stroke="null" id="svg_89" points="702.1263427734375,159.56918334960938 702.2669067382812,159.69569396972656 702.30908203125,159.5972900390625 " class="st1"/>
        <path stroke="null" id="svg_90" d="m715.056611,161.536832c0.773003,0.224874 1.264914,0.140546 1.728716,0.014055c-0.590293,-0.014055 -1.222751,-0.070273 -1.897372,-0.154601c-0.070273,0.084328 -0.098382,0.126491 0.168655,0.140546z" class="st1"/>
        <path stroke="null" id="svg_91" d="m708.647712,159.794061c0.393529,0.18271 0.843276,0.33731 1.321133,0.505966c-0.379474,-0.238928 -1.166532,-0.646512 -1.321133,-0.505966z" class="st1"/>
        <path stroke="null" id="svg_92" d="m717.881587,161.326013c0.042164,0 0.084328,0 0.126491,-0.014055c-0.252983,-0.154601 -0.224874,-0.084328 -0.126491,0.014055z" class="st1"/>
        <path stroke="null" id="svg_93" d="m717.881587,161.326013c-0.421638,0.028109 -0.758949,0.140546 -1.096259,0.224874c0.491911,0.014055 0.941658,0.014055 1.335187,-0.014055c-0.084328,-0.056218 -0.18271,-0.140546 -0.238928,-0.210819z" class="st1"/>
        <path stroke="null" id="svg_94" d="m698.739216,163.040674c0.210819,-0.534075 2.347119,-0.815167 4.047726,0.014055c1.813044,-0.18271 0.88544,-2.150354 -0.52002,-3.35905c-0.084328,0.238928 -0.112437,0.449747 -1.967645,0.562184c0.604348,0.36542 3.935289,1.208696 2.347119,1.517897c-2.431446,-0.014055 -1.939535,-0.435693 -3.063904,-0.871385c0.899495,0.801112 -3.17634,0.632457 -2.768757,1.714662l2.150354,-0.098382c0,0.154601 -0.787058,0.309201 -0.224874,0.52002z" class="st1"/>
        <path stroke="null" id="svg_95" d="m705.7103,160.18759l0.758949,0.028109c-0.843276,-0.210819 -1.419515,-0.505966 -2.487665,-1.082204c-1.278969,0.112437 -1.560061,0.281092 -1.658443,0.449747l3.654197,0.54813l-0.267037,0.056218z" class="st1"/>
        <path stroke="null" id="svg_96" d="m709.814244,160.651392c-0.660566,0.52002 -2.487665,0.54813 -1.475733,1.349242c2.192518,0.238928 1.602225,-0.309201 2.937412,-0.393529c-3.54176,-0.309201 1.054095,-0.210819 -1.447624,-0.871385c0.70273,-0.014055 1.335187,0.042164 1.925481,0.084328c-0.632457,-0.154601 -1.222751,-0.323256 -1.784935,-0.505966c0.028109,0.014055 0.056218,0.028109 0.070273,0.042164l0.014055,0l0,0.014055c0.140546,0.098382 0.18271,0.140546 0.014055,0.084328c-0.014055,0 -0.056218,0 -0.070273,0c-0.028109,0.056218 -0.112437,0.126491 -0.18271,0.196764c-1.011931,-0.252983 -0.140546,-0.18271 0.18271,-0.210819c0.014055,-0.028109 0.042164,-0.056218 0.056218,-0.084328l-0.014055,-0.014055l-3.583924,-0.126491c0.744894,0.18271 1.686552,0.281092 3.35905,0.435693z" class="st1"/>
        <path stroke="null" id="svg_97" d="m727.101407,166.062414c-0.098382,-0.070273 -0.084328,-0.112437 -0.098382,-0.154601c-0.224874,0.042164 -0.323256,0.070273 0.098382,0.154601z" class="st1"/>
        <path stroke="null" id="svg_98" d="m725.710001,165.486176c0.267037,-0.042164 0.52002,-0.252983 1.335187,-0.070273c0.70273,0.281092 -0.042164,0.281092 -0.028109,0.491911c0.52002,-0.084328 1.813044,-0.18271 0.281092,-0.688676l-0.267037,0.042164c-1.391406,-0.421638 -3.106067,-1.419515 -2.853085,-1.461679c0.351365,0.590293 0.660566,1.025986 1.531952,1.686552z" class="st1"/>
        <path stroke="null" id="svg_99" d="m717.642659,163.18122l-2.979576,-0.112437l1.419515,0.716785l-0.028109,-0.323256c1.658443,0.36542 1.349242,-0.056218 1.58817,-0.281092z" class="st1"/>
        <polygon stroke="null" id="svg_100" points="701.8312377929688,159.23187255859375 702.2950439453125,158.64158630371094 700.4819946289062,159.33026123046875 " class="st1"/>
        <polygon stroke="null" id="svg_101" points="697.9802856445312,158.83834838867188 698.1909790039062,158.30426025390625 697.1370239257812,158.51510620117188 " class="st1"/>
        <path stroke="null" id="svg_102" d="m480.935021,156.125809l-0.857331,0.18271c0.393529,-0.056218 0.660566,-0.126491 0.857331,-0.18271z" class="st1"/>
        <path stroke="null" id="svg_103" d="m487.217429,155.999318l0.140546,-0.281092c-0.281092,0.154601 -0.407584,0.267037 -0.140546,0.281092z" class="st1"/>
        <path stroke="null" id="svg_104" d="m603.617658,150.644514c-1.236805,-0.576239 -2.614156,-1.461679 -2.501719,-0.829222l0.351365,0.632457c0.899495,-0.070273 1.574116,0.028109 2.150354,0.196764z" class="st1"/>
        <path stroke="null" id="svg_105" d="m538.727552,152.246739c0.126491,0.056218 0.238928,0.126491 0.36542,0.196764c0.309201,-0.210819 0.604348,-0.393529 0.857331,-0.576239c-0.351365,0.112437 -0.773003,0.252983 -1.222751,0.379474z" class="st1"/>
        <path stroke="null" id="svg_106" d="m537.814003,154.762513l-1.658443,-0.393529c0.379474,0.126491 0.913549,0.252983 1.658443,0.393529z" class="st1"/>
        <path stroke="null" id="svg_107" d="m446.669897,158.290218l-0.969768,0.674621c1.574116,-0.098382 0.871385,-0.36542 0.969768,-0.674621z" class="st1"/>
        <path stroke="null" id="svg_108" d="m658.683596,154.860895c-1.06815,-0.33731 -1.925481,-0.52002 -2.684429,-0.618403c1.278969,0.477857 2.2909,1.096259 2.684429,0.618403z" class="st1"/>
        <path stroke="null" id="svg_109" d="m483.211867,149.590419c-0.534075,0.126491 -0.758949,0.252983 -0.730839,0.393529c0.534075,-0.126491 0.843276,-0.252983 0.730839,-0.393529z" class="st1"/>
        <path stroke="null" id="svg_110" d="m652.83688,153.9614c0.18271,0.070273 0.379474,0.126491 0.562184,0.196764c0.801112,-0.028109 1.616279,-0.042164 2.586047,0.098382c-0.941658,-0.36542 -2.037918,-0.632457 -3.148231,-0.295147z" class="st1"/>
        <path stroke="null" id="svg_111" d="m322.806674,170.011758c-0.098382,-0.014055 -0.196764,-0.014055 -0.295147,-0.028109c0,0.084328 0.126491,0.070273 0.295147,0.028109z" class="st1"/>
        <path stroke="null" id="svg_112" d="m285.955503,169.491738c0.351365,-0.098382 0.927604,-0.196764 1.461679,-0.295147c-0.267037,0 -0.70273,0.084328 -1.461679,0.295147z" class="st1"/>
        <path stroke="null" id="svg_113" d="m682.590477,156.80043c0.815167,0.056218 0.140546,-0.056218 0,0l0,0z" class="st1"/>
        <path stroke="null" id="svg_114" d="m686.286837,159.63946c-0.18271,0.042164 -0.323256,0.126491 -0.351365,0.252983c0.070273,-0.140546 0.196764,-0.210819 0.351365,-0.252983z" class="st1"/>
        <path stroke="null" id="svg_115" d="m644.404118,157.053413c-0.028109,0 -0.042164,0 -0.070273,-0.014055c0.224874,0.140546 0.18271,0.112437 0.070273,0.014055z" class="st1"/>
        <path stroke="null" id="svg_116" d="m683.785118,157.208014c-0.295147,-0.112437 -0.646512,-0.210819 -1.025986,-0.295147c0.168655,0.070273 0.477857,0.168655 1.025986,0.295147z" class="st1"/>
        <path stroke="null" id="svg_117" d="m683.658627,156.912867c0.281092,0.056218 0.491911,0.098382 0.70273,0.140546c0.112437,-0.098382 0.028109,-0.168655 -0.70273,-0.140546z" class="st1"/>
        <path stroke="null" id="svg_118" d="m681.452054,156.702048c0.463802,0.042164 0.899495,0.112437 1.307078,0.210819c-0.154601,-0.056218 -0.224874,-0.098382 -0.168655,-0.112437c-0.238928,-0.014055 -0.576239,-0.042164 -1.138423,-0.098382z" class="st1"/>
        <path stroke="null" id="svg_119" d="m388.877366,160.5249c-0.056218,-0.014055 -0.112437,-0.014055 -0.18271,-0.042164c-0.787058,0.323256 -0.435693,0.252983 0.18271,0.042164z" class="st1"/>
        <path stroke="null" id="svg_120" d="m582.100059,155.985263c0.042164,0 0.056218,-0.014055 0.098382,-0.028109c-0.042164,-0.014055 -0.084328,-0.014055 -0.112437,-0.028109l0.014055,0.056218z" class="st1"/>
        <path stroke="null" id="svg_121" d="m579.148593,156.322574c1.278969,-0.70273 1.981699,-0.590293 2.909303,-0.379474l-0.899495,-1.798989l-2.009808,2.178464z" class="st1"/>
        <path stroke="null" id="svg_122" d="m465.896595,156.870703l2.080081,0.463802c-2.431446,0.997877 -4.24449,0.758949 -2.276846,1.461679c0.210819,-1.925481 7.954906,-0.52002 8.165725,-2.431446l1.363297,0.351365c-0.393529,0 -0.449747,0.112437 -0.829222,0.112437c2.65632,0.815167 1.897372,-1.489788 5.31264,-1.293024c1.180587,0.112437 2.023863,0.36542 1.222751,0.618403l2.614156,-0.54813c0.773003,0.014055 0.590293,0.351365 -0.168655,0.33731l4.019617,-0.267037l-0.028109,0.056218c0.562184,-0.309201 1.855208,-0.815167 2.487665,-1.025986c1.025986,0.252983 -0.505966,0.210819 -0.238928,0.449747l2.220627,-0.52002c0.913549,0.463802 -0.913549,0.997877 -2.445501,0.969768c2.122245,1.855208 1.841153,-0.534075 6.338626,0.463802l-2.094136,0.295147c1.377351,1.054095 3.007685,0.590293 5.396968,1.236805c-0.562184,-0.36542 -4.778565,-1.58817 -2.375228,-2.1363c0.688676,0.126491 1.58817,0.18271 2.881194,-0.224874c0.028109,0.674621 1.293024,0.491911 2.881194,0.435693l-0.098382,0.899495c1.714662,-0.281092 1.574116,-0.744894 2.571992,-1.152478c1.925481,0.070273 2.333064,0.758949 2.782812,1.335187c3.077958,0.098382 -2.1363,-1.082204 1.503843,-1.307078c2.557938,0.309201 4.342873,-0.084328 7.392722,-0.660566c1.784935,0.281092 -0.309201,0.54813 0.33731,0.801112l1.574116,-0.730839c0.393529,0.014055 0.267037,0.238928 0.196764,0.351365c1.335187,-0.281092 0.098382,-0.899495 2.206573,-1.138423c0.562184,-0.983822 4.314763,1.447624 6.914865,0.323256c0.646512,0.252983 -0.309201,0.54813 -0.112437,0.899495c3.569869,-0.730839 3.063904,-0.534075 5.987261,-1.517897l2.487665,0.590293c-1.827098,-0.674621 0.52002,-1.489788 2.586047,-2.108191c-0.646512,-0.33731 -1.208696,-0.632457 -1.574116,-0.758949l3.288777,-0.435693c0.393529,0.154601 0.056218,0.463802 -0.477857,0.829222c0.224874,-0.070273 0.435693,-0.140546 0.604348,-0.210819c1.166532,0.351365 0.562184,0.857331 -0.295147,1.349242c-0.393529,-0.196764 -0.787058,-0.379474 -1.180587,-0.576239c-0.815167,0.534075 -1.574116,1.124368 -1.40546,1.658443c0.210819,-0.098382 0.618403,-0.18271 1.082204,-0.224874c-0.210819,0.140546 -0.351365,0.281092 -0.252983,0.36542c0.112437,0.098382 0.449747,-0.098382 0.997877,-0.323256l0.730839,1.011931l0.18271,-0.393529l4.2726,0.688676c3.077958,-0.955713 5.762388,-2.403337 10.65339,-2.740648c-1.222751,0.716785 -0.281092,1.194641 -0.36542,2.066027c-1.307078,-0.941658 -3.780688,0.33731 -6.296463,0.112437c1.307078,0.112437 1.011931,0.534075 0.674621,0.660566l4.511528,-0.773003c-0.112437,0.716785 0.941658,0.54813 2.108191,0.857331c-0.857331,-1.43357 3.373105,-0.88544 5.214258,-1.25086c0.098382,0.477857 -0.351365,0.941658 -2.571992,0.758949c2.431446,1.138423 3.218504,-1.560061 5.621842,-0.590293c-0.54813,0 -0.843276,-0.084328 -1.054095,0.154601c1.278969,-0.379474 4.385036,0.042164 3.640142,0.435693l-0.54813,0c3.612033,0.267037 11.004755,0.33731 11.595048,-0.843276c0.028109,0.154601 -0.52002,1.419515 -0.758949,1.658443l6.605664,-3.766634c-0.604348,0.997877 1.475733,3.54176 -1.546006,3.991507c0.857331,0.18271 1.911426,0.393529 3.738525,0.112437c-0.576239,-0.168655 -1.40546,-1.546006 -0.590293,-1.602225c2.150354,1.236805 1.503843,0.674621 4.174217,1.756825c-0.871385,-0.252983 0.18271,-1.827098 1.574116,-1.714662c-0.224874,0.224874 0.042164,1.58817 -0.477857,1.742771l3.54176,-1.40546c-0.871385,0.238928 -0.210819,1.335187 0.534075,1.813044c-0.33731,-0.323256 2.993631,0.18271 3.921234,0.070273l-1.447624,-0.435693c3.893125,0.435693 3.977453,-2.037918 7.856524,-1.742771c-0.491911,0.295147 -1.264914,1.939535 0.688676,2.248737c0.941658,-0.758949 4.216381,-3.654197 7.701923,-4.075835l0.632457,0.505966l2.670375,-0.36542c-1.728716,1.124368 -6.479172,3.401214 -9.051165,4.258545c1.43357,0.449747 0.379474,0.562184 2.571992,0.660566c0.744894,0.477857 -1.236805,0.590293 -1.869262,0.576239l5.073712,0.576239c-0.168655,-0.955713 3.949344,-0.716785 3.808798,-1.503843l-5.593732,0.646512c-0.168655,-0.941658 3.35905,-2.501719 6.971083,-2.094136c0.899495,0.435693 -0.801112,1.630334 -0.744894,1.95359c0.491911,-0.295147 3.471487,-0.393529 3.780688,-0.140546l-1.560061,0.393529c1.981699,0.491911 3.35905,-1.025986 5.720224,0.042164c0.829222,0.112437 2.403337,1.377351 2.586047,0.829222c-1.278969,-1.166532 -1.307078,-4.511528 -0.351365,-5.256422c0.295147,0.084328 4.314763,1.349242 5.228313,1.95359c1.307078,0.941658 -2.206573,1.855208 -1.096259,2.670375c0.070273,-0.252983 0.857331,-0.52002 1.180587,-0.590293c0.857331,0.281092 -0.421638,0.773003 1.489788,0.801112c0.393529,-0.927604 3.865016,0.379474 0.955713,-0.744894c1.883317,-0.126491 1.967645,0.351365 4.146108,0.477857c-0.646512,-0.674621 2.1363,-1.95359 4.019617,-2.051972c-0.126491,0.238928 0.267037,0.590293 0.449747,0.744894c3.808798,0.407584 5.818606,1.011931 9.374421,1.335187c0.309201,0.267037 1.995754,0.70273 1.222751,1.040041c0.52002,-0.126491 1.025986,-0.393529 2.122245,-0.323256c2.037918,1.025986 -2.459556,-0.098382 -0.927604,1.040041c0.18271,-0.54813 2.895248,-0.491911 4.497473,-0.70273c-0.393529,-0.899495 -3.583924,-0.505966 -5.186149,-0.309201c0.098382,-1.180587 2.937412,-2.164409 6.704046,-2.361173c2.979576,-0.014055 1.208696,0.88544 1.742771,0.758949c5.523459,0.744894 4.933166,-1.58817 9.458748,-0.267037c1.756825,0.941658 -0.070273,1.503843 0.281092,2.094136c-2.431446,0.042164 -3.640142,-0.857331 -5.270476,-0.997877l1.967645,0.562184c-0.787058,0.168655 -2.417392,0.196764 -3.260668,-0.112437c1.461679,0.843276 9.346312,1.06815 13.548638,2.178464c0.787058,-0.168655 2.122245,-0.281092 1.531952,-0.660566l-1.363297,-0.042164c-1.180587,-0.744894 2.642266,-0.54813 0.955713,-1.025986c1.855208,-0.224874 3.977453,-0.660566 6.493227,-0.042164l0.379474,0.913549c-0.028109,-0.252983 -1.616279,-0.688676 -2.361173,-0.52002c1.110314,-0.252983 3.780688,1.58817 5.073712,0.618403l-1.714662,-0.801112c1.869262,-0.210819 4.230436,-0.857331 6.465118,-0.309201c-0.927604,-0.969768 -0.534075,0.028109 -2.023863,-1.152478c1.25086,1.391406 -5.790497,-0.744894 -3.696361,0.815167c-1.517897,-1.335187 -2.796866,-0.801112 -4.848838,-2.023863c0.042164,0.295147 0.70273,0.618403 -1.180587,0.281092c-0.098382,0.070273 -0.309201,0.154601 -0.449747,0.196764c-0.056218,-0.014055 -0.070273,-0.028109 -0.126491,-0.042164c0.042164,0.014055 0.070273,0.028109 0.098382,0.042164c-0.084328,0.028109 -0.098382,0.042164 0.042164,0.014055c0.435693,0.168655 0.787058,0.36542 0.927604,0.534075c-1.011931,0.54813 -4.033671,0.18271 -5.101821,0.407584c-1.110314,-0.252983 0.505966,-0.267037 -0.070273,-0.646512l-1.58817,0.33731c-0.084328,-0.646512 -2.895248,-1.349242 -0.18271,-1.447624l-2.389283,-0.267037c-1.377351,-0.491911 -3.302832,-0.829222 -4.525582,-0.688676c-1.110314,-0.252983 -2.923358,0.407584 -1.897372,0.014055l-3.794743,0.014055l-0.014055,-0.154601c-3.710415,-0.421638 -7.730032,0.323256 -11.87614,-1.208696c-1.264914,0.056218 -2.571992,0.140546 -4.652074,-0.224874l-0.36542,-0.576239c-1.616279,0.056218 -4.778565,-0.955713 -5.509405,-0.449747c-1.616279,-1.616279 -7.772196,-0.927604 -10.583117,-1.40546l-0.154601,0.70273c-1.939535,-0.196764 -3.822852,-0.126491 -6.254299,0l0.098382,0.632457c-2.122245,0.379474 -5.326695,-0.815167 -8.615472,-0.969768c0.238928,-0.224874 1.06815,-0.112437 1.658443,0.084328c-3.850961,-1.686552 -8.362489,0.534075 -11.87614,-0.716785c-0.899495,0.18271 -1.546006,0.056218 -2.164409,-0.140546c0.084328,0 0.154601,0 0.224874,-0.014055c-0.084328,-0.014055 -0.224874,-0.028109 -0.36542,-0.028109c-0.393529,-0.126491 -0.787058,-0.281092 -1.222751,-0.407584c0.36542,0.168655 0.716785,0.309201 1.025986,0.393529c-0.688676,-0.028109 -1.728716,0 -2.754702,0.112437l-0.393529,-0.70273c-0.084328,0 -0.154601,0 -0.238928,0.014055c-0.983822,-0.295147 -0.815167,0.281092 -0.309201,0.815167c-0.52002,0.084328 -0.997877,0.196764 -1.377351,0.33731c-0.758949,-1.138423 -2.698484,0.238928 -3.752579,-0.983822c-0.716785,0.534075 -5.15804,0.168655 -5.748333,1.349242c-0.028109,-0.154601 -0.323256,-0.238928 0.224874,-0.224874c-1.124368,-0.18271 -2.262791,-0.36542 -3.302832,-0.070273l-0.449747,-0.88544l-2.529829,1.054095c-1.489788,-0.590293 -2.108191,-0.913549 -0.576239,-1.517897c-3.654197,0.871385 -2.951467,0.252983 -6.071589,1.166532l0.168655,-0.54813c-1.096259,-0.014055 -2.881194,0.688676 -3.527706,0.196764c-2.431446,-1.110314 -12.171287,-0.54813 -18.467749,-1.630334c1.194641,1.658443 -2.923358,-0.773003 -3.20445,0.491911c-0.36542,-0.393529 -1.236805,-0.618403 -0.210819,-0.941658c-3.232559,0.33731 -4.834784,-0.688676 -7.08352,0.351365c-0.36542,-0.393529 0.70273,-0.562184 0.379474,-0.787058c-0.267037,0.084328 -1.025986,0.323256 -1.363297,0.084328c-0.323256,-0.238928 0.477857,-0.323256 0.983822,-0.477857c-3.302832,0.014055 -3.640142,1.208696 -3.893125,2.31901c-1.658443,-0.54813 -2.501719,-0.491911 -3.710415,0.224874c-0.576239,-0.36542 -1.546006,-0.758949 0.505966,-0.871385c-1.152478,-0.056218 -7.041357,-0.54813 -7.153793,0.351365c-0.36542,-0.224874 -1.616279,-0.070273 -1.911426,0.042164c-2.586047,-0.056218 -2.810921,-0.140546 -5.354804,-0.056218l0.70273,0.140546c-0.997877,1.082204 -2.108191,0.238928 -4.146108,0.36542l0.056218,-0.112437c-4.694238,-0.787058 -2.023863,0.379474 -6.661882,-0.463802l0.252983,0.674621c-0.421638,1.461679 -4.103944,-0.801112 -6.788374,-0.210819l0.969768,0.36542c-1.461679,0.52002 -4.132054,-1.911426 -5.607787,-2.080081c-0.323256,-0.126491 0.505966,-0.210819 0.955713,-0.309201c-3.879071,-0.801112 -0.491911,0.88544 -3.35905,1.138423c-0.534075,-0.463802 0.660566,-1.222751 -1.278969,-1.278969c-0.969768,-0.393529 -5.579678,1.686552 -8.235998,0.843276c0.590293,0.351365 1.180587,0.70273 -0.154601,1.011931c-2.037918,0.18271 -5.565623,-1.236805 -7.378667,-0.028109c-0.267037,-0.098382 -0.36542,-0.18271 -0.379474,-0.281092c-1.560061,0.351365 -5.073712,0.618403 -5.987261,1.307078c-1.531952,-2.262791 -9.669567,1.531952 -9.725786,-0.618403l-4.806675,0.309201l0.112437,-0.224874c-3.077958,-0.014055 -4.146108,0.534075 -5.200203,1.124368c-0.716785,-0.112437 -0.210819,-0.33731 -0.154601,-0.449747c-4.511528,-0.18271 -4.947221,-0.070273 -8.657636,1.194641l-0.435693,-0.674621c-0.997877,0.477857 -6.549445,-0.773003 -10.906373,0.33731c0.042164,-0.084328 0.126491,-0.224874 0.463802,-0.351365c-4.891002,1.152478 -11.988577,-1.124368 -13.618911,1.531952l-3.218504,0.843276c4.230436,-0.084328 -0.54813,1.138423 1.222751,1.447624c-1.644389,0.252983 -4.342873,-0.435693 -2.31901,-0.730839l0.323256,0.098382c0.646512,-1.377351 -5.270476,-0.042164 -5.228313,-0.955713c-4.146108,0.36542 -8.264107,0.534075 -12.311833,0.674621c-4.047726,0.168655 -8.025179,0.36542 -11.918304,0.688676l0.997877,0.941658l-2.712539,0.196764c-0.730839,-0.168655 -1.025986,-0.716785 0.899495,-0.843276c-1.06815,-0.477857 -3.190395,0.787058 -3.232559,1.011931c-3.822852,-0.056218 1.363297,-1.335187 0.196764,-1.25086l-1.574116,0.224874l0.36542,0.084328c-1.236805,0.54813 -1.307078,0.983822 -3.640142,1.166532c-1.489788,-0.042164 -0.815167,-0.54813 -1.40546,-0.534075c0,-0.070273 -0.196764,-0.084328 -0.88544,0.070273l-3.415269,0.281092l1.447624,0.660566c-1.475733,0.562184 -3.20445,0.295147 -1.546006,1.040041c-2.459556,-1.152478 -12.775635,0.815167 -14.237314,0.590293c-2.051972,0.843276 -4.132054,1.082204 -6.732155,1.321133c0.660566,0.084328 1.152478,0.955713 -1.082204,1.110314c0.590293,-1.967645 -4.174217,-0.323256 -6.141862,-1.447624c1.714662,0.674621 -6.310517,1.011931 -3.626088,1.967645c-1.869262,0.098382 -0.196764,-0.688676 -1.672498,-0.941658c-4.328818,1.307078 -9.810113,0.801112 -15.249245,1.784935c-0.056218,0.252983 0.913549,0.505966 -0.210819,1.025986l-3.049849,-0.815167c-1.06815,0.281092 -0.787058,1.560061 -2.881194,0.983822c0.309201,0.168655 0.773003,0.421638 0.056218,0.604348c-10.878263,0.309201 -21.658144,4.216381 -32.845609,3.766634c1.546006,0.224874 0.576239,0.435693 -0.54813,0.646512c0.744894,-0.014055 0.084328,0.604348 0.281092,0.913549l-4.680183,-0.154601c-0.674621,1.054095 -4.848838,0.88544 -5.172094,1.841153l1.40546,-0.393529c-1.728716,1.349242 3.063904,1.855208 3.007685,3.218504c1.939535,-1.531952 5.902934,0.801112 9.121438,-1.475733c0.815167,0.140546 -0.590293,0.534075 -0.126491,0.773003c0.787058,-0.716785 1.841153,-1.025986 3.865016,-1.06815l-0.196764,0.18271c5.551569,-1.011931 8.039233,-0.815167 14.34975,-1.419515l-0.562184,-0.590293c1.363297,-0.126491 1.672498,0.042164 2.333064,0.112437c1.391406,-1.236805 -3.794743,0.534075 -2.543883,-0.787058c1.981699,1.025986 9.514967,-1.363297 10.934482,-0.028109c2.080081,-0.295147 -0.716785,-0.674621 1.363297,-0.969768l0.604348,0.33731l0.449747,-0.604348c1.377351,-0.112437 2.1363,0.309201 2.234682,0.646512c-0.33731,0 -0.927604,0.238928 -1.278969,0.309201c1.827098,0.238928 4.947221,-0.88544 5.579678,-0.815167l-2.023863,0.028109c5.607787,-1.180587 12.60698,-1.517897 17.975838,-3.092013l-0.449747,-0.252983c4.117999,-1.138423 3.401214,-0.070273 7.96896,-0.899495l-0.154601,0.098382c0.88544,-0.421638 2.094136,-0.730839 3.35905,-0.843276c-1.124368,0.505966 2.276846,0.449747 0.801112,1.040041c4.469364,-1.166532 2.192518,-0.758949 5.059657,-2.276846l0.758949,0.435693c0.969768,-0.590293 1.025986,-0.857331 3.316886,-1.25086c-1.841153,0.646512 1.560061,0.632457 -0.491911,1.447624c4.947221,0.618403 7.041357,-1.911426 9.444694,-0.491911c2.066027,-1.672498 -4.258545,-0.351365 -3.049849,-0.787058c-1.096259,-0.351365 1.714662,-1.264914 3.246613,-1.278969c1.546006,-0.126491 2.810921,1.560061 6.689991,1.110314c-0.393529,0.028109 -0.407584,0.140546 -0.787058,0.18271c1.489788,0.210819 2.796866,-0.801112 4.638019,-0.36542c0.913549,-0.955713 2.31901,-0.168655 2.501719,-1.307078l-3.54176,0.590293c1.995754,-0.477857 3.766634,-1.95359 7.153793,-1.630334c-0.238928,0.252983 -1.194641,0.632457 -1.869262,0.857331c0.997877,0.238928 1.855208,-0.393529 2.895248,-0.154601c-0.18271,1.138423 -4.314763,0.646512 -6.394845,1.700607c1.082204,0.36542 4.019617,-1.180587 3.049849,0.112437c1.419515,-1.672498 3.836907,-0.168655 6.366736,-1.574116l-0.112437,0.674621c0.407584,-0.140546 1.236805,-0.534075 2.009808,-0.590293l-1.307078,0.997877c2.066027,-0.927604 4.160163,0.252983 6.169971,-0.33731c-4.2726,0.421638 -1.025986,-0.716785 -2.881194,-1.025986c5.200203,-1.377351 3.190395,1.475733 9.065219,0.660566c-0.787058,0.154601 -3.035794,-0.154601 -1.813044,-0.562184c1.138423,0.042164 2.642266,0.18271 3.35905,0.477857c3.90718,-0.449747 -0.660566,-0.632457 0.969768,-1.180587c1.40546,0.70273 1.897372,-0.491911 3.597979,-0.88544l0.070273,0.674621c4.497473,0.070273 1.06815,-1.503843 5.12993,-1.307078l-1.630334,1.06815l2.080081,-0.407584l-0.379474,0.801112c2.234682,-0.758949 2.965521,-0.632457 5.214258,-0.576239c-0.54813,-0.435693 0.210819,-1.25086 2.178464,-1.40546c1.377351,0.309201 -0.716785,0.688676 2.094136,0.407584c-0.604348,0.463802 -1.264914,1.040041 -2.529829,0.505966c-0.112437,0.224874 -0.590293,0.463802 -0.70273,0.688676c1.489788,0.36542 3.654197,-0.140546 4.666128,-0.210819c-0.393529,0 -0.857331,0 -1.110314,-0.084328l4.005562,-1.208696c0.660566,0.210819 0.168655,0.449747 -0.323256,0.688676c0.815167,-0.126491 1.363297,-0.477857 2.571992,-0.618403c-0.281092,0.576239 -0.168655,1.138423 -1.869262,1.503843l3.836907,-0.871385c0.267037,0.224874 2.023863,0.52002 1.531952,0.758949c2.164409,0.196764 5.200203,-1.363297 8.081397,-1.082204c0.140546,-0.112437 0.435693,-0.238928 1.040041,-0.351365c2.684429,-0.014055 5.087767,0.52002 8.221943,-0.407584l1.841153,0.88544c2.47361,-0.351365 -2.501719,-1.124368 1.630334,-1.686552c2.923358,-0.435693 1.138423,0.801112 2.178464,1.025986c1.43357,-0.562184 3.921234,-1.672498 6.647828,-0.983822c-0.997877,0.18271 -1.700607,0.056218 -2.529829,0.168655zm30.667146,-1.43357c-0.590293,0.154601 -1.77088,0.632457 -2.206573,0.238928c0.660566,-0.787058 1.194641,-0.435693 2.206573,-0.238928zm46.689394,-1.813044c-0.449747,0.210819 -1.124368,0.098382 -1.897372,-0.168655c0.54813,-0.056218 1.194641,-0.014055 1.897372,0.168655zm130.370505,2.768757c-0.028109,0.014055 -0.042164,0.014055 -0.070273,0.028109c-1.307078,-0.393529 -0.843276,-0.238928 0.070273,-0.028109zm2.712539,0.576239c0.281092,-0.070273 0.281092,-0.154601 0.168655,-0.267037c-0.210819,0.154601 -0.829222,0.098382 -1.531952,-0.014055c0.18271,0.196764 0.534075,0.351365 1.363297,0.281092zm-296.58025,-0.140546l0.54813,0.112437c-1.180587,0.323256 -0.871385,0.112437 -0.54813,-0.112437z" class="st1"/>
        <path stroke="null" id="svg_123" d="m537.940494,154.467366c-0.168655,-0.112437 -0.210819,-0.238928 -0.252983,-0.36542c-0.224874,0.112437 -0.238928,0.238928 0.252983,0.36542z" class="st1"/>
        <path stroke="null" id="svg_124" d="m446.852607,158.163727l-0.098382,0c-0.042164,0.042164 -0.070273,0.084328 -0.084328,0.126491l0.18271,-0.126491z" class="st1"/>
        <path stroke="null" id="svg_125" d="m633.216653,158.852403c-0.562184,-0.140546 -0.871385,-0.295147 -1.06815,-0.435693c-0.028109,0.168655 0.210819,0.323256 1.06815,0.435693z" class="st1"/>
        <path stroke="null" id="svg_126" d="m691.051348,157.432888l-1.784935,-0.028109c0.857331,0.056218 1.138423,0.238928 1.560061,0.407584c-0.014055,-0.154601 -0.33731,-0.421638 0.224874,-0.379474z" class="st1"/>
        <path stroke="null" id="svg_127" d="m705.808682,163.462313c0.267037,-0.056218 0.54813,0.056218 0.815167,0.014055l-0.028109,-0.323256c-1.110314,-0.112437 -1.911426,0.028109 -0.787058,0.309201z" class="st1"/>
        <path stroke="null" id="svg_128" d="m692.414645,159.878389c0.070273,0.576239 1.194641,0.52002 2.445501,0.562184c-0.070273,0 -0.140546,-0.014055 -0.210819,-0.028109c0.449747,-0.744894 -0.899495,-0.646512 -2.234682,-0.534075z" class="st1"/>
        <path stroke="null" id="svg_129" d="m695.141238,160.454627c0.379474,0.014055 0.773003,0.056218 1.138423,0.126491c0.18271,-0.309201 -0.449747,-0.126491 -1.138423,-0.126491z" class="st1"/>
        <path stroke="null" id="svg_130" d="m679.877938,156.969086c0.576239,0.210819 0.449747,-0.688676 0.758949,-0.421638c0.716785,-0.646512 -4.005562,0.449747 -0.758949,0.421638z" class="st1"/>
        <polygon stroke="null" id="svg_131" points="693.1876831054688,161.86007690429688 692.8363037109375,161.10113525390625 692.0773315429688,161.59304809570312 " class="st1"/>
        <path stroke="null" id="svg_132" d="m683.532135,160.229754l1.95359,0.407584c-0.014055,-0.126491 0.238928,-0.168655 0.54813,-0.18271c-1.208696,-0.140546 -2.529829,-0.435693 -2.501719,-0.224874z" class="st1"/>
        <path stroke="null" id="svg_133" d="m686.033855,160.468682c0.632457,0.084328 1.236805,0.140546 1.602225,0.056218c-0.351365,-0.028109 -1.082204,-0.084328 -1.602225,-0.056218z" class="st1"/>
        <polygon stroke="null" id="svg_134" points="690.4750366210938,161.74765014648438 689.9129028320312,161.53683471679688 688.5355834960938,161.32601928710938 " class="st1"/>
        <path stroke="null" id="svg_135" d="m662.365902,157.910744l-2.164409,0c-0.238928,0.224874 0.33731,0.421638 1.138423,0.407584c0.534075,-0.126491 1.335187,-0.154601 1.025986,-0.407584z" class="st1"/>
        <path stroke="null" id="svg_136" d="m668.676419,160.468682c-0.562184,-0.210819 -0.590293,-0.36542 -0.899495,-0.632457l-0.154601,0.857331l1.054095,-0.224874z" class="st1"/>
        <path stroke="null" id="svg_137" d="m662.394011,160.047044c-0.238928,0.224874 -3.190395,0.393529 -0.449747,0.604348c0.238928,-0.224874 2.403337,-0.210819 0.449747,-0.604348z" class="st1"/>
        <polygon stroke="null" id="svg_138" points="630.068359375,156.21014404296875 630.6165771484375,156.23825073242188 630.6446533203125,154.80470275878906 " class="st1"/>
        <path stroke="null" id="svg_139" d="m601.256484,157.826416c2.529829,0.477857 0.646512,-0.857331 2.937412,-0.309201c0.618403,-0.309201 -1.869262,-0.449747 -1.236805,-0.70273c-1.560061,0.281092 -2.347119,0.042164 -1.700607,1.011931z" class="st1"/>
        <path stroke="null" id="svg_140" d="m602.957091,156.814485c0.252983,-0.042164 0.52002,-0.098382 0.801112,-0.18271c-0.449747,0.070273 -0.660566,0.126491 -0.801112,0.18271z" class="st1"/>
        <polygon stroke="null" id="svg_141" points="279.869873046875,169.7306671142578 278.19732666015625,169.71661376953125 279.32171630859375,170.01174926757812 " class="st1"/>
        <path stroke="null" id="svg_142" d="m276.932447,171.304781l-0.534075,-0.829222l-0.829222,0.983822c0.351365,-0.112437 1.040041,-0.309201 1.363297,-0.154601z" class="st1"/>
        <path stroke="null" id="svg_143" d="m501.159596,157.208014l0.126491,-0.224874c-0.252983,-0.238928 -0.646512,-0.252983 -1.419515,-0.267037l1.293024,0.491911z" class="st1"/>
        <polygon stroke="null" id="svg_144" points="478.8971252441406,157.06747436523438 479.2765808105469,157.08152770996094 478.5317077636719,156.2803955078125 " class="st1"/>
        <path stroke="null" id="svg_145" d="m460.274754,158.866457c0.758949,0 1.644389,-0.210819 2.417392,-0.210819c-1.658443,0.224874 -2.670375,-0.801112 -2.417392,0.210819z" class="st1"/>
       </g>
      </g>
     </g>
    </g>
   </g>
   <g stroke="null" id="svg_146">
    <polygon stroke="null" id="svg_147" points="216.3852081298828,27.722949981689453 224.115234375,34.553489685058594 224.2417755126953,34.44104766845703 216.49765014648438,27.582399368286133 " class="st4"/>
    <polygon stroke="null" id="svg_148" points="208.21946716308594,37.65955352783203 208.21946716308594,37.71577453613281 214.2910919189453,43.09868240356445 215.51380920410156,42.67705154418945 224.115234375,34.553489685058594 216.3852081298828,27.722949981689453 " class="st5"/>
    <polygon stroke="null" id="svg_149" points="221.47300720214844,21.510814666748047 216.49765014648438,27.582399368286133 224.2417755126953,34.44104766845703 229.9619598388672,29.030027389526367 " class="st6"/>
    <polygon stroke="null" id="svg_150" points="229.9619598388672,29.030027389526367 235.6962432861328,23.619001388549805 226.4623565673828,15.453282356262207 221.47300720214844,21.510814666748047 " class="st1"/>
   </g>
  </g>
 </g>
</svg>