<svg width="792" height="218.47" xmlns="http://www.w3.org/2000/svg">
 <style type="text/css">.st0{fill:#FFFFFF;}
	.st1{fill:#E30613;}
	.st2{fill:none;}
	.st3{fill:#878787;}
	.st4{fill:#666666;}
	.st5{fill:#FFDC00;}
	.st6{fill:#005CA9;}
	.st7{fill:#525251;}</style>

 <g>
  <title>background</title>
  <rect fill="none" id="canvas_background" height="402" width="582" y="-1" x="-1"/>
 </g>
 <g>
  <title>Layer 1</title>
  <g stroke="null" id="svg_151">
   <path stroke="null" id="svg_1" d="m225.705485,162.332652l-146.128316,50.064439c-2.611199,0.931563 -5.264741,0.169375 -5.928126,-1.69375l-2.73823,-7.69245c-0.663386,-1.863125 0.903334,-4.135574 3.514532,-5.067137l144.208732,-55.442096c2.611199,-0.931563 5.264741,-0.169375 5.928126,1.69375l4.671928,13.055993c0.649271,1.87724 -0.917448,4.149688 -3.528647,5.081251z" class="st0"/>
   <path stroke="null" id="svg_2" d="m56.302216,164.492183c-1.820782,-1.115052 -3.472188,-2.131303 -5.222397,-3.189897c0.762188,-0.663386 1.580834,-1.369115 2.498282,-2.159532c1.736094,0.719844 3.401615,1.397344 5.081251,2.103073c5.222397,2.173646 10.43068,4.361407 15.653077,6.535054c0.494011,0.197604 1.058594,0.381094 1.623177,0.479896c28.059798,5.335314 56.119597,10.670628 84.179395,15.991827c3.006407,0.564583 5.998699,1.157396 9.033335,1.69375c1.750209,0.310521 2.851147,0.959792 3.458074,1.933698c1.115052,1.806667 1.01625,3.669793 0.508125,5.532918c-1.002136,3.613334 -3.175782,6.958491 -7.452502,9.72495c-0.691615,0.451667 -1.552605,0.832761 -2.413594,1.171511c-1.425573,0.578698 -2.978178,0.649271 -4.643699,0.324635c-9.470888,-1.820782 -18.941775,-3.613334 -28.426778,-5.405887c-0.818646,-0.15526 -1.707865,-0.239948 -2.568855,-0.239948c-9.245054,0.028229 -18.490109,0.084688 -27.735163,0.127031c-0.479896,0 -0.959792,0 -1.467917,0c0,-0.86099 -0.042344,-1.69375 0.042344,-2.526511c0.014115,-0.141146 0.564583,-0.352865 0.917448,-0.381094c2.724115,-0.282292 5.462345,-0.52224 8.200575,-0.776302c0.423438,-0.042344 0.846875,-0.098802 1.665521,-0.197604c-3.41573,-0.649271 -6.464481,-1.227969 -9.513231,-1.806667c-30.769799,-5.843439 -61.539598,-11.700992 -92.337626,-17.530317c-2.385365,-0.451667 -3.655678,-1.312657 -4.220261,-2.653542c-0.973906,-2.357136 -0.451667,-4.671928 0.564583,-6.972606c1.213854,-2.724115 3.105209,-5.264741 6.337449,-7.410158c0.776302,-0.508125 1.707865,-0.959792 2.653542,-1.369115c1.482032,-0.635156 3.07698,-0.719844 4.869532,-0.381094c12.561982,2.413594 25.138079,4.784845 37.700061,7.17021c0.239948,0.084688 0.536354,0.127031 1.01625,0.211719z" class="st0"/>
   <g stroke="null" id="svg_3">
    <path stroke="null" id="svg_4" d="m338.085824,85.238779c0,4.065001 -1.53849,7.974741 -4.629584,11.715107c-3.331042,4.065001 -7.283127,6.097501 -11.842138,6.097501l-7.805366,0l0,38.92803l-9.880211,0l0,-87.609239l17.699692,0c4.643699,0 8.624012,1.990157 11.955055,5.984585c3.006407,3.585105 4.516668,7.438387 4.516668,11.588076l0,13.295941l-0.014115,0zm-9.894325,-1.580834l0,-10.007242c0,-2.681771 -0.748073,-4.925991 -2.258334,-6.704429c-1.510261,-1.792553 -3.641563,-2.681771 -6.408022,-2.681771l-5.730522,0l0,28.920788l5.730522,0c2.272448,0 4.290834,-0.959792 6.041043,-2.865261c1.750209,-1.919584 2.625313,-4.135574 2.625313,-6.662085z" class="st0"/>
    <path stroke="null" id="svg_5" d="m373.471092,141.979418l-6.591512,0l-2.201876,-3.782709c-2.611199,2.526511 -5.363543,3.782709 -8.299377,3.782709c-4.714272,0 -8.751044,-1.665521 -12.082086,-4.996564c-3.331042,-3.331042 -4.996564,-7.367814 -4.996564,-12.082086c0,-5.363543 2.074844,-10.049586 6.224533,-14.029899c1.058594,-0.973906 4.95422,-3.740365 11.715107,-8.299377c4.234376,-2.851147 6.351564,-5.532918 6.351564,-8.059429l0,-3.782709c0,-1.947813 -0.705729,-3.641563 -2.131303,-5.067137c-1.425573,-1.425573 -3.105209,-2.131303 -5.067137,-2.131303c-3.500417,0 -5.772866,1.623177 -6.83146,4.883647l-8.299377,-4.27672c0.733959,-3.331042 2.484167,-5.914012 5.250626,-7.748908c2.766459,-1.834896 6.055158,-2.752344 9.880211,-2.752344c4.714272,0 8.736929,1.665521 12.082086,4.996564c3.331042,3.331042 4.996564,7.367814 4.996564,12.082086l0,51.264179zm-9.894325,-17.07865l0,-17.699692c0,1.792553 -1.19974,3.542761 -3.59922,5.250626c-2.39948,1.707865 -4.784845,3.373386 -7.141981,4.996564c-2.441823,2.201876 -3.655678,4.671928 -3.655678,7.438387c0,2.0325 0.691615,3.740365 2.074844,5.123595c1.383229,1.383229 3.091094,2.074844 5.123595,2.074844c1.947813,0 3.641563,-0.691615 5.067137,-2.074844c1.425573,-1.369115 2.131303,-3.07698 2.131303,-5.10948z" class="st0"/>
    <path stroke="null" id="svg_6" d="m415.927769,124.900768c0,4.714272 -1.665521,8.751044 -4.996564,12.082086c-3.331042,3.331042 -7.367814,4.996564 -12.082086,4.996564c-4.714272,0 -8.751044,-1.665521 -12.082086,-4.996564c-3.331042,-3.331042 -4.996564,-7.367814 -4.996564,-12.082086l0,-4.756616l9.880211,2.201876l0,2.568855c0,2.0325 0.691615,3.740365 2.074844,5.123595c1.383229,1.383229 3.091094,2.074844 5.123595,2.074844c1.947813,0 3.641563,-0.691615 5.067137,-2.074844c1.425573,-1.383229 2.131303,-3.091094 2.131303,-5.123595c0,-3.909741 -2.117188,-7.523075 -6.351564,-10.854117c-3.909741,-3.006407 -7.805366,-5.984585 -11.715107,-8.906304c-4.149688,-4.149688 -6.224533,-9.23094 -6.224533,-15.257868c0,-4.714272 1.665521,-8.751044 4.996564,-12.082086c3.331042,-3.331042 7.367814,-4.996564 12.082086,-4.996564c4.714272,0 8.736929,1.665521 12.082086,4.996564c3.331042,3.331042 4.996564,7.367814 4.996564,12.082086l0,4.756616l-9.880211,-2.201876l0,-2.568855c0,-2.0325 -0.705729,-3.740365 -2.131303,-5.123595c-1.425573,-1.383229 -3.105209,-2.074844 -5.067137,-2.074844c-2.0325,0 -3.740365,0.691615 -5.123595,2.074844c-1.383229,1.383229 -2.074844,3.091094 -2.074844,5.123595c0,4.065001 2.074844,7.84771 6.224533,11.348128c3.909741,3.091094 7.805366,6.139845 11.715107,9.146252c4.234376,4.149688 6.351564,8.990992 6.351564,14.52391z" class="st0"/>
    <path stroke="null" id="svg_7" d="m458.384446,124.900768c0,4.714272 -1.665521,8.751044 -4.996564,12.082086c-3.331042,3.331042 -7.367814,4.996564 -12.082086,4.996564c-4.714272,0 -8.751044,-1.665521 -12.082086,-4.996564c-3.331042,-3.331042 -4.996564,-7.367814 -4.996564,-12.082086l0,-34.171414c0,-4.714272 1.665521,-8.736929 4.996564,-12.082086c3.331042,-3.331042 7.367814,-4.996564 12.082086,-4.996564c4.714272,0 8.736929,1.665521 12.082086,4.996564c3.331042,3.331042 4.996564,7.367814 4.996564,12.082086c0,5.617605 -0.748073,9.866096 -2.258334,12.745472c-1.510261,2.89349 -4.163803,5.63172 -7.988856,8.228804c-4.714272,3.006407 -9.400315,6.026929 -14.029899,9.033335l0,4.149688c0,2.0325 0.691615,3.740365 2.074844,5.123595c1.383229,1.383229 3.091094,2.074844 5.123595,2.074844c1.947813,0 3.641563,-0.691615 5.067137,-2.074844c1.425573,-1.383229 2.131303,-3.091094 2.131303,-5.123595l0,-1.100938l9.880211,-3.288699l0,4.403751zm-9.880211,-34.171414c0,-1.947813 -0.705729,-3.641563 -2.131303,-5.067137c-1.425573,-1.425573 -3.105209,-2.131303 -5.067137,-2.131303c-2.0325,0 -3.740365,0.719844 -5.123595,2.131303c-1.383229,1.425573 -2.074844,3.119324 -2.074844,5.067137l0,18.673598c5.857553,-3.331042 9.597919,-5.942241 11.221096,-7.805366c2.117188,-2.441823 3.175782,-6.055158 3.175782,-10.868232z" class="st0"/>
    <path stroke="null" id="svg_8" d="m500.855237,124.900768c0,4.714272 -1.665521,8.751044 -4.996564,12.082086c-3.331042,3.331042 -7.367814,4.996564 -12.082086,4.996564c-4.714272,0 -8.751044,-1.665521 -12.082086,-4.996564c-3.331042,-3.331042 -4.996564,-7.367814 -4.996564,-12.082086l0,-34.171414c0,-4.714272 1.665521,-8.736929 4.996564,-12.082086c3.331042,-3.331042 7.367814,-4.996564 12.082086,-4.996564c4.714272,0 8.736929,1.665521 12.082086,4.996564c3.331042,3.331042 4.996564,7.367814 4.996564,12.082086l0,34.171414zm-9.880211,0l0,-34.171414c0,-1.947813 -0.705729,-3.641563 -2.131303,-5.067137c-1.425573,-1.425573 -3.105209,-2.131303 -5.067137,-2.131303c-2.0325,0 -3.740365,0.719844 -5.123595,2.131303c-1.383229,1.425573 -2.074844,3.119324 -2.074844,5.067137l0,34.171414c0,2.0325 0.691615,3.740365 2.074844,5.123595c1.383229,1.383229 3.091094,2.074844 5.123595,2.074844c1.947813,0 3.641563,-0.691615 5.067137,-2.074844c1.411459,-1.383229 2.131303,-3.091094 2.131303,-5.123595z" class="st0"/>
   </g>
   <g stroke="null" id="svg_9">
    <path stroke="null" id="svg_10" d="m566.798586,61.879138c-0.409323,0.6775 -0.6775,1.369115 -0.6775,2.046615c0,1.496146 -0.550469,2.992292 -1.227969,4.361407c-1.086823,2.724115 -2.724115,5.730522 -3.401615,8.581669c-0.550469,2.046615 -1.496146,3.810938 -1.637292,5.998699c-0.550469,4.502553 -2.046615,8.722815 -3.006407,13.084222c-0.6775,3.401615 -1.496146,6.676199 -1.637292,10.077815c-0.141146,2.314792 -0.6775,4.629584 -0.268177,6.944377c0,0.409323 0,0.6775 -0.141146,1.086823c-0.818646,3.274584 -0.268177,6.535054 -0.268177,9.809638c0.268177,4.629584 0.550469,9.132138 0.818646,13.761722c0,1.369115 0.6775,2.865261 0.550469,4.361407c0,0.818646 0.141146,1.227969 0.6775,2.046615c0.268177,0.409323 -0.409323,1.086823 -0.268177,1.496146c0.550469,0.959792 0.141146,1.369115 -0.6775,1.637292c-1.227969,0.141146 -2.173646,-0.141146 -3.133438,-0.959792c-1.905469,-1.637292 -3.274584,-3.683907 -3.542761,-6.266876c-0.409323,-3.542761 -0.959792,-6.944377 -1.227969,-10.487138c-0.409323,-5.038907 -0.550469,-9.950784 -0.818646,-14.989691c0,-0.959792 0,-1.905469 0,-3.006407c0,-0.141146 -0.141146,-0.268177 -0.268177,-0.409323s-0.268177,0.141146 -0.409323,0.141146c-0.141146,0.141146 -0.141146,0.268177 -0.268177,0.268177c-0.818646,1.637292 -1.637292,3.274584 -2.455938,4.911876c-1.227969,2.314792 -2.455938,4.629584 -3.683907,6.944377c-0.409323,0.550469 -0.6775,1.086823 -0.959792,1.637292c-0.6775,1.227969 -1.369115,2.173646 -2.455938,2.992292c-1.086823,0.6775 -1.905469,1.637292 -2.724115,2.455938c-1.496146,1.637292 -2.865261,1.905469 -4.502553,0.550469c-5.589376,-4.629584 -7.494846,-13.902868 -5.589376,-20.98839c1.637292,-5.998699 4.77073,-11.715107 8.313492,-16.768129c0.818646,-1.086823 2.046615,-1.764323 2.865261,-2.865261c0,-0.141146 0.268177,-0.141146 0.409323,-0.141146c1.778438,-0.268177 3.683907,-0.550469 5.44823,-0.550469c1.086823,0 2.173646,0.550469 2.865261,1.496146c0.141146,0.141146 0.268177,0.268177 0.409323,0.409323c1.637292,0.818646 1.778438,2.314792 1.778438,4.09323c0.141146,1.086823 0.409323,2.046615 0.6775,3.133438c0.141146,0.141146 0.409323,0.268177 0.550469,0.409323c0.141146,-0.141146 0.268177,-0.268177 0.268177,-0.550469c0.268177,-0.550469 0.409323,-1.227969 0.6775,-1.764323c1.496146,-3.133438 1.764323,-6.676199 2.724115,-9.950784c1.086823,-3.952084 2.314792,-7.763023 3.401615,-11.715107c0.6775,-2.046615 1.637292,-4.77073 2.314792,-6.944377c0.550469,-1.369115 1.086823,-2.582969 1.637292,-3.952084c1.086823,-2.724115 3.133438,-4.629584 4.09323,-7.3537c0.550469,-1.086823 1.355,-1.637292 2.314792,-1.764323c0.550469,-0.141146 1.227969,-0.141146 1.355,0.818646c0,0.6775 0.550469,0.818646 1.086823,0.818646c0.550469,0.141146 0.818646,0.409323 0.6775,1.086823c0.014115,1.369115 0.014115,2.73823 -0.663386,3.966199zm-24.940475,32.703497c-0.409323,-2.314792 -2.865261,-2.992292 -4.361407,-1.369115c-0.818646,0.959792 -1.637292,1.905469 -2.314792,2.992292c-0.550469,0.818646 -1.355,1.637292 -1.496146,2.582969c-0.268177,2.314792 -0.550469,4.09323 -1.227969,6.676199c-0.268177,1.227969 -0.6775,1.764323 -0.959792,2.992292c-0.409323,1.905469 -0.550469,2.992292 -0.6775,5.038907c-0.141146,3.274584 0.268177,5.716408 0.409323,8.313492c0,0.550469 1.227969,0 1.369115,-0.141146c0.268177,-0.268177 0.409323,-0.409323 0.550469,-0.6775c1.369115,-1.905469 2.724115,-3.683907 3.952084,-5.589376c1.355,-1.778438 2.992292,-2.992292 3.810938,-5.44823c0.141146,-0.550469 0.141146,-0.818646 0.268177,-1.227969c0.409323,-1.086823 1.086823,-1.496146 1.496146,-2.724115c0.550469,-1.637292 0.268177,-2.724115 0.141146,-4.220261c-0.141146,-2.427709 -0.550469,-4.883647 -0.959792,-7.198439z" class="st1"/>
    <path stroke="null" id="svg_11" d="m594.731353,106.438889c-1.227969,2.992292 -5.44823,7.226668 -7.226668,9.809638c-1.905469,2.865261 -7.494846,9.400315 -9.682606,11.997399c-1.637292,1.905469 -3.952084,2.865261 -6.408022,2.582969c-1.778438,-0.141146 -3.683907,-0.409323 -5.44823,-1.637292c-2.582969,-2.046615 -4.502553,-4.502553 -4.629584,-7.904169c-0.141146,-1.086823 -0.268177,-2.314792 -0.268177,-3.401615c0.141146,-3.542761 0.6775,-7.085522 1.764323,-10.501252c0.959792,-2.724115 1.778438,-5.44823 2.865261,-8.045314c1.764323,-4.09323 3.952084,-7.904169 7.085522,-11.178753c0.818646,-0.818646 1.637292,-1.369115 2.865261,-1.369115c0.959792,0 1.764323,0 2.582969,-0.141146c2.046615,-0.268177 3.542761,0.818646 4.77073,2.455938c0.6775,0.959792 1.369115,1.764323 1.905469,2.865261c0.268177,0.409323 0.409323,1.086823 0.268177,1.496146c-0.6775,2.582969 -1.227969,5.180053 -2.455938,7.494846s-2.865261,4.09323 -4.629584,5.857553c-1.905469,1.637292 -3.542761,3.542761 -5.857553,4.911876c-0.550469,0.268177 -0.959792,1.086823 -1.496146,1.637292c-0.268177,0.141146 -0.409323,0.550469 -0.6775,0.550469c-1.227969,0.268177 -1.496146,1.369115 -1.637292,2.455938c-0.268177,2.724115 -0.6775,5.321199 0.268177,8.172346c0.409323,1.086823 0.818646,1.496146 1.905469,0.959792c1.637292,-0.6775 3.133438,-1.496146 4.77073,-2.314792l0,0.141146l0,-0.141146c2.455938,-2.046615 8.722815,-8.045314 10.896461,-10.360107c1.227969,-1.369115 4.629584,-4.09323 5.589376,-5.44823c0.550469,-0.818646 1.369115,-1.637292 2.314792,-1.764323c0.268177,0 0.550469,0.141146 0.6775,0.409323c0.028229,0.141146 0.028229,0.282292 -0.112917,0.409323zm-13.902868,-15.54016c-0.141146,-0.409323 -0.550469,-0.550469 -0.818646,-0.959792c-0.6775,-0.959792 -1.227969,-1.086823 -2.046615,-0.268177c-0.409323,0.550469 -0.6775,1.227969 -1.086823,1.778438c-0.268177,0.550469 -0.409323,1.227969 -0.6775,1.764323c-0.6775,1.369115 -1.227969,2.724115 -1.637292,4.220261c-0.409323,1.778438 -1.227969,3.401615 -2.455938,4.77073c-0.6775,0.959792 -0.959792,2.046615 -1.227969,2.724115c0,1.369115 0.268177,1.637292 1.227969,1.086823c2.314792,-1.355 4.220261,-3.274584 5.857553,-5.44823c1.637292,-2.455938 2.314792,-5.321199 3.274584,-7.904169c0.141146,-0.536354 -0.127031,-1.213854 -0.409323,-1.764323z" class="st1"/>
   </g>
   <g stroke="null" id="svg_12">
    <path stroke="null" id="svg_13" d="m637.484436,124.900768c0,4.714272 -1.665521,8.751044 -4.996564,12.082086c-3.331042,3.331042 -7.367814,4.996564 -12.082086,4.996564c-4.714272,0 -8.751044,-1.665521 -12.082086,-4.996564c-3.331042,-3.331042 -4.996564,-7.367814 -4.996564,-12.082086l0,-34.171414c0,-4.714272 1.665521,-8.736929 4.996564,-12.082086c3.331042,-3.331042 7.367814,-4.996564 12.082086,-4.996564c4.714272,0 8.736929,1.665521 12.082086,4.996564c3.331042,3.331042 4.996564,7.367814 4.996564,12.082086l0,34.171414zm-9.880211,0l0,-34.171414c0,-1.947813 -0.705729,-3.641563 -2.131303,-5.067137c-1.425573,-1.425573 -3.105209,-2.131303 -5.067137,-2.131303c-2.0325,0 -3.740365,0.719844 -5.123595,2.131303c-1.383229,1.425573 -2.074844,3.119324 -2.074844,5.067137l0,34.171414c0,2.0325 0.691615,3.740365 2.074844,5.123595c1.383229,1.383229 3.091094,2.074844 5.123595,2.074844c1.947813,0 3.641563,-0.691615 5.067137,-2.074844c1.425573,-1.383229 2.131303,-3.091094 2.131303,-5.123595z" class="st0"/>
    <path stroke="null" id="svg_14" d="m655.678138,141.979418l-9.880211,0l0,-84.306426l9.880211,-3.288699l0,87.595125z" class="st0"/>
    <path stroke="null" id="svg_15" d="m672.869704,141.979418l-9.880211,0l0,-84.306426l9.880211,-3.288699l0,87.595125z" class="st0"/>
    <path stroke="null" id="svg_16" d="m714.366589,141.979418l-6.591512,0l-2.201876,-3.782709c-2.611199,2.526511 -5.363543,3.782709 -8.299377,3.782709c-4.714272,0 -8.751044,-1.665521 -12.082086,-4.996564c-3.331042,-3.331042 -4.996564,-7.367814 -4.996564,-12.082086c0,-5.363543 2.074844,-10.049586 6.224533,-14.029899c1.058594,-0.973906 4.95422,-3.740365 11.715107,-8.299377c4.234376,-2.851147 6.351564,-5.532918 6.351564,-8.059429l0,-3.782709c0,-1.947813 -0.705729,-3.641563 -2.131303,-5.067137c-1.425573,-1.425573 -3.105209,-2.131303 -5.067137,-2.131303c-3.500417,0 -5.772866,1.623177 -6.83146,4.883647l-8.299377,-4.27672c0.733959,-3.331042 2.484167,-5.914012 5.250626,-7.748908c2.766459,-1.834896 6.055158,-2.752344 9.880211,-2.752344c4.714272,0 8.736929,1.665521 12.082086,4.996564c3.331042,3.331042 4.996564,7.367814 4.996564,12.082086l0,51.264179zm-9.894325,-17.07865l0,-17.699692c0,1.792553 -1.19974,3.542761 -3.59922,5.250626c-2.39948,1.707865 -4.784845,3.373386 -7.141981,4.996564c-2.441823,2.201876 -3.655678,4.671928 -3.655678,7.438387c0,2.0325 0.691615,3.740365 2.074844,5.123595c1.383229,1.383229 3.091094,2.074844 5.123595,2.074844c1.947813,0 3.641563,-0.691615 5.067137,-2.074844c1.425573,-1.369115 2.131303,-3.07698 2.131303,-5.10948z" class="st0"/>
   </g>
   <path stroke="null" id="svg_17" d="m201.188448,74.596381l0.098802,-8.313492l-173.567072,-1.933698l-0.098802,8.313492l-22.442193,-7.184325l-0.18349,16.288233l22.428078,8.214689l-0.52224,47.11449c-0.18349,16.838702 13.310055,30.642768 30.148757,30.826257l112.592058,1.256198c16.838702,0.18349 30.642768,-13.310055 30.826257,-30.148757l0.52224,-47.11449l22.611568,-7.720679l0.18349,-16.288233l-22.597453,6.690314z" class="st1"/>
   <g stroke="null" id="svg_18">
    <g stroke="null" id="svg_19">
     <path stroke="null" id="svg_20" d="m99.464622,28.244078l29.259538,-1.115052c3.387501,-0.127031 6.041043,-2.978178 5.914012,-6.379793l-0.268177,-7.099637c-0.127031,-3.387501 -2.978178,-6.041043 -6.379793,-5.914012l-29.259538,1.115052c-3.387501,0.127031 -6.041043,2.978178 -5.914012,6.379793l0.268177,7.099637c0.141146,3.401615 2.992292,6.041043 6.379793,5.914012z" class="st0"/>
     <path stroke="null" id="svg_21" d="m115.075354,30.770589c-47.425011,1.792553 -85.449708,14.029899 -84.941582,27.311725l171.718061,-6.506824c-0.508125,-13.281826 -39.351468,-22.597453 -86.776479,-20.804901z" class="st0"/>
    </g>
   </g>
   <path stroke="null" id="svg_22" d="m130.954264,182.135417c1.256198,-0.635156 2.55474,-1.242084 3.768595,-1.919584c3.119324,-1.750209 5.44823,-3.895626 6.083387,-6.789116c0.479896,-2.173646 -0.112917,-4.262605 -1.185625,-6.295106c-2.0325,-3.839168 -5.335314,-7.156095 -8.454637,-10.543596c-2.851147,-3.091094 -5.730522,-6.168074 -8.341721,-9.357971c-2.117188,-2.582969 -3.556876,-5.391772 -3.345157,-8.482867c0.070573,-0.931563 0.395208,-1.849011 0.606927,-2.837032c-2.484167,1.510261 -4.573126,3.218126 -6.30922,5.13771c-4.686043,5.165939 -6.393908,10.896461 -6.041043,16.951619c0.18349,3.091094 0.846875,6.168074 1.284427,9.118023c-2.088959,-1.905469 -5.335314,-2.921719 -8.539325,-3.994428c-2.89349,-0.988021 -5.335314,-2.371251 -6.690314,-4.573126c-0.098802,0.028229 -0.18349,0.056458 -0.282292,0.084688c0.084688,1.143282 0.127031,2.300678 0.268177,3.429845c0.592813,4.43198 1.919584,8.736929 4.841303,12.717243c2.949949,4.008543 7.184325,7.029064 13.154795,8.694585c0.127031,0.028229 0.254063,0.070573 0.592813,0.18349c-9.56969,0.451667 -18.193702,-0.931563 -25.490943,-5.222397c-10.515367,-6.182189 -15.850681,-14.199274 -15.243754,-23.980683c0.324635,-5.29297 2.724115,-10.261304 6.055158,-14.961462c2.540626,-3.59922 5.307085,-7.113752 7.833596,-10.712971c2.752344,-3.93797 4.559011,-8.087658 5.038907,-12.505524c0.028229,-0.239948 0.098802,-0.494011 0.18349,-0.917448c1.312657,1.919584 2.230105,3.75448 2.484167,5.674064c0.381094,2.794688 0.52224,5.603491 0.592813,8.412294c0.070573,2.55474 -0.423438,5.123595 0.409323,7.650106c0.409323,1.242084 1.19974,2.328907 2.766459,3.218126c0.028229,-0.18349 0.070573,-0.282292 0.042344,-0.366979c-0.86099,-4.050886 0.762188,-7.777137 3.062865,-11.390471c3.034636,-4.756616 7.085522,-9.075679 10.92469,-13.493545c4.065001,-4.671928 8.101773,-9.372086 10.854117,-14.552139c1.679636,-3.161667 2.808803,-6.422137 2.921719,-9.823752c0,-0.070573 0.056458,-0.141146 0.409323,-0.33875c1.425573,1.69375 2.992292,3.345157 4.248491,5.10948c2.89349,4.036772 4.149688,8.412294 3.952084,12.914847c-0.169375,3.909741 -0.705729,7.833596 -1.242084,11.729222c-0.705729,4.996564 -1.510261,9.964898 -0.366979,14.975576c1.326771,5.730522 5.13771,10.501252 10.825888,14.566253c0.070573,0.056458 0.197604,0.070573 0.310521,0.112917c-2.611199,-11.065836 1.665521,-15.568389 10.656513,-21.087192c-0.423438,1.002136 -0.846875,1.863125 -1.171511,2.766459c-1.340886,3.683907 -0.564583,7.240783 1.496146,10.670628c1.100938,1.834896 2.272448,3.655678 3.472188,5.47646c2.865261,4.333178 3.867397,8.807502 2.314792,13.550003c-1.552605,4.742501 -3.895626,9.20271 -8.412294,12.957191c-4.855418,4.008543 -11.10818,6.365679 -18.137244,7.805366c-0.705729,0.141146 -1.411459,0.268177 -2.117188,0.395208c-0.042344,-0.070573 -0.056458,-0.112917 -0.084688,-0.15526z"/>
   <path stroke="null" id="svg_23" d="m237.434706,13.028554c-3.683907,-3.175782 -8.482867,0 -8.482867,0l-23.147922,28.172715l0,2.244219l-18.377192,21.651776l5.123595,0l16.782244,-17.544431l3.796824,-1.312657l24.291204,-22.950318c0.014115,0 4.784845,-6.15396 0.014115,-10.261304zm-3.542761,7.000835c-1.312657,0 -2.385365,-1.129167 -2.385365,-2.512396c0,-1.397344 1.072709,-2.512396 2.385365,-2.512396s2.385365,1.129167 2.385365,2.512396c0,1.383229 -1.058594,2.512396 -2.385365,2.512396z" class="st3"/>
   <g stroke="null" id="svg_24">
    <polygon stroke="null" id="svg_25" points="215.28887939453125,30.078975677490234 223.05194091796875,36.93866729736328 223.1790008544922,36.825748443603516 215.40182495117188,29.937828063964844 " class="st4"/>
    <polygon stroke="null" id="svg_26" points="207.08831787109375,40.057987213134766 207.08831787109375,40.114444732666016 213.1858367919922,45.52033233642578 214.41378784179688,45.09689712524414 223.05194091796875,36.93866729736328 215.28887939453125,30.078975677490234 " class="st5"/>
    <polygon stroke="null" id="svg_27" points="220.39840698242188,23.8403263092041 215.40182495117188,29.937828063964844 223.1790008544922,36.825748443603516 228.92359924316406,31.391633987426758 " class="st6"/>
    <polygon stroke="null" id="svg_28" points="228.92359924316406,31.391633987426758 234.68235778808594,25.9575138092041 225.40907287597656,17.756942749023438 220.39840698242188,23.8403263092041 " class="st1"/>
   </g>
   <g stroke="null" id="svg_29">
    <path stroke="null" id="svg_30" d="m275.657007,192.185002c1.990157,0 3.59922,0.592813 4.827189,1.764323c1.213854,1.171511 1.834896,2.710001 1.834896,4.601355c0,1.905469 -0.606927,3.429845 -1.806667,4.573126c-1.19974,1.143282 -2.822917,1.72198 -4.855418,1.72198l-5.420001,0l0,-12.660784l5.420001,0zm0,1.453802l-3.853282,0l0,9.739065l3.853282,0c1.552605,0 2.780574,-0.437552 3.683907,-1.312657c0.889219,-0.875104 1.340886,-2.06073 1.340886,-3.542761c0,-1.467917 -0.451667,-2.653542 -1.369115,-3.542761s-2.131303,-1.340886 -3.655678,-1.340886z" class="st0"/>
    <path stroke="null" id="svg_31" d="m282.742529,204.845787l6.196304,-12.660784l1.312657,0l6.266876,12.660784l-1.707865,0l-1.72198,-3.401615l-6.98672,0l-1.679636,3.401615l-1.679636,0zm4.09323,-4.883647l5.575262,0l-2.794688,-5.603491l-2.780574,5.603491z" class="st0"/>
    <path stroke="null" id="svg_32" d="m298.452064,204.845787l0,-12.660784l1.566719,0l0,11.206982l8.271148,0l0,1.453802l-9.837867,0z" class="st0"/>
    <path stroke="null" id="svg_33" d="m310.1954,204.845787l0,-12.660784l9.950784,0l0,1.453802l-8.384064,0l0,3.712136l5.067137,0l0,1.453802l-5.067137,0l0,4.573126l8.89219,0l0,1.453802l-10.458909,0l0,0.014115z" class="st0"/>
    <path stroke="null" id="svg_34" d="m330.760353,204.845787l0,-12.660784l7.254898,0c1.227969,0 2.201876,0.310521 2.907605,0.917448s1.058594,1.453802 1.058594,2.512396c0,1.100938 -0.33875,1.990157 -1.030365,2.667657c-0.6775,0.6775 -1.594948,1.01625 -2.73823,1.01625l-5.885783,0l0,5.532918l-1.566719,0l0,0.014115zm1.566719,-7.029064l5.589376,0c0.790417,0 1.397344,-0.18349 1.806667,-0.52224c0.409323,-0.352865 0.606927,-0.86099 0.606927,-1.552605c0,-0.663386 -0.211719,-1.185625 -0.606927,-1.552605c-0.409323,-0.366979 -0.988021,-0.550469 -1.72198,-0.550469l-5.659949,0l0,4.177918l-0.014115,0z" class="st0"/>
    <path stroke="null" id="svg_35" d="m344.592648,204.845787l0,-12.660784l1.566719,0l0,11.206982l8.271148,0l0,1.453802l-9.837867,0z" class="st0"/>
    <path stroke="null" id="svg_36" d="m354.430515,204.845787l6.196304,-12.660784l1.312657,0l6.266876,12.660784l-1.707865,0l-1.72198,-3.401615l-6.98672,0l-1.679636,3.401615l-1.679636,0zm4.079116,-4.883647l5.575262,0l-2.794688,-5.603491l-2.780574,5.603491z" class="st0"/>
    <path stroke="null" id="svg_37" d="m372.243123,204.845787l0,-6.337449l-5.702293,-6.323335l1.976042,0l4.530782,4.996564l4.502553,-4.996564l1.990157,0l-5.730522,6.337449l0,6.323335l-1.566719,0z" class="st0"/>
    <path stroke="null" id="svg_38" d="m386.188335,204.845787l6.196304,-12.660784l1.312657,0l6.266876,12.660784l-1.707865,0l-1.72198,-3.401615l-6.98672,0l-1.679636,3.401615l-1.679636,0zm4.079116,-4.883647l5.575262,0l-2.794688,-5.603491l-2.780574,5.603491z" class="st0"/>
    <path stroke="null" id="svg_39" d="m409.717351,204.845787l0,-12.660784l1.566719,0l0,11.206982l8.271148,0l0,1.453802l-9.837867,0z" class="st0"/>
    <path stroke="null" id="svg_40" d="m426.584282,205.170422c-1.891355,0 -3.458074,-0.621042 -4.700157,-1.87724c-1.242084,-1.242084 -1.849011,-2.837032 -1.849011,-4.756616c0,-1.919584 0.621042,-3.514532 1.863125,-4.77073s2.794688,-1.87724 4.686043,-1.87724c1.891355,0 3.472188,0.621042 4.714272,1.87724c1.242084,1.256198 1.863125,2.837032 1.863125,4.756616s-0.621042,3.500417 -1.863125,4.756616c-1.242084,1.270313 -2.822917,1.891355 -4.714272,1.891355zm0,-1.482032c1.425573,0 2.597084,-0.479896 3.528647,-1.453802c0.931563,-0.973906 1.397344,-2.201876 1.397344,-3.698022c0,-1.496146 -0.465781,-2.73823 -1.397344,-3.698022c-0.931563,-0.973906 -2.103073,-1.453802 -3.542761,-1.453802c-1.425573,0 -2.597084,0.479896 -3.528647,1.467917c-0.931563,0.973906 -1.397344,2.201876 -1.397344,3.698022s0.465781,2.724115 1.397344,3.698022c0.945677,0.959792 2.117188,1.439688 3.542761,1.439688z" class="st0"/>
    <path stroke="null" id="svg_41" d="m434.714284,202.940317l0.917448,-1.369115c0.889219,0.691615 1.820782,1.227969 2.794688,1.594948c0.959792,0.366979 1.919584,0.550469 2.865261,0.550469c1.171511,0 2.117188,-0.254063 2.851147,-0.748073c0.733959,-0.494011 1.100938,-1.129167 1.100938,-1.919584c0,-0.621042 -0.268177,-1.129167 -0.790417,-1.524375c-0.52224,-0.395208 -1.242084,-0.635156 -2.173646,-0.719844c-0.225833,-0.028229 -0.536354,-0.042344 -0.959792,-0.070573c-2.074844,-0.141146 -3.500417,-0.395208 -4.248491,-0.733959c-0.592813,-0.282292 -1.030365,-0.649271 -1.340886,-1.100938c-0.310521,-0.451667 -0.451667,-0.945677 -0.451667,-1.510261c0,-1.01625 0.451667,-1.849011 1.369115,-2.512396c0.903334,-0.649271 2.088959,-0.988021 3.542761,-0.988021c1.058594,0 2.103073,0.169375 3.119324,0.52224c1.030365,0.352865 2.004271,0.86099 2.935834,1.53849l-0.917448,1.312657c-0.776302,-0.621042 -1.594948,-1.100938 -2.455938,-1.411459c-0.86099,-0.310521 -1.750209,-0.479896 -2.653542,-0.479896c-0.959792,0 -1.736094,0.18349 -2.357136,0.550469c-0.621042,0.366979 -0.931563,0.832761 -0.931563,1.397344c0,0.225833 0.056458,0.423438 0.15526,0.606927s0.254063,0.352865 0.465781,0.52224c0.52224,0.395208 1.637292,0.635156 3.373386,0.748073c0.790417,0.042344 1.411459,0.098802 1.849011,0.15526c1.284427,0.141146 2.300678,0.564583 3.048751,1.242084c0.748073,0.6775 1.129167,1.524375 1.129167,2.512396c0,1.185625 -0.508125,2.159532 -1.53849,2.921719c-1.030365,0.762188 -2.371251,1.143282 -4.036772,1.143282c-1.256198,0 -2.427709,-0.18349 -3.514532,-0.550469c-1.143282,-0.366979 -2.159532,-0.931563 -3.147553,-1.679636z" class="st0"/>
    <path stroke="null" id="svg_42" d="m457.692831,204.845787l0,-12.660784l1.453802,0l5.10948,7.748908l5.151824,-7.748908l1.425573,0l0,12.660784l-1.552605,0l0,-9.880211l-5.024793,7.480731l-5.024793,-7.480731l0,9.880211l-1.53849,0z" class="st0"/>
    <path stroke="null" id="svg_43" d="m474.545647,204.845787l0,-12.660784l9.950784,0l0,1.453802l-8.384064,0l0,3.712136l5.067137,0l0,1.453802l-5.067137,0l0,4.573126l8.89219,0l0,1.453802l-10.458909,0l0,0.014115z" class="st0"/>
    <path stroke="null" id="svg_44" d="m485.90789,199.397556l1.566719,0l0,1.976042c0,0.818646 0.296406,1.411459 0.903334,1.778438c0.592813,0.366979 1.580834,0.550469 2.935834,0.550469c1.326771,0 2.230105,-0.225833 2.724115,-0.691615c0.479896,-0.451667 0.733959,-1.326771 0.733959,-2.625313l0,-8.200575l1.566719,0l0,8.624012c0,1.566719 -0.409323,2.681771 -1.227969,3.359272c-0.818646,0.6775 -2.173646,1.01625 -4.079116,1.01625c-1.736094,0 -3.020522,-0.310521 -3.853282,-0.931563c-0.832761,-0.621042 -1.256198,-1.566719 -1.256198,-2.837032l0,-2.018386l-0.014115,0z" class="st0"/>
    <path stroke="null" id="svg_45" d="m505.51305,205.170422c-1.891355,0 -3.458074,-0.621042 -4.700157,-1.87724c-1.242084,-1.242084 -1.849011,-2.837032 -1.849011,-4.756616c0,-1.919584 0.621042,-3.514532 1.863125,-4.77073s2.794688,-1.87724 4.686043,-1.87724c1.891355,0 3.472188,0.621042 4.714272,1.87724c1.242084,1.256198 1.863125,2.837032 1.863125,4.756616s-0.621042,3.500417 -1.863125,4.756616c-1.242084,1.270313 -2.822917,1.891355 -4.714272,1.891355zm0,-1.482032c1.425573,0 2.597084,-0.479896 3.528647,-1.453802c0.931563,-0.973906 1.397344,-2.201876 1.397344,-3.698022c0,-1.496146 -0.465781,-2.73823 -1.397344,-3.698022c-0.931563,-0.973906 -2.103073,-1.453802 -3.542761,-1.453802c-1.425573,0 -2.597084,0.479896 -3.528647,1.467917c-0.931563,0.973906 -1.397344,2.201876 -1.397344,3.698022s0.465781,2.724115 1.397344,3.698022c0.945677,0.959792 2.117188,1.439688 3.542761,1.439688z" class="st0"/>
    <path stroke="null" id="svg_46" d="m514.786334,204.845787l0,-12.660784l7.254898,0c1.242084,0 2.21599,0.310521 2.907605,0.931563c0.705729,0.621042 1.058594,1.482032 1.058594,2.582969c0,0.917448 -0.268177,1.707865 -0.818646,2.357136c-0.550469,0.649271 -1.270313,1.058594 -2.173646,1.227969l3.161667,5.561147l-1.750209,0l-3.161667,-5.532918l-4.911876,0l0,5.532918l-1.566719,0zm1.566719,-7.029064l5.589376,0c0.790417,0 1.397344,-0.18349 1.806667,-0.52224c0.409323,-0.352865 0.606927,-0.86099 0.606927,-1.552605c0,-0.663386 -0.211719,-1.185625 -0.606927,-1.552605c-0.409323,-0.366979 -0.988021,-0.550469 -1.72198,-0.550469l-5.659949,0l0,4.177918l-0.014115,0z" class="st0"/>
    <path stroke="null" id="svg_47" d="m528.872691,204.845787l0,-12.660784l9.950784,0l0,1.453802l-8.384064,0l0,3.712136l5.067137,0l0,1.453802l-5.067137,0l0,4.573126l8.89219,0l0,1.453802l-10.458909,0l0,0.014115z" class="st0"/>
    <path stroke="null" id="svg_48" d="m540.488996,202.940317l0.917448,-1.369115c0.889219,0.691615 1.820782,1.227969 2.794688,1.594948c0.959792,0.366979 1.919584,0.550469 2.865261,0.550469c1.171511,0 2.117188,-0.254063 2.851147,-0.748073c0.733959,-0.494011 1.100938,-1.129167 1.100938,-1.919584c0,-0.621042 -0.268177,-1.129167 -0.790417,-1.524375c-0.52224,-0.395208 -1.242084,-0.635156 -2.173646,-0.719844c-0.225833,-0.028229 -0.536354,-0.042344 -0.959792,-0.070573c-2.074844,-0.141146 -3.500417,-0.395208 -4.248491,-0.733959c-0.592813,-0.282292 -1.030365,-0.649271 -1.340886,-1.100938c-0.310521,-0.451667 -0.451667,-0.945677 -0.451667,-1.510261c0,-1.01625 0.451667,-1.849011 1.369115,-2.512396c0.903334,-0.649271 2.088959,-0.988021 3.542761,-0.988021c1.058594,0 2.103073,0.169375 3.119324,0.52224c1.030365,0.352865 2.004271,0.86099 2.935834,1.53849l-0.917448,1.312657c-0.776302,-0.621042 -1.594948,-1.100938 -2.455938,-1.411459c-0.86099,-0.310521 -1.750209,-0.479896 -2.653542,-0.479896c-0.959792,0 -1.736094,0.18349 -2.357136,0.550469c-0.621042,0.366979 -0.931563,0.832761 -0.931563,1.397344c0,0.225833 0.056458,0.423438 0.15526,0.606927s0.254063,0.352865 0.465781,0.52224c0.52224,0.395208 1.637292,0.635156 3.373386,0.748073c0.790417,0.042344 1.411459,0.098802 1.849011,0.15526c1.284427,0.141146 2.300678,0.564583 3.048751,1.242084c0.748073,0.6775 1.129167,1.524375 1.129167,2.512396c0,1.185625 -0.508125,2.159532 -1.53849,2.921719c-1.030365,0.762188 -2.371251,1.143282 -4.036772,1.143282c-1.256198,0 -2.427709,-0.18349 -3.514532,-0.550469c-1.143282,-0.366979 -2.173646,-0.931563 -3.147553,-1.679636z" class="st0"/>
    <path stroke="null" id="svg_49" d="m563.453429,204.845787l0,-12.660784l7.254898,0c1.227969,0 2.201876,0.310521 2.907605,0.917448s1.058594,1.453802 1.058594,2.512396c0,1.100938 -0.33875,1.990157 -1.030365,2.667657c-0.6775,0.6775 -1.594948,1.01625 -2.73823,1.01625l-5.885783,0l0,5.532918l-1.566719,0l0,0.014115zm1.580834,-7.029064l5.589376,0c0.790417,0 1.397344,-0.18349 1.806667,-0.52224c0.409323,-0.352865 0.606927,-0.86099 0.606927,-1.552605c0,-0.663386 -0.211719,-1.185625 -0.606927,-1.552605c-0.409323,-0.366979 -0.988021,-0.550469 -1.72198,-0.550469l-5.659949,0l0,4.177918l-0.014115,0z" class="st0"/>
    <path stroke="null" id="svg_50" d="m577.285724,204.845787l0,-12.660784l1.566719,0l0,11.206982l8.271148,0l0,1.453802l-9.837867,0z" class="st0"/>
    <path stroke="null" id="svg_51" d="m587.12359,204.845787l6.196304,-12.660784l1.312657,0l6.266876,12.660784l-1.707865,0l-1.72198,-3.401615l-6.98672,0l-1.679636,3.401615l-1.679636,0zm4.079116,-4.883647l5.575262,0l-2.794688,-5.603491l-2.780574,5.603491z" class="st0"/>
    <path stroke="null" id="svg_52" d="m603.750574,204.845787l0,-11.206982l-5.321199,0l0,-1.453802l12.237347,0l0,1.453802l-5.335314,0l0,11.206982l-1.580834,0z" class="st0"/>
    <path stroke="null" id="svg_53" d="m616.877139,205.170422c-1.891355,0 -3.458074,-0.621042 -4.700157,-1.87724c-1.242084,-1.242084 -1.849011,-2.837032 -1.849011,-4.756616c0,-1.919584 0.621042,-3.514532 1.863125,-4.77073s2.794688,-1.87724 4.686043,-1.87724c1.891355,0 3.472188,0.621042 4.714272,1.87724c1.242084,1.256198 1.863125,2.837032 1.863125,4.756616s-0.621042,3.500417 -1.863125,4.756616c-1.242084,1.270313 -2.822917,1.891355 -4.714272,1.891355zm0,-1.482032c1.425573,0 2.597084,-0.479896 3.528647,-1.453802c0.931563,-0.973906 1.397344,-2.201876 1.397344,-3.698022c0,-1.496146 -0.465781,-2.73823 -1.397344,-3.698022c-0.931563,-0.973906 -2.103073,-1.453802 -3.542761,-1.453802c-1.425573,0 -2.597084,0.479896 -3.528647,1.467917c-0.931563,0.973906 -1.397344,2.201876 -1.397344,3.698022s0.465781,2.724115 1.397344,3.698022c0.945677,0.959792 2.117188,1.439688 3.542761,1.439688z" class="st0"/>
    <path stroke="null" id="svg_54" d="m625.007141,202.940317l0.917448,-1.369115c0.889219,0.691615 1.820782,1.227969 2.794688,1.594948c0.959792,0.366979 1.919584,0.550469 2.865261,0.550469c1.171511,0 2.117188,-0.254063 2.851147,-0.748073c0.733959,-0.494011 1.100938,-1.129167 1.100938,-1.919584c0,-0.621042 -0.268177,-1.129167 -0.790417,-1.524375c-0.52224,-0.395208 -1.242084,-0.635156 -2.173646,-0.719844c-0.225833,-0.028229 -0.536354,-0.042344 -0.959792,-0.070573c-2.074844,-0.141146 -3.500417,-0.395208 -4.248491,-0.733959c-0.592813,-0.282292 -1.030365,-0.649271 -1.340886,-1.100938c-0.310521,-0.451667 -0.451667,-0.945677 -0.451667,-1.510261c0,-1.01625 0.451667,-1.849011 1.369115,-2.512396c0.903334,-0.649271 2.088959,-0.988021 3.542761,-0.988021c1.058594,0 2.103073,0.169375 3.119324,0.52224c1.030365,0.352865 2.004271,0.86099 2.935834,1.53849l-0.917448,1.312657c-0.776302,-0.621042 -1.594948,-1.100938 -2.455938,-1.411459c-0.86099,-0.310521 -1.750209,-0.479896 -2.653542,-0.479896c-0.959792,0 -1.736094,0.18349 -2.357136,0.550469c-0.621042,0.366979 -0.931563,0.832761 -0.931563,1.397344c0,0.225833 0.056458,0.423438 0.15526,0.606927s0.254063,0.352865 0.465781,0.52224c0.52224,0.395208 1.637292,0.635156 3.373386,0.748073c0.790417,0.042344 1.411459,0.098802 1.849011,0.15526c1.284427,0.141146 2.300678,0.564583 3.048751,1.242084c0.748073,0.6775 1.129167,1.524375 1.129167,2.512396c0,1.185625 -0.508125,2.159532 -1.53849,2.921719c-1.030365,0.762188 -2.371251,1.143282 -4.036772,1.143282c-1.256198,0 -2.427709,-0.18349 -3.514532,-0.550469c-1.143282,-0.366979 -2.159532,-0.931563 -3.147553,-1.679636z" class="st0"/>
    <path stroke="null" id="svg_55" d="m653.476262,192.185002c1.990157,0 3.59922,0.592813 4.827189,1.764323c1.213854,1.171511 1.834896,2.710001 1.834896,4.601355c0,1.905469 -0.606927,3.429845 -1.806667,4.573126c-1.19974,1.143282 -2.822917,1.72198 -4.855418,1.72198l-5.420001,0l0,-12.660784l5.420001,0zm0,1.453802l-3.853282,0l0,9.739065l3.853282,0c1.552605,0 2.780574,-0.437552 3.683907,-1.312657c0.889219,-0.875104 1.340886,-2.06073 1.340886,-3.542761c0,-1.467917 -0.451667,-2.653542 -1.369115,-3.542761s-2.131303,-1.340886 -3.655678,-1.340886z" class="st0"/>
    <path stroke="null" id="svg_56" d="m662.890692,204.845787l0,-12.660784l9.950784,0l0,1.453802l-8.384064,0l0,3.712136l5.067137,0l0,1.453802l-5.067137,0l0,4.573126l8.89219,0l0,1.453802l-10.458909,0l0,0.014115z" class="st0"/>
    <path stroke="null" id="svg_57" d="m693.618147,200.809015l1.256198,0.945677c-0.578698,1.100938 -1.369115,1.947813 -2.385365,2.540626c-1.002136,0.592813 -2.159532,0.889219 -3.443959,0.889219c-1.891355,0 -3.458074,-0.621042 -4.700157,-1.87724c-1.242084,-1.242084 -1.849011,-2.837032 -1.849011,-4.756616c0,-1.919584 0.621042,-3.514532 1.863125,-4.77073s2.794688,-1.87724 4.686043,-1.87724c1.171511,0 2.230105,0.254063 3.204011,0.762188c0.959792,0.508125 1.750209,1.242084 2.357136,2.187761l-1.312657,0.945677c-0.395208,-0.762188 -0.973906,-1.355 -1.72198,-1.778438c-0.748073,-0.423438 -1.580834,-0.649271 -2.512396,-0.649271c-1.425573,0 -2.597084,0.479896 -3.528647,1.467917c-0.931563,0.973906 -1.397344,2.201876 -1.397344,3.698022s0.465781,2.724115 1.397344,3.698022c0.931563,0.973906 2.103073,1.453802 3.528647,1.453802c0.988021,0 1.87724,-0.239948 2.653542,-0.733959s1.411459,-1.19974 1.905469,-2.145417z" class="st0"/>
    <path stroke="null" id="svg_58" d="m703.244295,205.170422c-1.891355,0 -3.458074,-0.621042 -4.700157,-1.87724c-1.242084,-1.242084 -1.849011,-2.837032 -1.849011,-4.756616c0,-1.919584 0.621042,-3.514532 1.863125,-4.77073s2.794688,-1.87724 4.686043,-1.87724c1.891355,0 3.472188,0.621042 4.714272,1.87724c1.242084,1.256198 1.863125,2.837032 1.863125,4.756616s-0.621042,3.500417 -1.863125,4.756616c-1.242084,1.270313 -2.808803,1.891355 -4.714272,1.891355zm0,-1.482032c1.425573,0 2.597084,-0.479896 3.528647,-1.453802c0.931563,-0.973906 1.397344,-2.201876 1.397344,-3.698022c0,-1.496146 -0.465781,-2.73823 -1.397344,-3.698022c-0.931563,-0.973906 -2.103073,-1.453802 -3.542761,-1.453802c-1.425573,0 -2.597084,0.479896 -3.528647,1.467917c-0.931563,0.973906 -1.397344,2.201876 -1.397344,3.698022s0.465781,2.724115 1.397344,3.698022c0.945677,0.959792 2.117188,1.439688 3.542761,1.439688z" class="st0"/>
    <path stroke="null" id="svg_59" d="m712.588151,204.845787l0,-12.660784l1.566719,0l0,11.206982l8.271148,0l0,1.453802l-9.837867,0z" class="st0"/>
    <path stroke="null" id="svg_60" d="m729.455082,205.170422c-1.891355,0 -3.458074,-0.621042 -4.700157,-1.87724c-1.242084,-1.242084 -1.849011,-2.837032 -1.849011,-4.756616c0,-1.919584 0.621042,-3.514532 1.863125,-4.77073s2.794688,-1.87724 4.686043,-1.87724c1.891355,0 3.472188,0.621042 4.714272,1.87724c1.242084,1.256198 1.863125,2.837032 1.863125,4.756616s-0.621042,3.500417 -1.863125,4.756616c-1.242084,1.270313 -2.822917,1.891355 -4.714272,1.891355zm0,-1.482032c1.425573,0 2.597084,-0.479896 3.528647,-1.453802c0.931563,-0.973906 1.397344,-2.201876 1.397344,-3.698022c0,-1.496146 -0.465781,-2.73823 -1.397344,-3.698022c-0.931563,-0.973906 -2.103073,-1.453802 -3.542761,-1.453802c-1.425573,0 -2.597084,0.479896 -3.528647,1.467917c-0.931563,0.973906 -1.397344,2.201876 -1.397344,3.698022s0.465781,2.724115 1.397344,3.698022c0.945677,0.959792 2.117188,1.439688 3.542761,1.439688z" class="st0"/>
    <path stroke="null" id="svg_61" d="m738.728366,204.845787l0,-12.660784l1.453802,0l5.10948,7.748908l5.151824,-7.748908l1.425573,0l0,12.660784l-1.552605,0l0,-9.880211l-5.024793,7.480731l-5.024793,-7.480731l0,9.880211l-1.53849,0z" class="st0"/>
    <path stroke="null" id="svg_62" d="m755.581182,204.845787l0,-12.660784l7.480731,0c1.242084,0 2.187761,0.268177 2.822917,0.790417c0.635156,0.536354 0.959792,1.312657 0.959792,2.357136c0,0.508125 -0.098802,0.959792 -0.296406,1.355c-0.197604,0.395208 -0.479896,0.719844 -0.846875,0.959792c0.6775,0.395208 1.185625,0.875104 1.524375,1.439688c0.33875,0.564583 0.52224,1.213854 0.52224,1.947813c0,1.171511 -0.381094,2.088959 -1.157396,2.780574c-0.762188,0.6775 -1.806667,1.030365 -3.119324,1.030365l-7.890054,0zm1.566719,-7.664221l6.055158,0c0.663386,0 1.171511,-0.15526 1.524375,-0.451667s0.52224,-0.733959 0.52224,-1.298542c0,-0.592813 -0.169375,-1.044479 -0.508125,-1.340886c-0.33875,-0.296406 -0.846875,-0.451667 -1.53849,-0.451667l-6.055158,0l0,3.542761zm0,6.196304l6.619741,0c0.719844,0 1.284427,-0.211719 1.69375,-0.635156c0.409323,-0.423438 0.621042,-1.002136 0.621042,-1.736094c0,-0.719844 -0.211719,-1.298542 -0.621042,-1.736094c-0.409323,-0.423438 -0.973906,-0.649271 -1.69375,-0.649271l-6.619741,0l0,4.756616z" class="st0"/>
    <path stroke="null" id="svg_63" d="m770.923738,204.845787l0,-12.731357l1.594948,0l0,12.731357l-1.594948,0z" class="st0"/>
    <path stroke="null" id="svg_64" d="m774.424155,204.845787l6.196304,-12.660784l1.312657,0l6.266876,12.660784l-1.707865,0l-1.72198,-3.401615l-6.98672,0l-1.679636,3.401615l-1.679636,0zm4.079116,-4.883647l5.575262,0l-2.794688,-5.603491l-2.780574,5.603491z" class="st0"/>
   </g>
   <g stroke="null" id="svg_65">
    <g stroke="null" id="svg_66">
     <g stroke="null" id="svg_67">
      <g stroke="null" id="svg_68">
       <g stroke="null" id="svg_69">
        <path stroke="null" id="svg_70" d="m771.51655,172.551612c0.719844,0.169375 0.564583,-0.451667 0.691615,-0.536354c-1.242084,-0.070573 -0.6775,0.691615 -0.691615,0.536354z" class="st1"/>
        <polygon stroke="null" id="svg_71" points="759.2792358398438,171.86001586914062 759.5332641601562,171.6482696533203 757.670166015625,171.94468688964844 " class="st1"/>
        <path stroke="null" id="svg_72" d="m748.043993,170.039216c0.903334,1.143282 4.09323,0.494011 6.041043,1.157396l0.296406,0.282292l1.030365,-0.649271c-2.455938,-0.254063 -5.688178,-0.254063 -7.367814,-0.790417z" class="st1"/>
        <path stroke="null" id="svg_73" d="m742.369929,166.976351c0.310521,0.437552 -1.355,0.141146 1.383229,0.33875c-0.127031,-0.056458 -0.169375,-0.098802 -0.239948,-0.141146c-0.239948,-0.042344 -0.578698,-0.084688 -1.143282,-0.197604z" class="st1"/>
        <path stroke="null" id="svg_74" d="m743.513211,167.173955c1.19974,0.15526 -0.719844,-0.451667 0,0l0,0z" class="st1"/>
        <path stroke="null" id="svg_75" d="m737.994407,166.552913l1.609063,-0.112917c-0.296406,-0.282292 -1.679636,-0.550469 -1.129167,-0.635156c-1.623177,-0.042344 -1.326771,0.239948 -0.479896,0.748073z" class="st1"/>
        <path stroke="null" id="svg_76" d="m736.413573,167.061038l0.832761,-0.028229c-0.127031,-0.112917 -0.33875,-0.169375 -0.832761,0.028229z" class="st1"/>
        <path stroke="null" id="svg_77" d="m739.010657,166.990465l-1.764323,0.056458c0.197604,0.197604 0.18349,0.52224 0.804531,0c-0.18349,0.268177 0.197604,0.042344 0.959792,-0.056458z" class="st1"/>
        <path stroke="null" id="svg_78" d="m739.956335,167.286872c0.846875,0.352865 1.961928,0.663386 0.33875,0.762188c3.006407,0.324635 2.667657,-0.451667 -0.33875,-0.762188z" class="st1"/>
        <path stroke="null" id="svg_79" d="m747.310034,170.984893l1.129167,0.465781l1.058594,-0.169375c-0.536354,0.084688 -2.21599,-0.621042 -2.187761,-0.296406z" class="st1"/>
        <path stroke="null" id="svg_80" d="m728.325915,164.633329c-0.127031,0.197604 0.451667,0.635156 0.52224,0.931563l1.185625,-0.070573c-0.564583,-0.239948 -1.679636,-0.536354 -1.707865,-0.86099z" class="st1"/>
        <path stroke="null" id="svg_81" d="m728.848155,165.564892l-1.778438,0.112917c1.53849,0.254063 1.849011,0.127031 1.778438,-0.112917z" class="st1"/>
        <polygon stroke="null" id="svg_82" points="735.9619140625,168.13375854492188 738.911865234375,167.78089904785156 735.425537109375,168.0631866455078 " class="st1"/>
        <polygon stroke="null" id="svg_83" points="721.7061767578125,163.68763732910156 722.7648315429688,163.3206787109375 720.9158325195312,163.82879638671875 " class="st1"/>
        <path stroke="null" id="svg_84" d="m717.316538,163.165412c0.776302,-0.310521 -0.903334,-0.818646 -0.098802,-0.973906c-1.19974,-0.084688 -2.272448,0.112917 -3.23224,0.324635c1.002136,-0.056458 2.0325,0.141146 3.331042,0.649271z" class="st1"/>
        <path stroke="null" id="svg_85" d="m712.376432,162.784318c0.494011,-0.042344 1.030365,-0.141146 1.594948,-0.268177c-0.52224,0.028229 -1.044479,0.098802 -1.594948,0.268177z" class="st1"/>
        <path stroke="null" id="svg_86" d="m724.133883,165.155569c-0.112917,-0.141146 -0.324635,-0.52224 -1.284427,-0.790417l0.592813,0.691615c0.211719,0.028229 0.451667,0.070573 0.691615,0.098802z" class="st1"/>
        <path stroke="null" id="svg_87" d="m723.470498,165.084996l-0.028229,-0.028229c-0.733959,-0.112917 -1.242084,-0.197604 -1.467917,-0.239948c0.197604,0.042344 0.649271,0.112917 1.496146,0.268177z" class="st1"/>
        <path stroke="null" id="svg_88" d="m724.303258,165.183798c-0.056458,-0.014115 -0.112917,-0.014115 -0.169375,-0.028229c0.056458,0.070573 0.098802,0.098802 0.169375,0.028229z" class="st1"/>
        <path stroke="null" id="svg_89" d="m731.515812,166.934007c-1.058594,0.18349 -3.23224,0.239948 -1.256198,1.044479c0.790417,-0.296406 -0.33875,-0.762188 1.256198,-1.044479z" class="st1"/>
        <path stroke="null" id="svg_90" d="m725.051331,166.044788l1.820782,0.395208c-0.014115,-0.169375 -0.310521,-0.437552 0.211719,-0.536354l-2.0325,0.141146z" class="st1"/>
        <polygon stroke="null" id="svg_91" points="724.1198120117188,166.1153564453125 725.0513305664062,166.04478454589844 724.3738403320312,165.9036407470703 " class="st1"/>
        <path stroke="null" id="svg_92" d="m715.467527,163.74411c-0.832761,0.15526 -1.707865,0.070573 -2.695886,-0.028229c1.044479,0.254063 2.117188,0.451667 3.147553,0.592813c0.169375,-0.15526 0.6775,-0.423438 -0.451667,-0.564583z" class="st1"/>
        <path stroke="null" id="svg_93" d="m719.349038,164.44984c-0.056458,0 -0.127031,0.014115 -0.18349,0.014115c0.098802,0.056458 0.18349,0.084688 0.18349,-0.014115z" class="st1"/>
        <polygon stroke="null" id="svg_94" points="703.1030883789062,162.4879150390625 703.2443237304688,162.6149444580078 703.28662109375,162.51612854003906 " class="st1"/>
        <path stroke="null" id="svg_95" d="m716.088569,164.463954c0.776302,0.225833 1.270313,0.141146 1.736094,0.014115c-0.592813,-0.014115 -1.227969,-0.070573 -1.905469,-0.15526c-0.070573,0.084688 -0.098802,0.127031 0.169375,0.141146z" class="st1"/>
        <path stroke="null" id="svg_96" d="m709.652317,162.713746c0.395208,0.18349 0.846875,0.33875 1.326771,0.508125c-0.381094,-0.239948 -1.171511,-0.649271 -1.326771,-0.508125z" class="st1"/>
        <path stroke="null" id="svg_97" d="m718.925601,164.252235c0.042344,0 0.084688,0 0.127031,-0.014115c-0.254063,-0.15526 -0.225833,-0.084688 -0.127031,0.014115z" class="st1"/>
        <path stroke="null" id="svg_98" d="m718.925601,164.252235c-0.423438,0.028229 -0.762188,0.141146 -1.100938,0.225833c0.494011,0.014115 0.945677,0.014115 1.340886,-0.014115c-0.084688,-0.056458 -0.18349,-0.141146 -0.239948,-0.211719z" class="st1"/>
        <path stroke="null" id="svg_99" d="m699.701534,165.974215c0.211719,-0.536354 2.357136,-0.818646 4.065001,0.014115c1.820782,-0.18349 0.889219,-2.159532 -0.52224,-3.373386c-0.084688,0.239948 -0.112917,0.451667 -1.976042,0.564583c0.606927,0.366979 3.952084,1.213854 2.357136,1.524375c-2.441823,-0.014115 -1.947813,-0.437552 -3.07698,-0.875104c0.903334,0.804531 -3.189897,0.635156 -2.780574,1.72198l2.159532,-0.098802c0,0.15526 -0.790417,0.310521 -0.225833,0.52224z" class="st1"/>
        <path stroke="null" id="svg_100" d="m706.702369,163.108954l0.762188,0.028229c-0.846875,-0.211719 -1.425573,-0.508125 -2.498282,-1.086823c-1.284427,0.112917 -1.566719,0.282292 -1.665521,0.451667l3.669793,0.550469l-0.268177,0.056458z" class="st1"/>
        <path stroke="null" id="svg_101" d="m710.823828,163.574735c-0.663386,0.52224 -2.498282,0.550469 -1.482032,1.355c2.201876,0.239948 1.609063,-0.310521 2.949949,-0.395208c-3.556876,-0.310521 1.058594,-0.211719 -1.453802,-0.875104c0.705729,-0.014115 1.340886,0.042344 1.933698,0.084688c-0.635156,-0.15526 -1.227969,-0.324635 -1.792553,-0.508125c0.028229,0.014115 0.056458,0.028229 0.070573,0.042344l0.014115,0l0,0.014115c0.141146,0.098802 0.18349,0.141146 0.014115,0.084688c-0.014115,0 -0.056458,0 -0.070573,0c-0.028229,0.070573 -0.112917,0.127031 -0.18349,0.197604c-1.01625,-0.254063 -0.141146,-0.18349 0.18349,-0.211719c0.014115,-0.028229 0.042344,-0.056458 0.056458,-0.084688l-0.014115,-0.014115l-3.59922,-0.127031c0.748073,0.18349 1.69375,0.282292 3.373386,0.437552z" class="st1"/>
        <path stroke="null" id="svg_102" d="m728.184769,169.008851c-0.098802,-0.070573 -0.084688,-0.112917 -0.098802,-0.15526c-0.225833,0.042344 -0.324635,0.070573 0.098802,0.15526z" class="st1"/>
        <path stroke="null" id="svg_103" d="m726.787425,168.430153c0.268177,-0.042344 0.52224,-0.254063 1.340886,-0.070573c0.705729,0.282292 -0.042344,0.282292 -0.028229,0.494011c0.52224,-0.084688 1.820782,-0.18349 0.282292,-0.691615l-0.268177,0.042344c-1.397344,-0.423438 -3.119324,-1.425573 -2.865261,-1.467917c0.352865,0.592813 0.663386,1.030365 1.53849,1.69375z" class="st1"/>
        <path stroke="null" id="svg_104" d="m718.685653,166.115361l-2.992292,-0.112917l1.425573,0.719844l-0.028229,-0.324635c1.665521,0.366979 1.355,-0.056458 1.594948,-0.282292z" class="st1"/>
        <polygon stroke="null" id="svg_105" points="702.8067626953125,162.149169921875 703.2725219726562,161.55636596679688 701.4517211914062,162.24795532226562 " class="st1"/>
        <polygon stroke="null" id="svg_106" points="698.9393310546875,161.7539520263672 699.1510009765625,161.2176055908203 698.0924682617188,161.4293212890625 " class="st1"/>
        <path stroke="null" id="svg_107" d="m480.967784,159.029838l-0.86099,0.18349c0.395208,-0.056458 0.663386,-0.127031 0.86099,-0.18349z" class="st1"/>
        <path stroke="null" id="svg_108" d="m487.277004,158.902807l0.141146,-0.282292c-0.282292,0.15526 -0.409323,0.268177 -0.141146,0.282292z" class="st1"/>
        <path stroke="null" id="svg_109" d="m604.174011,153.52515c-1.242084,-0.578698 -2.625313,-1.467917 -2.512396,-0.832761l0.352865,0.635156c0.903334,-0.070573 1.580834,0.028229 2.159532,0.197604z" class="st1"/>
        <path stroke="null" id="svg_110" d="m539.006965,155.134212c0.127031,0.056458 0.239948,0.127031 0.366979,0.197604c0.310521,-0.211719 0.606927,-0.395208 0.86099,-0.578698c-0.352865,0.112917 -0.776302,0.254063 -1.227969,0.381094z" class="st1"/>
        <path stroke="null" id="svg_111" d="m538.089516,157.660723l-1.665521,-0.395208c0.381094,0.127031 0.917448,0.254063 1.665521,0.395208z" class="st1"/>
        <path stroke="null" id="svg_112" d="m446.556422,161.203485l-0.973906,0.6775c1.580834,-0.098802 0.875104,-0.366979 0.973906,-0.6775z" class="st1"/>
        <path stroke="null" id="svg_113" d="m659.474962,157.759526c-1.072709,-0.33875 -1.933698,-0.52224 -2.695886,-0.621042c1.284427,0.479896 2.300678,1.100938 2.695886,0.621042z" class="st1"/>
        <path stroke="null" id="svg_114" d="m483.254347,152.466556c-0.536354,0.127031 -0.762188,0.254063 -0.733959,0.395208c0.536354,-0.127031 0.846875,-0.254063 0.733959,-0.395208z" class="st1"/>
        <path stroke="null" id="svg_115" d="m653.603294,156.856192c0.18349,0.070573 0.381094,0.127031 0.564583,0.197604c0.804531,-0.028229 1.623177,-0.042344 2.597084,0.098802c-0.945677,-0.366979 -2.046615,-0.635156 -3.161667,-0.296406z" class="st1"/>
        <path stroke="null" id="svg_116" d="m322.16457,172.97505c-0.098802,-0.014115 -0.197604,-0.014115 -0.296406,-0.028229c0,0.084688 0.127031,0.070573 0.296406,0.028229z" class="st1"/>
        <path stroke="null" id="svg_117" d="m285.156124,172.45281c0.352865,-0.098802 0.931563,-0.197604 1.467917,-0.296406c-0.268177,0 -0.705729,0.084688 -1.467917,0.296406z" class="st1"/>
        <path stroke="null" id="svg_118" d="m683.483874,159.707339c0.818646,0.056458 0.141146,-0.056458 0,0l0,0z" class="st1"/>
        <path stroke="null" id="svg_119" d="m687.19601,162.558485c-0.18349,0.042344 -0.324635,0.127031 -0.352865,0.254063c0.070573,-0.141146 0.197604,-0.211719 0.352865,-0.254063z" class="st1"/>
        <path stroke="null" id="svg_120" d="m645.134542,159.961401c-0.028229,0 -0.042344,0 -0.070573,-0.014115c0.225833,0.141146 0.18349,0.112917 0.070573,0.014115z" class="st1"/>
        <path stroke="null" id="svg_121" d="m684.683613,160.116662c-0.296406,-0.112917 -0.649271,-0.211719 -1.030365,-0.296406c0.169375,0.070573 0.479896,0.169375 1.030365,0.296406z" class="st1"/>
        <path stroke="null" id="svg_122" d="m684.556582,159.820255c0.282292,0.056458 0.494011,0.098802 0.705729,0.141146c0.112917,-0.098802 0.028229,-0.169375 -0.705729,-0.141146z" class="st1"/>
        <path stroke="null" id="svg_123" d="m682.340592,159.608536c0.465781,0.042344 0.903334,0.112917 1.312657,0.211719c-0.15526,-0.056458 -0.225833,-0.098802 -0.169375,-0.112917c-0.239948,-0.014115 -0.578698,-0.042344 -1.143282,-0.098802z" class="st1"/>
        <path stroke="null" id="svg_124" d="m388.517242,163.447704c-0.056458,-0.014115 -0.112917,-0.014115 -0.18349,-0.042344c-0.790417,0.324635 -0.437552,0.254063 0.18349,0.042344z" class="st1"/>
        <path stroke="null" id="svg_125" d="m582.564579,158.888693c0.042344,0 0.056458,-0.014115 0.098802,-0.028229c-0.042344,-0.014115 -0.084688,-0.014115 -0.112917,-0.028229l0.014115,0.056458z" class="st1"/>
        <path stroke="null" id="svg_126" d="m579.600516,159.227443c1.284427,-0.705729 1.990157,-0.592813 2.921719,-0.381094l-0.903334,-1.806667l-2.018386,2.187761z" class="st1"/>
        <path stroke="null" id="svg_127" d="m465.865177,159.777911l2.088959,0.465781c-2.441823,1.002136 -4.262605,0.762188 -2.286563,1.467917c0.211719,-1.933698 7.988856,-0.52224 8.200575,-2.441823l1.369115,0.352865c-0.395208,0 -0.451667,0.112917 -0.832761,0.112917c2.667657,0.818646 1.905469,-1.496146 5.335314,-1.298542c1.185625,0.112917 2.0325,0.366979 1.227969,0.621042l2.625313,-0.550469c0.776302,0.014115 0.592813,0.352865 -0.169375,0.33875l4.036772,-0.268177l-0.028229,0.056458c0.564583,-0.310521 1.863125,-0.818646 2.498282,-1.030365c1.030365,0.254063 -0.508125,0.211719 -0.239948,0.451667l2.230105,-0.52224c0.917448,0.465781 -0.917448,1.002136 -2.455938,0.973906c2.131303,1.863125 1.849011,-0.536354 6.365679,0.465781l-2.103073,0.296406c1.383229,1.058594 3.020522,0.592813 5.420001,1.242084c-0.564583,-0.366979 -4.798959,-1.594948 -2.385365,-2.145417c0.691615,0.127031 1.594948,0.18349 2.89349,-0.225833c0.028229,0.6775 1.298542,0.494011 2.89349,0.437552l-0.098802,0.903334c1.72198,-0.282292 1.580834,-0.748073 2.582969,-1.157396c1.933698,0.070573 2.343021,0.762188 2.794688,1.340886c3.091094,0.098802 -2.145417,-1.086823 1.510261,-1.312657c2.568855,0.310521 4.361407,-0.084688 7.424273,-0.663386c1.792553,0.282292 -0.310521,0.550469 0.33875,0.804531l1.580834,-0.733959c0.395208,0.014115 0.268177,0.239948 0.197604,0.352865c1.340886,-0.282292 0.098802,-0.903334 2.21599,-1.143282c0.564583,-0.988021 4.333178,1.453802 6.944377,0.324635c0.649271,0.254063 -0.310521,0.550469 -0.112917,0.903334c3.585105,-0.733959 3.07698,-0.536354 6.012814,-1.524375l2.498282,0.592813c-1.834896,-0.6775 0.52224,-1.496146 2.597084,-2.117188c-0.649271,-0.33875 -1.213854,-0.635156 -1.580834,-0.762188l3.302813,-0.437552c0.395208,0.15526 0.056458,0.465781 -0.479896,0.832761c0.225833,-0.070573 0.437552,-0.141146 0.606927,-0.211719c1.171511,0.352865 0.564583,0.86099 -0.296406,1.355c-0.395208,-0.197604 -0.790417,-0.381094 -1.185625,-0.578698c-0.818646,0.536354 -1.580834,1.129167 -1.411459,1.665521c0.211719,-0.098802 0.621042,-0.18349 1.086823,-0.225833c-0.211719,0.141146 -0.352865,0.282292 -0.254063,0.366979c0.112917,0.098802 0.451667,-0.098802 1.002136,-0.324635l0.733959,1.01625l0.18349,-0.395208l4.290834,0.691615c3.091094,-0.959792 5.786981,-2.413594 10.698857,-2.752344c-1.227969,0.719844 -0.282292,1.19974 -0.366979,2.074844c-1.312657,-0.945677 -3.796824,0.33875 -6.323335,0.112917c1.312657,0.112917 1.01625,0.536354 0.6775,0.663386l4.530782,-0.776302c-0.112917,0.719844 0.945677,0.550469 2.117188,0.86099c-0.86099,-1.439688 3.387501,-0.889219 5.236512,-1.256198c0.098802,0.479896 -0.352865,0.945677 -2.582969,0.762188c2.441823,1.143282 3.23224,-1.566719 5.645835,-0.592813c-0.550469,0 -0.846875,-0.084688 -1.058594,0.15526c1.284427,-0.381094 4.403751,0.042344 3.655678,0.437552l-0.550469,0c3.627449,0.268177 11.051721,0.33875 11.644534,-0.846875c0.028229,0.15526 -0.52224,1.425573 -0.762188,1.665521l6.633856,-3.782709c-0.606927,1.002136 1.482032,3.556876 -1.552605,4.008543c0.86099,0.18349 1.919584,0.395208 3.75448,0.112917c-0.578698,-0.169375 -1.411459,-1.552605 -0.592813,-1.609063c2.159532,1.242084 1.510261,0.6775 4.192032,1.764323c-0.875104,-0.254063 0.18349,-1.834896 1.580834,-1.72198c-0.225833,0.225833 0.042344,1.594948 -0.479896,1.750209l3.556876,-1.411459c-0.875104,0.239948 -0.211719,1.340886 0.536354,1.820782c-0.33875,-0.324635 3.006407,0.18349 3.93797,0.070573l-1.453802,-0.437552c3.909741,0.437552 3.994428,-2.046615 7.890054,-1.750209c-0.494011,0.296406 -1.270313,1.947813 0.691615,2.258334c0.945677,-0.762188 4.234376,-3.669793 7.734793,-4.09323l0.635156,0.508125l2.681771,-0.366979c-1.736094,1.129167 -6.506824,3.41573 -9.089794,4.27672c1.439688,0.451667 0.381094,0.564583 2.582969,0.663386c0.748073,0.479896 -1.242084,0.592813 -1.87724,0.578698l5.095366,0.578698c-0.169375,-0.959792 3.966199,-0.719844 3.825053,-1.510261l-5.617605,0.649271c-0.169375,-0.945677 3.373386,-2.512396 7.000835,-2.103073c0.903334,0.437552 -0.804531,1.637292 -0.748073,1.961928c0.494011,-0.296406 3.486303,-0.395208 3.796824,-0.141146l-1.566719,0.395208c1.990157,0.494011 3.373386,-1.030365 5.744637,0.042344c0.832761,0.112917 2.413594,1.383229 2.597084,0.832761c-1.284427,-1.171511 -1.312657,-4.530782 -0.352865,-5.278855c0.296406,0.084688 4.333178,1.355 5.250626,1.961928c1.312657,0.945677 -2.21599,1.863125 -1.100938,2.681771c0.070573,-0.254063 0.86099,-0.52224 1.185625,-0.592813c0.86099,0.282292 -0.423438,0.776302 1.496146,0.804531c0.395208,-0.931563 3.881511,0.381094 0.959792,-0.748073c1.891355,-0.127031 1.976042,0.352865 4.163803,0.479896c-0.649271,-0.6775 2.145417,-1.961928 4.036772,-2.06073c-0.127031,0.239948 0.268177,0.592813 0.451667,0.748073c3.825053,0.409323 5.843439,1.01625 9.414429,1.340886c0.310521,0.268177 2.004271,0.705729 1.227969,1.044479c0.52224,-0.127031 1.030365,-0.395208 2.131303,-0.324635c2.046615,1.030365 -2.470053,-0.098802 -0.931563,1.044479c0.18349,-0.550469 2.907605,-0.494011 4.516668,-0.705729c-0.395208,-0.903334 -3.59922,-0.508125 -5.208282,-0.310521c0.098802,-1.185625 2.949949,-2.173646 6.732658,-2.371251c2.992292,-0.014115 1.213854,0.889219 1.750209,0.762188c5.547033,0.748073 4.95422,-1.594948 9.499117,-0.268177c1.764323,0.945677 -0.070573,1.510261 0.282292,2.103073c-2.441823,0.042344 -3.655678,-0.86099 -5.29297,-1.002136l1.976042,0.564583c-0.790417,0.169375 -2.427709,0.197604 -3.274584,-0.112917c1.467917,0.846875 9.3862,1.072709 13.606462,2.187761c0.790417,-0.169375 2.131303,-0.282292 1.53849,-0.663386l-1.369115,-0.042344c-1.185625,-0.748073 2.653542,-0.550469 0.959792,-1.030365c1.863125,-0.225833 3.994428,-0.663386 6.520939,-0.042344l0.381094,0.917448c-0.028229,-0.254063 -1.623177,-0.691615 -2.371251,-0.52224c1.115052,-0.254063 3.796824,1.594948 5.095366,0.621042l-1.72198,-0.804531c1.87724,-0.211719 4.248491,-0.86099 6.49271,-0.310521c-0.931563,-0.973906 -0.536354,0.028229 -2.0325,-1.157396c1.256198,1.397344 -5.81521,-0.748073 -3.712136,0.818646c-1.524375,-1.340886 -2.808803,-0.804531 -4.869532,-2.0325c0.042344,0.296406 0.705729,0.621042 -1.185625,0.282292c-0.098802,0.070573 -0.310521,0.15526 -0.451667,0.197604c-0.056458,-0.014115 -0.070573,-0.028229 -0.127031,-0.042344c0.042344,0.014115 0.070573,0.028229 0.098802,0.042344c-0.084688,0.028229 -0.098802,0.042344 0.042344,0.014115c0.437552,0.169375 0.790417,0.366979 0.931563,0.536354c-1.01625,0.550469 -4.050886,0.18349 -5.123595,0.409323c-1.115052,-0.254063 0.508125,-0.268177 -0.070573,-0.649271l-1.594948,0.33875c-0.084688,-0.649271 -2.907605,-1.355 -0.18349,-1.453802l-2.39948,-0.268177c-1.383229,-0.494011 -3.316928,-0.832761 -4.544897,-0.691615c-1.115052,-0.254063 -2.935834,0.409323 -1.905469,0.014115l-3.810938,0.014115l-0.014115,-0.15526c-3.726251,-0.423438 -7.763023,0.324635 -11.926826,-1.213854c-1.270313,0.056458 -2.582969,0.141146 -4.671928,-0.225833l-0.366979,-0.578698c-1.623177,0.056458 -4.798959,-0.959792 -5.532918,-0.451667c-1.623177,-1.623177 -7.805366,-0.931563 -10.628284,-1.411459l-0.15526,0.705729c-1.947813,-0.197604 -3.839168,-0.127031 -6.280991,0l0.098802,0.635156c-2.131303,0.381094 -5.349428,-0.818646 -8.652242,-0.973906c0.239948,-0.225833 1.072709,-0.112917 1.665521,0.084688c-3.867397,-1.69375 -8.398179,0.536354 -11.926826,-0.719844c-0.903334,0.18349 -1.552605,0.056458 -2.173646,-0.141146c0.084688,0 0.15526,0 0.225833,-0.014115c-0.084688,-0.014115 -0.225833,-0.028229 -0.366979,-0.028229c-0.395208,-0.127031 -0.790417,-0.282292 -1.227969,-0.409323c0.366979,0.169375 0.719844,0.310521 1.030365,0.395208c-0.691615,-0.028229 -1.736094,0 -2.766459,0.112917l-0.395208,-0.705729c-0.084688,0 -0.15526,0 -0.239948,0.014115c-0.988021,-0.296406 -0.818646,0.282292 -0.310521,0.818646c-0.52224,0.084688 -1.002136,0.197604 -1.383229,0.33875c-0.762188,-1.143282 -2.710001,0.239948 -3.768595,-0.988021c-0.719844,0.536354 -5.180053,0.169375 -5.772866,1.355c-0.028229,-0.15526 -0.324635,-0.239948 0.225833,-0.225833c-1.129167,-0.18349 -2.272448,-0.366979 -3.316928,-0.070573l-0.451667,-0.889219l-2.540626,1.058594c-1.496146,-0.592813 -2.117188,-0.917448 -0.578698,-1.524375c-3.669793,0.875104 -2.964063,0.254063 -6.097501,1.171511l0.169375,-0.550469c-1.100938,-0.014115 -2.89349,0.691615 -3.542761,0.197604c-2.441823,-1.115052 -12.223232,-0.550469 -18.546567,-1.637292c1.19974,1.665521 -2.935834,-0.776302 -3.218126,0.494011c-0.366979,-0.395208 -1.242084,-0.621042 -0.211719,-0.945677c-3.246355,0.33875 -4.855418,-0.691615 -7.113752,0.352865c-0.366979,-0.395208 0.705729,-0.564583 0.381094,-0.790417c-0.268177,0.084688 -1.030365,0.324635 -1.369115,0.084688c-0.324635,-0.239948 0.479896,-0.324635 0.988021,-0.479896c-3.316928,0.014115 -3.655678,1.213854 -3.909741,2.328907c-1.665521,-0.550469 -2.512396,-0.494011 -3.726251,0.225833c-0.578698,-0.366979 -1.552605,-0.762188 0.508125,-0.875104c-1.157396,-0.056458 -7.071408,-0.550469 -7.184325,0.352865c-0.366979,-0.225833 -1.623177,-0.070573 -1.919584,0.042344c-2.597084,-0.056458 -2.822917,-0.141146 -5.377658,-0.056458l0.705729,0.141146c-1.002136,1.086823 -2.117188,0.239948 -4.163803,0.366979l0.056458,-0.112917c-4.714272,-0.790417 -2.0325,0.381094 -6.690314,-0.465781l0.254063,0.6775c-0.423438,1.467917 -4.121459,-0.804531 -6.817345,-0.211719l0.973906,0.366979c-1.467917,0.52224 -4.149688,-1.919584 -5.63172,-2.088959c-0.324635,-0.127031 0.508125,-0.211719 0.959792,-0.310521c-3.895626,-0.804531 -0.494011,0.889219 -3.373386,1.143282c-0.536354,-0.465781 0.663386,-1.227969 -1.284427,-1.284427c-0.973906,-0.395208 -5.603491,1.69375 -8.271148,0.846875c0.592813,0.352865 1.185625,0.705729 -0.15526,1.01625c-2.046615,0.18349 -5.589376,-1.242084 -7.410158,-0.028229c-0.268177,-0.098802 -0.366979,-0.18349 -0.381094,-0.282292c-1.566719,0.352865 -5.095366,0.621042 -6.012814,1.312657c-1.53849,-2.272448 -9.710836,1.53849 -9.767294,-0.621042l-4.827189,0.310521l0.112917,-0.225833c-3.091094,-0.014115 -4.163803,0.536354 -5.222397,1.129167c-0.719844,-0.112917 -0.211719,-0.33875 -0.15526,-0.451667c-4.530782,-0.18349 -4.968335,-0.070573 -8.694585,1.19974l-0.437552,-0.6775c-1.002136,0.479896 -6.577397,-0.762188 -10.952919,0.33875c0.042344,-0.084688 0.127031,-0.225833 0.465781,-0.352865c-4.911876,1.157396 -12.039742,-1.129167 -13.677034,1.53849l-3.23224,0.846875c4.248491,-0.084688 -0.550469,1.143282 1.227969,1.453802c-1.651407,0.254063 -4.361407,-0.437552 -2.328907,-0.733959l0.324635,0.098802c0.649271,-1.383229 -5.29297,-0.042344 -5.250626,-0.959792c-4.163803,0.366979 -8.299377,0.536354 -12.364378,0.6775c-4.065001,0.169375 -8.059429,0.366979 -11.969169,0.691615l1.002136,0.945677l-2.724115,0.197604c-0.733959,-0.169375 -1.030365,-0.719844 0.903334,-0.846875c-1.072709,-0.479896 -3.204011,0.790417 -3.246355,1.01625c-3.839168,-0.056458 1.369115,-1.340886 0.197604,-1.256198l-1.580834,0.225833l0.366979,0.084688c-1.242084,0.550469 -1.312657,0.988021 -3.655678,1.171511c-1.496146,-0.042344 -0.818646,-0.550469 -1.411459,-0.536354c0,-0.070573 -0.197604,-0.084688 -0.889219,0.070573l-3.429845,0.282292l1.453802,0.663386c-1.482032,0.564583 -3.218126,0.296406 -1.552605,1.044479c-2.470053,-1.157396 -12.830159,0.818646 -14.298076,0.592813c-2.06073,0.846875 -4.149688,1.086823 -6.760887,1.326771c0.663386,0.084688 1.157396,0.959792 -1.086823,1.115052c0.592813,-1.976042 -4.192032,-0.324635 -6.168074,-1.453802c1.72198,0.6775 -6.337449,1.01625 -3.641563,1.976042c-1.87724,0.098802 -0.197604,-0.691615 -1.679636,-0.945677c-4.347293,1.312657 -9.851981,0.804531 -15.314327,1.792553c-0.056458,0.254063 0.917448,0.508125 -0.211719,1.030365l-3.062865,-0.818646c-1.072709,0.282292 -0.790417,1.566719 -2.89349,0.988021c0.310521,0.169375 0.776302,0.423438 0.056458,0.606927c-10.92469,0.310521 -21.750578,4.234376 -32.985789,3.782709c1.552605,0.225833 0.578698,0.437552 -0.550469,0.649271c0.748073,-0.014115 0.084688,0.606927 0.282292,0.917448l-4.700157,-0.15526c-0.6775,1.058594 -4.869532,0.889219 -5.194168,1.849011l1.411459,-0.395208c-1.736094,1.355 3.07698,1.863125 3.020522,3.23224c1.947813,-1.53849 5.928126,0.804531 9.160367,-1.482032c0.818646,0.141146 -0.592813,0.536354 -0.127031,0.776302c0.790417,-0.719844 1.849011,-1.030365 3.881511,-1.072709l-0.197604,0.18349c5.575262,-1.01625 8.073544,-0.818646 14.410993,-1.425573l-0.564583,-0.592813c1.369115,-0.127031 1.679636,0.042344 2.343021,0.112917c1.397344,-1.242084 -3.810938,0.536354 -2.55474,-0.790417c1.990157,1.030365 9.555575,-1.369115 10.981148,-0.028229c2.088959,-0.296406 -0.719844,-0.6775 1.369115,-0.973906l0.606927,0.33875l0.451667,-0.606927c1.383229,-0.112917 2.145417,0.310521 2.244219,0.649271c-0.33875,0 -0.931563,0.239948 -1.284427,0.310521c1.834896,0.225833 4.968335,-0.889219 5.603491,-0.818646l-2.0325,0.028229c5.63172,-1.185625 12.660784,-1.524375 18.052556,-3.105209l-0.451667,-0.254063c4.135574,-1.143282 3.41573,-0.070573 8.002971,-0.903334l-0.15526,0.098802c0.889219,-0.423438 2.103073,-0.733959 3.373386,-0.846875c-1.129167,0.508125 2.286563,0.451667 0.804531,1.044479c4.488439,-1.171511 2.201876,-0.762188 5.081251,-2.286563l0.762188,0.437552c0.973906,-0.592813 1.030365,-0.86099 3.331042,-1.256198c-1.849011,0.649271 1.566719,0.635156 -0.494011,1.453802c4.968335,0.621042 7.071408,-1.919584 9.485002,-0.494011c2.074844,-1.679636 -4.27672,-0.352865 -3.062865,-0.790417c-1.100938,-0.352865 1.72198,-1.270313 3.26047,-1.284427c1.552605,-0.127031 2.822917,1.566719 6.718543,1.115052c-0.395208,0.028229 -0.409323,0.141146 -0.790417,0.18349c1.496146,0.211719 2.808803,-0.804531 4.657814,-0.366979c0.917448,-0.959792 2.328907,-0.169375 2.512396,-1.312657l-3.556876,0.592813c2.004271,-0.479896 3.782709,-1.961928 7.184325,-1.637292c-0.239948,0.254063 -1.19974,0.635156 -1.87724,0.86099c1.002136,0.239948 1.863125,-0.395208 2.907605,-0.15526c-0.18349,1.143282 -4.333178,0.649271 -6.422137,1.707865c1.086823,0.366979 4.036772,-1.185625 3.062865,0.112917c1.425573,-1.679636 3.853282,-0.169375 6.393908,-1.580834l-0.112917,0.6775c0.409323,-0.141146 1.242084,-0.536354 2.018386,-0.592813l-1.312657,1.002136c2.074844,-0.931563 4.177918,0.254063 6.196304,-0.33875c-4.290834,0.423438 -1.030365,-0.719844 -2.89349,-1.030365c5.222397,-1.383229 3.204011,1.482032 9.103908,0.663386c-0.790417,0.15526 -3.048751,-0.15526 -1.820782,-0.564583c1.143282,0.042344 2.653542,0.18349 3.373386,0.479896c3.923855,-0.451667 -0.663386,-0.635156 0.973906,-1.185625c1.411459,0.705729 1.905469,-0.494011 3.613334,-0.889219l0.070573,0.6775c4.516668,0.070573 1.072709,-1.510261 5.151824,-1.312657l-1.637292,1.072709l2.088959,-0.409323l-0.381094,0.804531c2.244219,-0.748073 2.978178,-0.635156 5.236512,-0.578698c-0.550469,-0.437552 0.211719,-1.256198 2.187761,-1.411459c1.383229,0.310521 -0.719844,0.691615 2.103073,0.409323c-0.606927,0.465781 -1.270313,1.044479 -2.540626,0.508125c-0.112917,0.225833 -0.592813,0.465781 -0.705729,0.691615c1.496146,0.366979 3.669793,-0.141146 4.686043,-0.211719c-0.395208,0 -0.86099,0 -1.115052,-0.084688l4.022657,-1.213854c0.663386,0.211719 0.169375,0.451667 -0.324635,0.691615c0.818646,-0.127031 1.369115,-0.479896 2.582969,-0.621042c-0.282292,0.578698 -0.169375,1.143282 -1.87724,1.510261l3.853282,-0.875104c0.268177,0.225833 2.0325,0.52224 1.53849,0.762188c2.173646,0.197604 5.222397,-1.369115 8.115887,-1.086823c0.141146,-0.112917 0.437552,-0.239948 1.044479,-0.352865c2.695886,-0.014115 5.10948,0.52224 8.257033,-0.409323l1.849011,0.889219c2.484167,-0.352865 -2.512396,-1.129167 1.637292,-1.69375c2.935834,-0.437552 1.143282,0.804531 2.187761,1.030365c1.439688,-0.564583 3.93797,-1.679636 6.676199,-0.988021c-1.002136,0.18349 -1.707865,0.056458 -2.540626,0.169375zm30.798028,-1.439688c-0.592813,0.15526 -1.778438,0.635156 -2.21599,0.239948c0.663386,-0.790417 1.19974,-0.437552 2.21599,-0.239948zm46.888657,-1.820782c-0.451667,0.211719 -1.129167,0.098802 -1.905469,-0.169375c0.550469,-0.056458 1.19974,-0.014115 1.905469,0.169375zm130.926906,2.780574c-0.028229,0.014115 -0.042344,0.014115 -0.070573,0.028229c-1.312657,-0.395208 -0.846875,-0.239948 0.070573,-0.028229zm2.724115,0.578698c0.282292,-0.070573 0.282292,-0.15526 0.169375,-0.268177c-0.211719,0.15526 -0.832761,0.098802 -1.53849,-0.014115c0.18349,0.197604 0.536354,0.352865 1.369115,0.282292zm-297.846008,-0.141146l0.550469,0.112917c-1.185625,0.324635 -0.875104,0.112917 -0.550469,-0.112917z" class="st1"/>
        <path stroke="null" id="svg_128" d="m538.216548,157.364317c-0.169375,-0.112917 -0.211719,-0.239948 -0.254063,-0.366979c-0.225833,0.112917 -0.239948,0.239948 0.254063,0.366979z" class="st1"/>
        <path stroke="null" id="svg_129" d="m446.739912,161.076453l-0.098802,0c-0.042344,0.042344 -0.070573,0.084688 -0.084688,0.127031l0.18349,-0.127031z" class="st1"/>
        <path stroke="null" id="svg_130" d="m633.899331,161.768068c-0.564583,-0.141146 -0.875104,-0.296406 -1.072709,-0.437552c-0.028229,0.169375 0.211719,0.324635 1.072709,0.437552z" class="st1"/>
        <path stroke="null" id="svg_131" d="m691.980855,160.342495l-1.792553,-0.028229c0.86099,0.056458 1.143282,0.239948 1.566719,0.409323c-0.014115,-0.15526 -0.33875,-0.423438 0.225833,-0.381094z" class="st1"/>
        <path stroke="null" id="svg_132" d="m706.801171,166.397653c0.268177,-0.056458 0.550469,0.056458 0.818646,0.014115l-0.028229,-0.324635c-1.115052,-0.112917 -1.919584,0.028229 -0.790417,0.310521z" class="st1"/>
        <path stroke="null" id="svg_133" d="m693.34997,162.798433c0.070573,0.578698 1.19974,0.52224 2.455938,0.564583c-0.070573,0 -0.141146,-0.014115 -0.211719,-0.028229c0.451667,-0.748073 -0.903334,-0.649271 -2.244219,-0.536354z" class="st1"/>
        <path stroke="null" id="svg_134" d="m696.088199,163.377131c0.381094,0.014115 0.776302,0.056458 1.143282,0.127031c0.18349,-0.310521 -0.451667,-0.127031 -1.143282,-0.127031z" class="st1"/>
        <path stroke="null" id="svg_135" d="m680.759758,159.876714c0.578698,0.211719 0.451667,-0.691615 0.762188,-0.423438c0.719844,-0.649271 -4.022657,0.451667 -0.762188,0.423438z" class="st1"/>
        <polygon stroke="null" id="svg_136" points="694.1262817382812,164.78858947753906 693.7733764648438,164.0264129638672 693.01123046875,164.52041625976562 " class="st1"/>
        <path stroke="null" id="svg_137" d="m684.429551,163.151298l1.961928,0.409323c-0.014115,-0.127031 0.239948,-0.169375 0.550469,-0.18349c-1.213854,-0.141146 -2.540626,-0.437552 -2.512396,-0.225833z" class="st1"/>
        <path stroke="null" id="svg_138" d="m686.941947,163.391246c0.635156,0.084688 1.242084,0.141146 1.609063,0.056458c-0.352865,-0.028229 -1.086823,-0.084688 -1.609063,-0.056458z" class="st1"/>
        <polygon stroke="null" id="svg_139" points="691.402099609375,164.6756591796875 690.8375854492188,164.46395874023438 689.4544067382812,164.2522430419922 " class="st1"/>
        <path stroke="null" id="svg_140" d="m663.172983,160.822391l-2.173646,0c-0.239948,0.225833 0.33875,0.423438 1.143282,0.409323c0.536354,-0.127031 1.340886,-0.15526 1.030365,-0.409323z" class="st1"/>
        <path stroke="null" id="svg_141" d="m669.510433,163.391246c-0.564583,-0.211719 -0.592813,-0.366979 -0.903334,-0.635156l-0.15526,0.86099l1.058594,-0.225833z" class="st1"/>
        <path stroke="null" id="svg_142" d="m663.201213,162.967808c-0.239948,0.225833 -3.204011,0.395208 -0.451667,0.606927c0.239948,-0.225833 2.413594,-0.211719 0.451667,-0.606927z" class="st1"/>
        <polygon stroke="null" id="svg_143" points="630.7376708984375,159.1145477294922 631.2881469726562,159.1427459716797 631.3163452148438,157.70306396484375 " class="st1"/>
        <path stroke="null" id="svg_144" d="m601.802761,160.737703c2.540626,0.479896 0.649271,-0.86099 2.949949,-0.310521c0.621042,-0.310521 -1.87724,-0.451667 -1.242084,-0.705729c-1.566719,0.282292 -2.357136,0.042344 -1.707865,1.01625z" class="st1"/>
        <path stroke="null" id="svg_145" d="m603.510626,159.721453c0.254063,-0.042344 0.52224,-0.098802 0.804531,-0.18349c-0.451667,0.070573 -0.663386,0.127031 -0.804531,0.18349z" class="st1"/>
        <polygon stroke="null" id="svg_146" points="279.0445251464844,172.69276428222656 277.3648681640625,172.67864990234375 278.4940185546875,172.9750518798828 " class="st1"/>
        <path stroke="null" id="svg_147" d="m276.094559,174.273592l-0.536354,-0.832761l-0.832761,0.988021c0.352865,-0.112917 1.044479,-0.310521 1.369115,-0.15526z" class="st1"/>
        <path stroke="null" id="svg_148" d="m501.278674,160.116662l0.127031,-0.225833c-0.254063,-0.239948 -0.649271,-0.254063 -1.425573,-0.268177l1.298542,0.494011z" class="st1"/>
        <polygon stroke="null" id="svg_149" points="478.9211120605469,159.97552490234375 479.3022766113281,159.98963928222656 478.55419921875,159.18508911132812 " class="st1"/>
        <path stroke="null" id="svg_150" d="m460.219342,161.782183c0.762188,0 1.651407,-0.211719 2.427709,-0.211719c-1.665521,0.225833 -2.681771,-0.804531 -2.427709,0.211719z" class="st1"/>
       </g>
      </g>
     </g>
    </g>
   </g>
  </g>
 </g>
</svg>