<?xml version="1.0" encoding="utf-8"?>
<!-- Generator: Adobe Illustrator 24.0.0, SVG Export Plug-In . SVG Version: 6.00 Build 0)  -->
<svg version="1.1" id="Capa_1" xmlns="http://www.w3.org/2000/svg" xmlns:xlink="http://www.w3.org/1999/xlink" x="0px" y="0px"
	 viewBox="0 0 186.35 218.47" style="enable-background:new 0 0 186.35 218.47;" xml:space="preserve">
<style type="text/css">
	.st0{fill:#E30613;}
	.st1{fill:none;}
	.st2{fill:#FFFFFF;}
	.st3{fill:#878787;}
	.st4{fill:#666666;}
	.st5{fill:#FFDC00;}
	.st6{fill:#005CA9;}
</style>
<path d="M168.21,146.24L64.69,181.71c-1.85,0.66-3.73,0.12-4.2-1.2l-1.94-5.45c-0.47-1.32,0.64-2.93,2.49-3.59l102.17-39.28
	c1.85-0.66,3.73-0.12,4.2,1.2l3.31,9.25C171.17,143.97,170.06,145.58,168.21,146.24z"/>
<path d="M48.19,147.77c-1.29-0.79-2.46-1.51-3.7-2.26c0.54-0.47,1.12-0.97,1.77-1.53c1.23,0.51,2.41,0.99,3.6,1.49
	c3.7,1.54,7.39,3.09,11.09,4.63c0.35,0.14,0.75,0.27,1.15,0.34c19.88,3.78,39.76,7.56,59.64,11.33c2.13,0.4,4.25,0.82,6.4,1.2
	c1.24,0.22,2.02,0.68,2.45,1.37c0.79,1.28,0.72,2.6,0.36,3.92c-0.71,2.56-2.25,4.93-5.28,6.89c-0.49,0.32-1.1,0.59-1.71,0.83
	c-1.01,0.41-2.11,0.46-3.29,0.23c-6.71-1.29-13.42-2.56-20.14-3.83c-0.58-0.11-1.21-0.17-1.82-0.17c-6.55,0.02-13.1,0.06-19.65,0.09
	c-0.34,0-0.68,0-1.04,0c0-0.61-0.03-1.2,0.03-1.79c0.01-0.1,0.4-0.25,0.65-0.27c1.93-0.2,3.87-0.37,5.81-0.55
	c0.3-0.03,0.6-0.07,1.18-0.14c-2.42-0.46-4.58-0.87-6.74-1.28c-21.8-4.14-43.6-8.29-65.42-12.42c-1.69-0.32-2.59-0.93-2.99-1.88
	c-0.69-1.67-0.32-3.31,0.4-4.94c0.86-1.93,2.2-3.73,4.49-5.25c0.55-0.36,1.21-0.68,1.88-0.97c1.05-0.45,2.18-0.51,3.45-0.27
	c8.9,1.71,17.81,3.39,26.71,5.08C47.64,147.68,47.85,147.71,48.19,147.77z"/>
<path class="st0" d="M150.84,84.08l0.07-5.89L27.94,76.82l-0.07,5.89l-15.9-5.09l-0.13,11.54l15.89,5.82l-0.37,33.38
	c-0.13,11.93,9.43,21.71,21.36,21.84l79.77,0.89c11.93,0.13,21.71-9.43,21.84-21.36l0.37-33.38l16.02-5.47l0.13-11.54L150.84,84.08z
	"/>
<g>
	<g>
		<path d="M78.77,51.24l20.73-0.79c2.4-0.09,4.28-2.11,4.19-4.52l-0.19-5.03c-0.09-2.4-2.11-4.28-4.52-4.19L78.25,37.5
			c-2.4,0.09-4.28,2.11-4.19,4.52l0.19,5.03C74.34,49.46,76.37,51.33,78.77,51.24z"/>
		<path d="M89.83,53.03c-33.6,1.27-60.54,9.94-60.18,19.35l121.66-4.61C150.95,58.36,123.43,51.76,89.83,53.03z"/>
	</g>
</g>
<g>
	<path class="st1" d="M19.52,67.83"/>
</g>
<path class="st2" d="M101.08,160.27c0.89-0.45,1.81-0.88,2.67-1.36c2.21-1.24,3.86-2.76,4.31-4.81c0.34-1.54-0.08-3.02-0.84-4.46
	c-1.44-2.72-3.78-5.07-5.99-7.47c-2.02-2.19-4.06-4.37-5.91-6.63c-1.5-1.83-2.52-3.82-2.37-6.01c0.05-0.66,0.28-1.31,0.43-2.01
	c-1.76,1.07-3.24,2.28-4.47,3.64c-3.32,3.66-4.53,7.72-4.28,12.01c0.13,2.19,0.6,4.37,0.91,6.46c-1.48-1.35-3.78-2.07-6.05-2.83
	c-2.05-0.7-3.78-1.68-4.74-3.24c-0.07,0.02-0.13,0.04-0.2,0.06c0.06,0.81,0.09,1.63,0.19,2.43c0.42,3.14,1.36,6.19,3.43,9.01
	c2.09,2.84,5.09,4.98,9.32,6.16c0.09,0.02,0.18,0.05,0.42,0.13c-6.78,0.32-12.89-0.66-18.06-3.7c-7.45-4.38-11.23-10.06-10.8-16.99
	c0.23-3.75,1.93-7.27,4.29-10.6c1.8-2.55,3.76-5.04,5.55-7.59c1.95-2.79,3.23-5.73,3.57-8.86c0.02-0.17,0.07-0.35,0.13-0.65
	c0.93,1.36,1.58,2.66,1.76,4.02c0.27,1.98,0.37,3.97,0.42,5.96c0.05,1.81-0.3,3.63,0.29,5.42c0.29,0.88,0.85,1.65,1.96,2.28
	c0.02-0.13,0.05-0.2,0.03-0.26c-0.61-2.87,0.54-5.51,2.17-8.07c2.15-3.37,5.02-6.43,7.74-9.56c2.88-3.31,5.74-6.64,7.69-10.31
	c1.19-2.24,1.99-4.55,2.07-6.96c0-0.05,0.04-0.1,0.29-0.24c1.01,1.2,2.12,2.37,3.01,3.62c2.05,2.86,2.94,5.96,2.8,9.15
	c-0.12,2.77-0.5,5.55-0.88,8.31c-0.5,3.54-1.07,7.06-0.26,10.61c0.94,4.06,3.64,7.44,7.67,10.32c0.05,0.04,0.14,0.05,0.22,0.08
	c-1.85-7.84,1.18-11.03,7.55-14.94c-0.3,0.71-0.6,1.32-0.83,1.96c-0.95,2.61-0.4,5.13,1.06,7.56c0.78,1.3,1.61,2.59,2.46,3.88
	c2.03,3.07,2.74,6.24,1.64,9.6c-1.1,3.36-2.76,6.52-5.96,9.18c-3.44,2.84-7.87,4.51-12.85,5.53c-0.5,0.1-1,0.19-1.5,0.28
	C101.11,160.33,101.09,160.3,101.08,160.27z"/>
<path class="st3" d="M176.52,40.46c-2.61-2.25-6.01,0-6.01,0l-16.4,19.96v1.59l-13.02,15.34h3.63l11.89-12.43L159.3,64l17.21-16.26
	C176.52,47.73,179.9,43.37,176.52,40.46z M174.01,45.42c-0.93,0-1.69-0.8-1.69-1.78c0-0.99,0.76-1.78,1.69-1.78s1.69,0.8,1.69,1.78
	C175.7,44.62,174.95,45.42,174.01,45.42z"/>
<g>
	<polygon class="st4" points="160.83,52.54 166.33,57.4 166.42,57.32 160.91,52.44 	"/>
	<polygon class="st5" points="155.02,59.61 155.02,59.65 159.34,63.48 160.21,63.18 166.33,57.4 160.83,52.54 	"/>
	<polygon class="st6" points="164.45,48.12 160.91,52.44 166.42,57.32 170.49,53.47 	"/>
	<polygon class="st0" points="170.49,53.47 174.57,49.62 168,43.81 164.45,48.12 	"/>
</g>
</svg>
