<?xml version="1.0" encoding="utf-8"?>
<!-- Generator: Adobe Illustrator 24.0.0, SVG Export Plug-In . SVG Version: 6.00 Build 0)  -->
<svg version="1.1" id="Capa_1" xmlns="http://www.w3.org/2000/svg" xmlns:xlink="http://www.w3.org/1999/xlink" x="0px" y="0px"
	 viewBox="0 0 792 218.47" style="enable-background:new 0 0 792 218.47;" xml:space="preserve">
<style type="text/css">
	.st0{fill:#FFFFFF;}
	.st1{fill:#E30613;}
	.st2{fill:none;}
	.st3{fill:#878787;}
	.st4{fill:#666666;}
	.st5{fill:#FFDC00;}
	.st6{fill:#005CA9;}
	.st7{fill:#525251;}
</style>
<path class="st0" d="M281.68,146.24l-103.53,35.47c-1.85,0.66-3.73,0.12-4.2-1.2l-1.94-5.45c-0.47-1.32,0.64-2.93,2.49-3.59
	l102.17-39.28c1.85-0.66,3.73-0.12,4.2,1.2l3.31,9.25C284.64,143.97,283.53,145.58,281.68,146.24z"/>
<path class="st0" d="M161.66,147.77c-1.29-0.79-2.46-1.51-3.7-2.26c0.54-0.47,1.12-0.97,1.77-1.53c1.23,0.51,2.41,0.99,3.6,1.49
	c3.7,1.54,7.39,3.09,11.09,4.63c0.35,0.14,0.75,0.27,1.15,0.34c19.88,3.78,39.76,7.56,59.64,11.33c2.13,0.4,4.25,0.82,6.4,1.2
	c1.24,0.22,2.02,0.68,2.45,1.37c0.79,1.28,0.72,2.6,0.36,3.92c-0.71,2.56-2.25,4.93-5.28,6.89c-0.49,0.32-1.1,0.59-1.71,0.83
	c-1.01,0.41-2.11,0.46-3.29,0.23c-6.71-1.29-13.42-2.56-20.14-3.83c-0.58-0.11-1.21-0.17-1.82-0.17c-6.55,0.02-13.1,0.06-19.65,0.09
	c-0.34,0-0.68,0-1.04,0c0-0.61-0.03-1.2,0.03-1.79c0.01-0.1,0.4-0.25,0.65-0.27c1.93-0.2,3.87-0.37,5.81-0.55
	c0.3-0.03,0.6-0.07,1.18-0.14c-2.42-0.46-4.58-0.87-6.74-1.28c-21.8-4.14-43.6-8.29-65.42-12.42c-1.69-0.32-2.59-0.93-2.99-1.88
	c-0.69-1.67-0.32-3.31,0.4-4.94c0.86-1.93,2.2-3.73,4.49-5.25c0.55-0.36,1.21-0.68,1.88-0.97c1.05-0.45,2.18-0.51,3.45-0.27
	c8.9,1.71,17.81,3.39,26.71,5.08C161.11,147.68,161.32,147.71,161.66,147.77z"/>
<g>
	<path class="st0" d="M361.3,91.62c0,2.88-1.09,5.65-3.28,8.3c-2.36,2.88-5.16,4.32-8.39,4.32h-5.53v27.58h-7V69.75h12.54
		c3.29,0,6.11,1.41,8.47,4.24c2.13,2.54,3.2,5.27,3.2,8.21V91.62z M354.29,90.5v-7.09c0-1.9-0.53-3.49-1.6-4.75
		c-1.07-1.27-2.58-1.9-4.54-1.9h-4.06v20.49h4.06c1.61,0,3.04-0.68,4.28-2.03C353.67,93.86,354.29,92.29,354.29,90.5z"/>
	<path class="st0" d="M386.37,131.82h-4.67l-1.56-2.68c-1.85,1.79-3.8,2.68-5.88,2.68c-3.34,0-6.2-1.18-8.56-3.54
		c-2.36-2.36-3.54-5.22-3.54-8.56c0-3.8,1.47-7.12,4.41-9.94c0.75-0.69,3.51-2.65,8.3-5.88c3-2.02,4.5-3.92,4.5-5.71v-2.68
		c0-1.38-0.5-2.58-1.51-3.59c-1.01-1.01-2.2-1.51-3.59-1.51c-2.48,0-4.09,1.15-4.84,3.46l-5.88-3.03c0.52-2.36,1.76-4.19,3.72-5.49
		c1.96-1.3,4.29-1.95,7-1.95c3.34,0,6.19,1.18,8.56,3.54c2.36,2.36,3.54,5.22,3.54,8.56V131.82z M379.36,119.72v-12.54
		c0,1.27-0.85,2.51-2.55,3.72c-1.7,1.21-3.39,2.39-5.06,3.54c-1.73,1.56-2.59,3.31-2.59,5.27c0,1.44,0.49,2.65,1.47,3.63
		c0.98,0.98,2.19,1.47,3.63,1.47c1.38,0,2.58-0.49,3.59-1.47C378.86,122.37,379.36,121.16,379.36,119.72z"/>
	<path class="st0" d="M416.45,119.72c0,3.34-1.18,6.2-3.54,8.56c-2.36,2.36-5.22,3.54-8.56,3.54c-3.34,0-6.2-1.18-8.56-3.54
		c-2.36-2.36-3.54-5.22-3.54-8.56v-3.37l7,1.56v1.82c0,1.44,0.49,2.65,1.47,3.63c0.98,0.98,2.19,1.47,3.63,1.47
		c1.38,0,2.58-0.49,3.59-1.47c1.01-0.98,1.51-2.19,1.51-3.63c0-2.77-1.5-5.33-4.5-7.69c-2.77-2.13-5.53-4.24-8.3-6.31
		c-2.94-2.94-4.41-6.54-4.41-10.81c0-3.34,1.18-6.2,3.54-8.56c2.36-2.36,5.22-3.54,8.56-3.54c3.34,0,6.19,1.18,8.56,3.54
		c2.36,2.36,3.54,5.22,3.54,8.56v3.37l-7-1.56v-1.82c0-1.44-0.5-2.65-1.51-3.63c-1.01-0.98-2.2-1.47-3.59-1.47
		c-1.44,0-2.65,0.49-3.63,1.47c-0.98,0.98-1.47,2.19-1.47,3.63c0,2.88,1.47,5.56,4.41,8.04c2.77,2.19,5.53,4.35,8.3,6.48
		C414.95,112.37,416.45,115.8,416.45,119.72z"/>
	<path class="st0" d="M446.53,119.72c0,3.34-1.18,6.2-3.54,8.56c-2.36,2.36-5.22,3.54-8.56,3.54c-3.34,0-6.2-1.18-8.56-3.54
		c-2.36-2.36-3.54-5.22-3.54-8.56V95.51c0-3.34,1.18-6.19,3.54-8.56c2.36-2.36,5.22-3.54,8.56-3.54c3.34,0,6.19,1.18,8.56,3.54
		c2.36,2.36,3.54,5.22,3.54,8.56c0,3.98-0.53,6.99-1.6,9.03c-1.07,2.05-2.95,3.99-5.66,5.83c-3.34,2.13-6.66,4.27-9.94,6.4v2.94
		c0,1.44,0.49,2.65,1.47,3.63c0.98,0.98,2.19,1.47,3.63,1.47c1.38,0,2.58-0.49,3.59-1.47c1.01-0.98,1.51-2.19,1.51-3.63v-0.78
		l7-2.33V119.72z M439.53,95.51c0-1.38-0.5-2.58-1.51-3.59c-1.01-1.01-2.2-1.51-3.59-1.51c-1.44,0-2.65,0.51-3.63,1.51
		c-0.98,1.01-1.47,2.21-1.47,3.59v13.23c4.15-2.36,6.8-4.21,7.95-5.53C438.78,101.48,439.53,98.92,439.53,95.51z"/>
	<path class="st0" d="M476.62,119.72c0,3.34-1.18,6.2-3.54,8.56c-2.36,2.36-5.22,3.54-8.56,3.54c-3.34,0-6.2-1.18-8.56-3.54
		c-2.36-2.36-3.54-5.22-3.54-8.56V95.51c0-3.34,1.18-6.19,3.54-8.56c2.36-2.36,5.22-3.54,8.56-3.54c3.34,0,6.19,1.18,8.56,3.54
		c2.36,2.36,3.54,5.22,3.54,8.56V119.72z M469.62,119.72V95.51c0-1.38-0.5-2.58-1.51-3.59c-1.01-1.01-2.2-1.51-3.59-1.51
		c-1.44,0-2.65,0.51-3.63,1.51c-0.98,1.01-1.47,2.21-1.47,3.59v24.21c0,1.44,0.49,2.65,1.47,3.63c0.98,0.98,2.19,1.47,3.63,1.47
		c1.38,0,2.58-0.49,3.59-1.47C469.11,122.37,469.62,121.16,469.62,119.72z"/>
</g>
<g>
	<path class="st1" d="M523.34,75.07c-0.29,0.48-0.48,0.97-0.48,1.45c0,1.06-0.39,2.12-0.87,3.09c-0.77,1.93-1.93,4.06-2.41,6.08
		c-0.39,1.45-1.06,2.7-1.16,4.25c-0.39,3.19-1.45,6.18-2.13,9.27c-0.48,2.41-1.06,4.73-1.16,7.14c-0.1,1.64-0.48,3.28-0.19,4.92
		c0,0.29,0,0.48-0.1,0.77c-0.58,2.32-0.19,4.63-0.19,6.95c0.19,3.28,0.39,6.47,0.58,9.75c0,0.97,0.48,2.03,0.39,3.09
		c0,0.58,0.1,0.87,0.48,1.45c0.19,0.29-0.29,0.77-0.19,1.06c0.39,0.68,0.1,0.97-0.48,1.16c-0.87,0.1-1.54-0.1-2.22-0.68
		c-1.35-1.16-2.32-2.61-2.51-4.44c-0.29-2.51-0.68-4.92-0.87-7.43c-0.29-3.57-0.39-7.05-0.58-10.62c0-0.68,0-1.35,0-2.13
		c0-0.1-0.1-0.19-0.19-0.29s-0.19,0.1-0.29,0.1c-0.1,0.1-0.1,0.19-0.19,0.19c-0.58,1.16-1.16,2.32-1.74,3.48
		c-0.87,1.64-1.74,3.28-2.61,4.92c-0.29,0.39-0.48,0.77-0.68,1.16c-0.48,0.87-0.97,1.54-1.74,2.12c-0.77,0.48-1.35,1.16-1.93,1.74
		c-1.06,1.16-2.03,1.35-3.19,0.39c-3.96-3.28-5.31-9.85-3.96-14.87c1.16-4.25,3.38-8.3,5.89-11.88c0.58-0.77,1.45-1.25,2.03-2.03
		c0-0.1,0.19-0.1,0.29-0.1c1.26-0.19,2.61-0.39,3.86-0.39c0.77,0,1.54,0.39,2.03,1.06c0.1,0.1,0.19,0.19,0.29,0.29
		c1.16,0.58,1.26,1.64,1.26,2.9c0.1,0.77,0.29,1.45,0.48,2.22c0.1,0.1,0.29,0.19,0.39,0.29c0.1-0.1,0.19-0.19,0.19-0.39
		c0.19-0.39,0.29-0.87,0.48-1.25c1.06-2.22,1.25-4.73,1.93-7.05c0.77-2.8,1.64-5.5,2.41-8.3c0.48-1.45,1.16-3.38,1.64-4.92
		c0.39-0.97,0.77-1.83,1.16-2.8c0.77-1.93,2.22-3.28,2.9-5.21c0.39-0.77,0.96-1.16,1.64-1.25c0.39-0.1,0.87-0.1,0.96,0.58
		c0,0.48,0.39,0.58,0.77,0.58c0.39,0.1,0.58,0.29,0.48,0.77C523.82,73.23,523.82,74.2,523.34,75.07z M505.67,98.24
		c-0.29-1.64-2.03-2.12-3.09-0.97c-0.58,0.68-1.16,1.35-1.64,2.12c-0.39,0.58-0.96,1.16-1.06,1.83c-0.19,1.64-0.39,2.9-0.87,4.73
		c-0.19,0.87-0.48,1.25-0.68,2.12c-0.29,1.35-0.39,2.12-0.48,3.57c-0.1,2.32,0.19,4.05,0.29,5.89c0,0.39,0.87,0,0.97-0.1
		c0.19-0.19,0.29-0.29,0.39-0.48c0.97-1.35,1.93-2.61,2.8-3.96c0.96-1.26,2.12-2.12,2.7-3.86c0.1-0.39,0.1-0.58,0.19-0.87
		c0.29-0.77,0.77-1.06,1.06-1.93c0.39-1.16,0.19-1.93,0.1-2.99C506.25,101.62,505.96,99.88,505.67,98.24z"/>
	<path class="st1" d="M543.13,106.64c-0.87,2.12-3.86,5.12-5.12,6.95c-1.35,2.03-5.31,6.66-6.86,8.5c-1.16,1.35-2.8,2.03-4.54,1.83
		c-1.26-0.1-2.61-0.29-3.86-1.16c-1.83-1.45-3.19-3.19-3.28-5.6c-0.1-0.77-0.19-1.64-0.19-2.41c0.1-2.51,0.48-5.02,1.25-7.44
		c0.68-1.93,1.26-3.86,2.03-5.7c1.25-2.9,2.8-5.6,5.02-7.92c0.58-0.58,1.16-0.97,2.03-0.97c0.68,0,1.25,0,1.83-0.1
		c1.45-0.19,2.51,0.58,3.38,1.74c0.48,0.68,0.97,1.25,1.35,2.03c0.19,0.29,0.29,0.77,0.19,1.06c-0.48,1.83-0.87,3.67-1.74,5.31
		s-2.03,2.9-3.28,4.15c-1.35,1.16-2.51,2.51-4.15,3.48c-0.39,0.19-0.68,0.77-1.06,1.16c-0.19,0.1-0.29,0.39-0.48,0.39
		c-0.87,0.19-1.06,0.97-1.16,1.74c-0.19,1.93-0.48,3.77,0.19,5.79c0.29,0.77,0.58,1.06,1.35,0.68c1.16-0.48,2.22-1.06,3.38-1.64v0.1
		v-0.1c1.74-1.45,6.18-5.7,7.72-7.34c0.87-0.97,3.28-2.9,3.96-3.86c0.39-0.58,0.97-1.16,1.64-1.25c0.19,0,0.39,0.1,0.48,0.29
		C543.23,106.45,543.23,106.55,543.13,106.64z M533.28,95.63c-0.1-0.29-0.39-0.39-0.58-0.68c-0.48-0.68-0.87-0.77-1.45-0.19
		c-0.29,0.39-0.48,0.87-0.77,1.26c-0.19,0.39-0.29,0.87-0.48,1.25c-0.48,0.97-0.87,1.93-1.16,2.99c-0.29,1.26-0.87,2.41-1.74,3.38
		c-0.48,0.68-0.68,1.45-0.87,1.93c0,0.97,0.19,1.16,0.87,0.77c1.64-0.96,2.99-2.32,4.15-3.86c1.16-1.74,1.64-3.77,2.32-5.6
		C533.67,96.5,533.48,96.02,533.28,95.63z"/>
</g>
<g>
	<path class="st0" d="M573.42,119.72c0,3.34-1.18,6.2-3.54,8.56c-2.36,2.36-5.22,3.54-8.56,3.54c-3.34,0-6.2-1.18-8.56-3.54
		c-2.36-2.36-3.54-5.22-3.54-8.56V95.51c0-3.34,1.18-6.19,3.54-8.56c2.36-2.36,5.22-3.54,8.56-3.54c3.34,0,6.19,1.18,8.56,3.54
		c2.36,2.36,3.54,5.22,3.54,8.56V119.72z M566.42,119.72V95.51c0-1.38-0.5-2.58-1.51-3.59c-1.01-1.01-2.2-1.51-3.59-1.51
		c-1.44,0-2.65,0.51-3.63,1.51c-0.98,1.01-1.47,2.21-1.47,3.59v24.21c0,1.44,0.49,2.65,1.47,3.63c0.98,0.98,2.19,1.47,3.63,1.47
		c1.38,0,2.58-0.49,3.59-1.47C565.92,122.37,566.42,121.16,566.42,119.72z"/>
	<path class="st0" d="M586.31,131.82h-7V72.09l7-2.33V131.82z"/>
	<path class="st0" d="M598.49,131.82h-7V72.09l7-2.33V131.82z"/>
	<path class="st0" d="M627.89,131.82h-4.67l-1.56-2.68c-1.85,1.79-3.8,2.68-5.88,2.68c-3.34,0-6.2-1.18-8.56-3.54
		c-2.36-2.36-3.54-5.22-3.54-8.56c0-3.8,1.47-7.12,4.41-9.94c0.75-0.69,3.51-2.65,8.3-5.88c3-2.02,4.5-3.92,4.5-5.71v-2.68
		c0-1.38-0.5-2.58-1.51-3.59c-1.01-1.01-2.2-1.51-3.59-1.51c-2.48,0-4.09,1.15-4.84,3.46l-5.88-3.03c0.52-2.36,1.76-4.19,3.72-5.49
		c1.96-1.3,4.29-1.95,7-1.95c3.34,0,6.19,1.18,8.56,3.54c2.36,2.36,3.54,5.22,3.54,8.56V131.82z M620.88,119.72v-12.54
		c0,1.27-0.85,2.51-2.55,3.72c-1.7,1.21-3.39,2.39-5.06,3.54c-1.73,1.56-2.59,3.31-2.59,5.27c0,1.44,0.49,2.65,1.47,3.63
		c0.98,0.98,2.19,1.47,3.63,1.47c1.38,0,2.58-0.49,3.59-1.47C620.38,122.37,620.88,121.16,620.88,119.72z"/>
</g>
<path class="st1" d="M264.31,84.08l0.07-5.89l-122.97-1.37l-0.07,5.89l-15.9-5.09l-0.13,11.54l15.89,5.82l-0.37,33.38
	c-0.13,11.93,9.43,21.71,21.36,21.84l79.77,0.89c11.93,0.13,21.71-9.43,21.84-21.36l0.37-33.38l16.02-5.47l0.13-11.54L264.31,84.08z
	"/>
<g>
	<g>
		<path class="st0" d="M192.24,51.24l20.73-0.79c2.4-0.09,4.28-2.11,4.19-4.52l-0.19-5.03c-0.09-2.4-2.11-4.28-4.52-4.19
			l-20.73,0.79c-2.4,0.09-4.28,2.11-4.19,4.52l0.19,5.03C187.82,49.46,189.84,51.33,192.24,51.24z"/>
		<path class="st0" d="M203.3,53.03c-33.6,1.27-60.54,9.94-60.18,19.35l121.66-4.61C264.42,58.36,236.9,51.76,203.3,53.03z"/>
	</g>
</g>
<path d="M214.55,160.27c0.89-0.45,1.81-0.88,2.67-1.36c2.21-1.24,3.86-2.76,4.31-4.81c0.34-1.54-0.08-3.02-0.84-4.46
	c-1.44-2.72-3.78-5.07-5.99-7.47c-2.02-2.19-4.06-4.37-5.91-6.63c-1.5-1.83-2.52-3.82-2.37-6.01c0.05-0.66,0.28-1.31,0.43-2.01
	c-1.76,1.07-3.24,2.28-4.47,3.64c-3.32,3.66-4.53,7.72-4.28,12.01c0.13,2.19,0.6,4.37,0.91,6.46c-1.48-1.35-3.78-2.07-6.05-2.83
	c-2.05-0.7-3.78-1.68-4.74-3.24c-0.07,0.02-0.13,0.04-0.2,0.06c0.06,0.81,0.09,1.63,0.19,2.43c0.42,3.14,1.36,6.19,3.43,9.01
	c2.09,2.84,5.09,4.98,9.32,6.16c0.09,0.02,0.18,0.05,0.42,0.13c-6.78,0.32-12.89-0.66-18.06-3.7c-7.45-4.38-11.23-10.06-10.8-16.99
	c0.23-3.75,1.93-7.27,4.29-10.6c1.8-2.55,3.76-5.04,5.55-7.59c1.95-2.79,3.23-5.73,3.57-8.86c0.02-0.17,0.07-0.35,0.13-0.65
	c0.93,1.36,1.58,2.66,1.76,4.02c0.27,1.98,0.37,3.97,0.42,5.96c0.05,1.81-0.3,3.63,0.29,5.42c0.29,0.88,0.85,1.65,1.96,2.28
	c0.02-0.13,0.05-0.2,0.03-0.26c-0.61-2.87,0.54-5.51,2.17-8.07c2.15-3.37,5.02-6.43,7.74-9.56c2.88-3.31,5.74-6.64,7.69-10.31
	c1.19-2.24,1.99-4.55,2.07-6.96c0-0.05,0.04-0.1,0.29-0.24c1.01,1.2,2.12,2.37,3.01,3.62c2.05,2.86,2.94,5.96,2.8,9.15
	c-0.12,2.77-0.5,5.55-0.88,8.31c-0.5,3.54-1.07,7.06-0.26,10.61c0.94,4.06,3.64,7.44,7.67,10.32c0.05,0.04,0.14,0.05,0.22,0.08
	c-1.85-7.84,1.18-11.03,7.55-14.94c-0.3,0.71-0.6,1.32-0.83,1.96c-0.95,2.61-0.4,5.13,1.06,7.56c0.78,1.3,1.61,2.59,2.46,3.88
	c2.03,3.07,2.74,6.24,1.64,9.6c-1.1,3.36-2.76,6.52-5.96,9.18c-3.44,2.84-7.87,4.51-12.85,5.53c-0.5,0.1-1,0.19-1.5,0.28
	C214.58,160.33,214.57,160.3,214.55,160.27z"/>
<path class="st3" d="M289.99,40.46c-2.61-2.25-6.01,0-6.01,0l-16.4,19.96v1.59l-13.02,15.34h3.63l11.89-12.43l2.69-0.93l17.21-16.26
	C289.99,47.73,293.37,43.37,289.99,40.46z M287.48,45.42c-0.93,0-1.69-0.8-1.69-1.78c0-0.99,0.76-1.78,1.69-1.78s1.69,0.8,1.69,1.78
	C289.17,44.62,288.42,45.42,287.48,45.42z"/>
<g>
	<polygon class="st4" points="274.3,52.54 279.8,57.4 279.89,57.32 274.38,52.44 	"/>
	<polygon class="st5" points="268.49,59.61 268.49,59.65 272.81,63.48 273.68,63.18 279.8,57.4 274.3,52.54 	"/>
	<polygon class="st6" points="277.92,48.12 274.38,52.44 279.89,57.32 283.96,53.47 	"/>
	<polygon class="st1" points="283.96,53.47 288.04,49.62 281.47,43.81 277.92,48.12 	"/>
</g>
<g>
	<path class="st0" d="M317.07,167.39c1.41,0,2.55,0.42,3.42,1.25c0.86,0.83,1.3,1.92,1.3,3.26c0,1.35-0.43,2.43-1.28,3.24
		c-0.85,0.81-2,1.22-3.44,1.22h-3.84v-8.97H317.07z M317.07,168.42h-2.73v6.9h2.73c1.1,0,1.97-0.31,2.61-0.93
		c0.63-0.62,0.95-1.46,0.95-2.51c0-1.04-0.32-1.88-0.97-2.51S318.15,168.42,317.07,168.42z"/>
	<path class="st0" d="M322.09,176.36l4.39-8.97h0.93l4.44,8.97h-1.21l-1.22-2.41h-4.95l-1.19,2.41H322.09z M324.99,172.9h3.95
		l-1.98-3.97L324.99,172.9z"/>
	<path class="st0" d="M333.22,176.36v-8.97h1.11v7.94h5.86v1.03H333.22z"/>
	<path class="st0" d="M341.54,176.36v-8.97h7.05v1.03h-5.94v2.63h3.59v1.03h-3.59v3.24h6.3v1.03H341.54z"/>
	<path class="st0" d="M356.11,176.36v-8.97h5.14c0.87,0,1.56,0.22,2.06,0.65s0.75,1.03,0.75,1.78c0,0.78-0.24,1.41-0.73,1.89
		c-0.48,0.48-1.13,0.72-1.94,0.72h-4.17v3.92H356.11z M357.22,171.38h3.96c0.56,0,0.99-0.13,1.28-0.37c0.29-0.25,0.43-0.61,0.43-1.1
		c0-0.47-0.15-0.84-0.43-1.1c-0.29-0.26-0.7-0.39-1.22-0.39h-4.01V171.38z"/>
	<path class="st0" d="M365.91,176.36v-8.97h1.11v7.94h5.86v1.03H365.91z"/>
	<path class="st0" d="M372.88,176.36l4.39-8.97h0.93l4.44,8.97h-1.21l-1.22-2.41h-4.95l-1.19,2.41H372.88z M375.77,172.9h3.95
		l-1.98-3.97L375.77,172.9z"/>
	<path class="st0" d="M385.5,176.36v-4.49l-4.04-4.48h1.4l3.21,3.54l3.19-3.54h1.41l-4.06,4.49v4.48H385.5z"/>
	<path class="st0" d="M395.38,176.36l4.39-8.97h0.93l4.44,8.97h-1.21l-1.22-2.41h-4.95l-1.19,2.41H395.38z M398.27,172.9h3.95
		l-1.98-3.97L398.27,172.9z"/>
	<path class="st0" d="M412.05,176.36v-8.97h1.11v7.94h5.86v1.03H412.05z"/>
	<path class="st0" d="M424,176.59c-1.34,0-2.45-0.44-3.33-1.33c-0.88-0.88-1.31-2.01-1.31-3.37c0-1.36,0.44-2.49,1.32-3.38
		s1.98-1.33,3.32-1.33c1.34,0,2.46,0.44,3.34,1.33c0.88,0.89,1.32,2.01,1.32,3.37s-0.44,2.48-1.32,3.37
		C426.46,176.15,425.34,176.59,424,176.59z M424,175.54c1.01,0,1.84-0.34,2.5-1.03c0.66-0.69,0.99-1.56,0.99-2.62
		c0-1.06-0.33-1.94-0.99-2.62c-0.66-0.69-1.49-1.03-2.51-1.03c-1.01,0-1.84,0.34-2.5,1.04c-0.66,0.69-0.99,1.56-0.99,2.62
		s0.33,1.93,0.99,2.62C422.16,175.2,422.99,175.54,424,175.54z"/>
	<path class="st0" d="M429.76,175.01l0.65-0.97c0.63,0.49,1.29,0.87,1.98,1.13c0.68,0.26,1.36,0.39,2.03,0.39
		c0.83,0,1.5-0.18,2.02-0.53c0.52-0.35,0.78-0.8,0.78-1.36c0-0.44-0.19-0.8-0.56-1.08c-0.37-0.28-0.88-0.45-1.54-0.51
		c-0.16-0.02-0.38-0.03-0.68-0.05c-1.47-0.1-2.48-0.28-3.01-0.52c-0.42-0.2-0.73-0.46-0.95-0.78c-0.22-0.32-0.32-0.67-0.32-1.07
		c0-0.72,0.32-1.31,0.97-1.78c0.64-0.46,1.48-0.7,2.51-0.7c0.75,0,1.49,0.12,2.21,0.37c0.73,0.25,1.42,0.61,2.08,1.09l-0.65,0.93
		c-0.55-0.44-1.13-0.78-1.74-1c-0.61-0.22-1.24-0.34-1.88-0.34c-0.68,0-1.23,0.13-1.67,0.39c-0.44,0.26-0.66,0.59-0.66,0.99
		c0,0.16,0.04,0.3,0.11,0.43s0.18,0.25,0.33,0.37c0.37,0.28,1.16,0.45,2.39,0.53c0.56,0.03,1,0.07,1.31,0.11
		c0.91,0.1,1.63,0.4,2.16,0.88c0.53,0.48,0.8,1.08,0.8,1.78c0,0.84-0.36,1.53-1.09,2.07c-0.73,0.54-1.68,0.81-2.86,0.81
		c-0.89,0-1.72-0.13-2.49-0.39C431.18,175.94,430.46,175.54,429.76,175.01z"/>
	<path class="st0" d="M446.04,176.36v-8.97h1.03l3.62,5.49l3.65-5.49h1.01v8.97h-1.1v-7l-3.56,5.3l-3.56-5.3v7H446.04z"/>
	<path class="st0" d="M457.98,176.36v-8.97h7.05v1.03h-5.94v2.63h3.59v1.03h-3.59v3.24h6.3v1.03H457.98z"/>
	<path class="st0" d="M466.03,172.5h1.11v1.4c0,0.58,0.21,1,0.64,1.26c0.42,0.26,1.12,0.39,2.08,0.39c0.94,0,1.58-0.16,1.93-0.49
		c0.34-0.32,0.52-0.94,0.52-1.86v-5.81h1.11v6.11c0,1.11-0.29,1.9-0.87,2.38c-0.58,0.48-1.54,0.72-2.89,0.72
		c-1.23,0-2.14-0.22-2.73-0.66c-0.59-0.44-0.89-1.11-0.89-2.01V172.5z"/>
	<path class="st0" d="M479.92,176.59c-1.34,0-2.45-0.44-3.33-1.33c-0.88-0.88-1.31-2.01-1.31-3.37c0-1.36,0.44-2.49,1.32-3.38
		s1.98-1.33,3.32-1.33c1.34,0,2.46,0.44,3.34,1.33c0.88,0.89,1.32,2.01,1.32,3.37s-0.44,2.48-1.32,3.37
		C482.38,176.15,481.26,176.59,479.92,176.59z M479.92,175.54c1.01,0,1.84-0.34,2.5-1.03c0.66-0.69,0.99-1.56,0.99-2.62
		c0-1.06-0.33-1.94-0.99-2.62c-0.66-0.69-1.49-1.03-2.51-1.03c-1.01,0-1.84,0.34-2.5,1.04c-0.66,0.69-0.99,1.56-0.99,2.62
		s0.33,1.93,0.99,2.62C478.08,175.2,478.91,175.54,479.92,175.54z"/>
	<path class="st0" d="M486.49,176.36v-8.97h5.14c0.88,0,1.57,0.22,2.06,0.66c0.5,0.44,0.75,1.05,0.75,1.83
		c0,0.65-0.19,1.21-0.58,1.67c-0.39,0.46-0.9,0.75-1.54,0.87l2.24,3.94h-1.24l-2.24-3.92h-3.48v3.92H486.49z M487.6,171.38h3.96
		c0.56,0,0.99-0.13,1.28-0.37c0.29-0.25,0.43-0.61,0.43-1.1c0-0.47-0.15-0.84-0.43-1.1c-0.29-0.26-0.7-0.39-1.22-0.39h-4.01V171.38z
		"/>
	<path class="st0" d="M496.47,176.36v-8.97h7.05v1.03h-5.94v2.63h3.59v1.03h-3.59v3.24h6.3v1.03H496.47z"/>
	<path class="st0" d="M504.7,175.01l0.65-0.97c0.63,0.49,1.29,0.87,1.98,1.13c0.68,0.26,1.36,0.39,2.03,0.39
		c0.83,0,1.5-0.18,2.02-0.53c0.52-0.35,0.78-0.8,0.78-1.36c0-0.44-0.19-0.8-0.56-1.08c-0.37-0.28-0.88-0.45-1.54-0.51
		c-0.16-0.02-0.38-0.03-0.68-0.05c-1.47-0.1-2.48-0.28-3.01-0.52c-0.42-0.2-0.73-0.46-0.95-0.78c-0.22-0.32-0.32-0.67-0.32-1.07
		c0-0.72,0.32-1.31,0.97-1.78c0.64-0.46,1.48-0.7,2.51-0.7c0.75,0,1.49,0.12,2.21,0.37c0.73,0.25,1.42,0.61,2.08,1.09l-0.65,0.93
		c-0.55-0.44-1.13-0.78-1.74-1c-0.61-0.22-1.24-0.34-1.88-0.34c-0.68,0-1.23,0.13-1.67,0.39c-0.44,0.26-0.66,0.59-0.66,0.99
		c0,0.16,0.04,0.3,0.11,0.43s0.18,0.25,0.33,0.37c0.37,0.28,1.16,0.45,2.39,0.53c0.56,0.03,1,0.07,1.31,0.11
		c0.91,0.1,1.63,0.4,2.16,0.88c0.53,0.48,0.8,1.08,0.8,1.78c0,0.84-0.36,1.53-1.09,2.07c-0.73,0.54-1.68,0.81-2.86,0.81
		c-0.89,0-1.72-0.13-2.49-0.39C506.12,175.94,505.39,175.54,504.7,175.01z"/>
	<path class="st0" d="M520.97,176.36v-8.97h5.14c0.87,0,1.56,0.22,2.06,0.65s0.75,1.03,0.75,1.78c0,0.78-0.24,1.41-0.73,1.89
		c-0.48,0.48-1.13,0.72-1.94,0.72h-4.17v3.92H520.97z M522.09,171.38h3.96c0.56,0,0.99-0.13,1.28-0.37c0.29-0.25,0.43-0.61,0.43-1.1
		c0-0.47-0.15-0.84-0.43-1.1c-0.29-0.26-0.7-0.39-1.22-0.39h-4.01V171.38z"/>
	<path class="st0" d="M530.77,176.36v-8.97h1.11v7.94h5.86v1.03H530.77z"/>
	<path class="st0" d="M537.74,176.36l4.39-8.97h0.93l4.44,8.97h-1.21l-1.22-2.41h-4.95l-1.19,2.41H537.74z M540.63,172.9h3.95
		l-1.98-3.97L540.63,172.9z"/>
	<path class="st0" d="M549.52,176.36v-7.94h-3.77v-1.03h8.67v1.03h-3.78v7.94H549.52z"/>
	<path class="st0" d="M558.82,176.59c-1.34,0-2.45-0.44-3.33-1.33c-0.88-0.88-1.31-2.01-1.31-3.37c0-1.36,0.44-2.49,1.32-3.38
		s1.98-1.33,3.32-1.33c1.34,0,2.46,0.44,3.34,1.33c0.88,0.89,1.32,2.01,1.32,3.37s-0.44,2.48-1.32,3.37
		C561.28,176.15,560.16,176.59,558.82,176.59z M558.82,175.54c1.01,0,1.84-0.34,2.5-1.03c0.66-0.69,0.99-1.56,0.99-2.62
		c0-1.06-0.33-1.94-0.99-2.62c-0.66-0.69-1.49-1.03-2.51-1.03c-1.01,0-1.84,0.34-2.5,1.04c-0.66,0.69-0.99,1.56-0.99,2.62
		s0.33,1.93,0.99,2.62C556.98,175.2,557.81,175.54,558.82,175.54z"/>
	<path class="st0" d="M564.58,175.01l0.65-0.97c0.63,0.49,1.29,0.87,1.98,1.13c0.68,0.26,1.36,0.39,2.03,0.39
		c0.83,0,1.5-0.18,2.02-0.53c0.52-0.35,0.78-0.8,0.78-1.36c0-0.44-0.19-0.8-0.56-1.08c-0.37-0.28-0.88-0.45-1.54-0.51
		c-0.16-0.02-0.38-0.03-0.68-0.05c-1.47-0.1-2.48-0.28-3.01-0.52c-0.42-0.2-0.73-0.46-0.95-0.78c-0.22-0.32-0.32-0.67-0.32-1.07
		c0-0.72,0.32-1.31,0.97-1.78c0.64-0.46,1.48-0.7,2.51-0.7c0.75,0,1.49,0.12,2.21,0.37c0.73,0.25,1.42,0.61,2.08,1.09l-0.65,0.93
		c-0.55-0.44-1.13-0.78-1.74-1c-0.61-0.22-1.24-0.34-1.88-0.34c-0.68,0-1.23,0.13-1.67,0.39c-0.44,0.26-0.66,0.59-0.66,0.99
		c0,0.16,0.04,0.3,0.11,0.43s0.18,0.25,0.33,0.37c0.37,0.28,1.16,0.45,2.39,0.53c0.56,0.03,1,0.07,1.31,0.11
		c0.91,0.1,1.63,0.4,2.16,0.88c0.53,0.48,0.8,1.08,0.8,1.78c0,0.84-0.36,1.53-1.09,2.07c-0.73,0.54-1.68,0.81-2.86,0.81
		c-0.89,0-1.72-0.13-2.49-0.39C566,175.94,565.28,175.54,564.58,175.01z"/>
	<path class="st0" d="M584.75,167.39c1.41,0,2.55,0.42,3.42,1.25c0.86,0.83,1.3,1.92,1.3,3.26c0,1.35-0.43,2.43-1.28,3.24
		c-0.85,0.81-2,1.22-3.44,1.22h-3.84v-8.97H584.75z M584.75,168.42h-2.73v6.9h2.73c1.1,0,1.97-0.31,2.61-0.93
		c0.63-0.62,0.95-1.46,0.95-2.51c0-1.04-0.32-1.88-0.97-2.51S585.83,168.42,584.75,168.42z"/>
	<path class="st0" d="M591.42,176.36v-8.97h7.05v1.03h-5.94v2.63h3.59v1.03h-3.59v3.24h6.3v1.03H591.42z"/>
	<path class="st0" d="M613.19,173.5l0.89,0.67c-0.41,0.78-0.97,1.38-1.69,1.8c-0.71,0.42-1.53,0.63-2.44,0.63
		c-1.34,0-2.45-0.44-3.33-1.33c-0.88-0.88-1.31-2.01-1.31-3.37c0-1.36,0.44-2.49,1.32-3.38s1.98-1.33,3.32-1.33
		c0.83,0,1.58,0.18,2.27,0.54c0.68,0.36,1.24,0.88,1.67,1.55l-0.93,0.67c-0.28-0.54-0.69-0.96-1.22-1.26
		c-0.53-0.3-1.12-0.46-1.78-0.46c-1.01,0-1.84,0.34-2.5,1.04c-0.66,0.69-0.99,1.56-0.99,2.62s0.33,1.93,0.99,2.62
		c0.66,0.69,1.49,1.03,2.5,1.03c0.7,0,1.33-0.17,1.88-0.52S612.84,174.17,613.19,173.5z"/>
	<path class="st0" d="M620.01,176.59c-1.34,0-2.45-0.44-3.33-1.33c-0.88-0.88-1.31-2.01-1.31-3.37c0-1.36,0.44-2.49,1.32-3.38
		s1.98-1.33,3.32-1.33c1.34,0,2.46,0.44,3.34,1.33c0.88,0.89,1.32,2.01,1.32,3.37s-0.44,2.48-1.32,3.37
		C622.47,176.15,621.36,176.59,620.01,176.59z M620.01,175.54c1.01,0,1.84-0.34,2.5-1.03c0.66-0.69,0.99-1.56,0.99-2.62
		c0-1.06-0.33-1.94-0.99-2.62c-0.66-0.69-1.49-1.03-2.51-1.03c-1.01,0-1.84,0.34-2.5,1.04c-0.66,0.69-0.99,1.56-0.99,2.62
		s0.33,1.93,0.99,2.62C618.17,175.2,619,175.54,620.01,175.54z"/>
	<path class="st0" d="M626.63,176.36v-8.97h1.11v7.94h5.86v1.03H626.63z"/>
	<path class="st0" d="M638.58,176.59c-1.34,0-2.45-0.44-3.33-1.33c-0.88-0.88-1.31-2.01-1.31-3.37c0-1.36,0.44-2.49,1.32-3.38
		s1.98-1.33,3.32-1.33c1.34,0,2.46,0.44,3.34,1.33c0.88,0.89,1.32,2.01,1.32,3.37s-0.44,2.48-1.32,3.37
		C641.04,176.15,639.92,176.59,638.58,176.59z M638.58,175.54c1.01,0,1.84-0.34,2.5-1.03c0.66-0.69,0.99-1.56,0.99-2.62
		c0-1.06-0.33-1.94-0.99-2.62c-0.66-0.69-1.49-1.03-2.51-1.03c-1.01,0-1.84,0.34-2.5,1.04c-0.66,0.69-0.99,1.56-0.99,2.62
		s0.33,1.93,0.99,2.62C636.74,175.2,637.57,175.54,638.58,175.54z"/>
	<path class="st0" d="M645.15,176.36v-8.97h1.03l3.62,5.49l3.65-5.49h1.01v8.97h-1.1v-7l-3.56,5.3l-3.56-5.3v7H645.15z"/>
	<path class="st0" d="M657.09,176.36v-8.97h5.3c0.88,0,1.55,0.19,2,0.56c0.45,0.38,0.68,0.93,0.68,1.67c0,0.36-0.07,0.68-0.21,0.96
		c-0.14,0.28-0.34,0.51-0.6,0.68c0.48,0.28,0.84,0.62,1.08,1.02c0.24,0.4,0.37,0.86,0.37,1.38c0,0.83-0.27,1.48-0.82,1.97
		c-0.54,0.48-1.28,0.73-2.21,0.73H657.09z M658.2,170.93h4.29c0.47,0,0.83-0.11,1.08-0.32s0.37-0.52,0.37-0.92
		c0-0.42-0.12-0.74-0.36-0.95c-0.24-0.21-0.6-0.32-1.09-0.32h-4.29V170.93z M658.2,175.32h4.69c0.51,0,0.91-0.15,1.2-0.45
		c0.29-0.3,0.44-0.71,0.44-1.23c0-0.51-0.15-0.92-0.44-1.23c-0.29-0.3-0.69-0.46-1.2-0.46h-4.69V175.32z"/>
	<path class="st0" d="M667.96,176.36v-9.02h1.13v9.02H667.96z"/>
	<path class="st0" d="M670.44,176.36l4.39-8.97h0.93l4.44,8.97h-1.21l-1.22-2.41h-4.95l-1.19,2.41H670.44z M673.33,172.9h3.95
		l-1.98-3.97L673.33,172.9z"/>
</g>
<g>
	<g>
		<g>
			<g>
				<g>
					<path class="st1" d="M668.38,153.48c0.51,0.12,0.4-0.32,0.49-0.38C667.99,153.05,668.39,153.59,668.38,153.48z"/>
					<polygon class="st1" points="659.71,152.99 659.89,152.84 658.57,153.05 					"/>
					<path class="st1" d="M651.75,151.7c0.64,0.81,2.9,0.35,4.28,0.82l0.21,0.2l0.73-0.46C655.23,152.08,652.94,152.08,651.75,151.7
						z"/>
					<path class="st1" d="M647.73,149.53c0.22,0.31-0.96,0.1,0.98,0.24c-0.09-0.04-0.12-0.07-0.17-0.1
						C648.37,149.64,648.13,149.61,647.73,149.53z"/>
					<path class="st1" d="M648.54,149.67C649.39,149.78,648.03,149.35,648.54,149.67L648.54,149.67z"/>
					<path class="st1" d="M644.63,149.23l1.14-0.08c-0.21-0.2-1.19-0.39-0.8-0.45C643.82,148.67,644.03,148.87,644.63,149.23z"/>
					<path class="st1" d="M643.51,149.59l0.59-0.02C644.01,149.49,643.86,149.45,643.51,149.59z"/>
					<path class="st1" d="M645.35,149.54l-1.25,0.04c0.14,0.14,0.13,0.37,0.57,0C644.54,149.77,644.81,149.61,645.35,149.54z"/>
					<path class="st1" d="M646.02,149.75c0.6,0.25,1.39,0.47,0.24,0.54C648.39,150.52,648.15,149.97,646.02,149.75z"/>
					<path class="st1" d="M651.23,152.37l0.8,0.33l0.75-0.12C652.4,152.64,651.21,152.14,651.23,152.37z"/>
					<path class="st1" d="M637.78,147.87c-0.09,0.14,0.32,0.45,0.37,0.66l0.84-0.05C638.59,148.31,637.8,148.1,637.78,147.87z"/>
					<path class="st1" d="M638.15,148.53l-1.26,0.08C637.98,148.79,638.2,148.7,638.15,148.53z"/>
					<polygon class="st1" points="643.19,150.35 645.28,150.1 642.81,150.3 					"/>
					<polygon class="st1" points="633.09,147.2 633.84,146.94 632.53,147.3 					"/>
					<path class="st1" d="M629.98,146.83c0.55-0.22-0.64-0.58-0.07-0.69c-0.85-0.06-1.61,0.08-2.29,0.23
						C628.33,146.33,629.06,146.47,629.98,146.83z"/>
					<path class="st1" d="M626.48,146.56c0.35-0.03,0.73-0.1,1.13-0.19C627.24,146.39,626.87,146.44,626.48,146.56z"/>
					<path class="st1" d="M634.81,148.24c-0.08-0.1-0.23-0.37-0.91-0.56l0.42,0.49C634.47,148.19,634.64,148.22,634.81,148.24z"/>
					<path class="st1" d="M634.34,148.19l-0.02-0.02c-0.52-0.08-0.88-0.14-1.04-0.17C633.42,148.03,633.74,148.08,634.34,148.19z"/>
					<path class="st1" d="M634.93,148.26c-0.04-0.01-0.08-0.01-0.12-0.02C634.85,148.29,634.88,148.31,634.93,148.26z"/>
					<path class="st1" d="M640.04,149.5c-0.75,0.13-2.29,0.17-0.89,0.74C639.71,150.03,638.91,149.7,640.04,149.5z"/>
					<path class="st1" d="M635.46,148.87l1.29,0.28c-0.01-0.12-0.22-0.31,0.15-0.38L635.46,148.87z"/>
					<polygon class="st1" points="634.8,148.92 635.46,148.87 634.98,148.77 					"/>
					<path class="st1" d="M628.67,147.24c-0.59,0.11-1.21,0.05-1.91-0.02c0.74,0.18,1.5,0.32,2.23,0.42
						C629.11,147.53,629.47,147.34,628.67,147.24z"/>
					<path class="st1" d="M631.42,147.74c-0.04,0-0.09,0.01-0.13,0.01C631.36,147.79,631.42,147.81,631.42,147.74z"/>
					<polygon class="st1" points="619.91,146.35 620.01,146.44 620.04,146.37 					"/>
					<path class="st1" d="M629.11,147.75c0.55,0.16,0.9,0.1,1.23,0.01c-0.42-0.01-0.87-0.05-1.35-0.11
						C628.94,147.71,628.92,147.74,629.11,147.75z"/>
					<path class="st1" d="M624.55,146.51c0.28,0.13,0.6,0.24,0.94,0.36C625.22,146.7,624.66,146.41,624.55,146.51z"/>
					<path class="st1" d="M631.12,147.6c0.03,0,0.06,0,0.09-0.01C631.03,147.48,631.05,147.53,631.12,147.6z"/>
					<path class="st1" d="M631.12,147.6c-0.3,0.02-0.54,0.1-0.78,0.16c0.35,0.01,0.67,0.01,0.95-0.01
						C631.23,147.71,631.16,147.65,631.12,147.6z"/>
					<path class="st1" d="M617.5,148.82c0.15-0.38,1.67-0.58,2.88,0.01c1.29-0.13,0.63-1.53-0.37-2.39c-0.06,0.17-0.08,0.32-1.4,0.4
						c0.43,0.26,2.8,0.86,1.67,1.08c-1.73-0.01-1.38-0.31-2.18-0.62c0.64,0.57-2.26,0.45-1.97,1.22l1.53-0.07
						C617.66,148.56,617.1,148.67,617.5,148.82z"/>
					<path class="st1" d="M622.46,146.79l0.54,0.02c-0.6-0.15-1.01-0.36-1.77-0.77c-0.91,0.08-1.11,0.2-1.18,0.32l2.6,0.39
						L622.46,146.79z"/>
					<path class="st1" d="M625.38,147.12c-0.47,0.37-1.77,0.39-1.05,0.96c1.56,0.17,1.14-0.22,2.09-0.28
						c-2.52-0.22,0.75-0.15-1.03-0.62c0.5-0.01,0.95,0.03,1.37,0.06c-0.45-0.11-0.87-0.23-1.27-0.36c0.02,0.01,0.04,0.02,0.05,0.03
						l0.01,0l0,0.01c0.1,0.07,0.13,0.1,0.01,0.06c-0.01,0-0.04,0-0.05,0C625.49,147.03,625.43,147.07,625.38,147.12
						c-0.72-0.18-0.1-0.13,0.13-0.15c0.01-0.02,0.03-0.04,0.04-0.06l-0.01-0.01l-2.55-0.09
						C623.52,146.94,624.19,147.01,625.38,147.12z"/>
					<path class="st1" d="M637.68,150.97c-0.07-0.05-0.06-0.08-0.07-0.11C637.45,150.89,637.38,150.91,637.68,150.97z"/>
					<path class="st1" d="M636.69,150.56c0.19-0.03,0.37-0.18,0.95-0.05c0.5,0.2-0.03,0.2-0.02,0.35c0.37-0.06,1.29-0.13,0.2-0.49
						l-0.19,0.03c-0.99-0.3-2.21-1.01-2.03-1.04C635.85,149.78,636.07,150.09,636.69,150.56z"/>
					<path class="st1" d="M630.95,148.92l-2.12-0.08l1.01,0.51l-0.02-0.23C631,149.38,630.78,149.08,630.95,148.92z"/>
					<polygon class="st1" points="619.7,146.11 620.03,145.69 618.74,146.18 					"/>
					<polygon class="st1" points="616.96,145.83 617.11,145.45 616.36,145.6 					"/>
					<path class="st1" d="M462.53,143.9l-0.61,0.13C462.2,143.99,462.39,143.94,462.53,143.9z"/>
					<path class="st1" d="M467,143.81l0.1-0.2C466.9,143.72,466.81,143.8,467,143.81z"/>
					<path class="st1" d="M549.82,140c-0.88-0.41-1.86-1.04-1.78-0.59l0.25,0.45C548.93,139.81,549.41,139.88,549.82,140z"/>
					<path class="st1" d="M503.65,141.14c0.09,0.04,0.17,0.09,0.26,0.14c0.22-0.15,0.43-0.28,0.61-0.41
						C504.27,140.95,503.97,141.05,503.65,141.14z"/>
					<path class="st1" d="M503,142.93l-1.18-0.28C502.09,142.74,502.47,142.83,503,142.93z"/>
					<path class="st1" d="M438.15,145.44l-0.69,0.48C438.58,145.85,438.08,145.66,438.15,145.44z"/>
					<path class="st1" d="M589,143c-0.76-0.24-1.37-0.37-1.91-0.44C588,142.9,588.72,143.34,589,143z"/>
					<path class="st1" d="M464.15,139.25c-0.38,0.09-0.54,0.18-0.52,0.28C464.01,139.44,464.23,139.35,464.15,139.25z"/>
					<path class="st1" d="M584.84,142.36c0.13,0.05,0.27,0.09,0.4,0.14c0.57-0.02,1.15-0.03,1.84,0.07
						C586.41,142.31,585.63,142.12,584.84,142.36z"/>
					<path class="st1" d="M350.02,153.78c-0.07-0.01-0.14-0.01-0.21-0.02C349.81,153.82,349.9,153.81,350.02,153.78z"/>
					<path class="st1" d="M323.8,153.41c0.25-0.07,0.66-0.14,1.04-0.21C324.65,153.2,324.34,153.26,323.8,153.41z"/>
					<path class="st1" d="M606.01,144.38C606.59,144.42,606.11,144.34,606.01,144.38L606.01,144.38z"/>
					<path class="st1" d="M608.64,146.4c-0.13,0.03-0.23,0.09-0.25,0.18C608.44,146.48,608.53,146.43,608.64,146.4z"/>
					<path class="st1" d="M578.84,144.56c-0.02,0-0.03,0-0.05-0.01C578.95,144.65,578.92,144.63,578.84,144.56z"/>
					<path class="st1" d="M606.86,144.67c-0.21-0.08-0.46-0.15-0.73-0.21C606.25,144.51,606.47,144.58,606.86,144.67z"/>
					<path class="st1" d="M606.77,144.46c0.2,0.04,0.35,0.07,0.5,0.1C607.35,144.49,607.29,144.44,606.77,144.46z"/>
					<path class="st1" d="M605.2,144.31c0.33,0.03,0.64,0.08,0.93,0.15c-0.11-0.04-0.16-0.07-0.12-0.08
						C605.84,144.37,605.6,144.35,605.2,144.31z"/>
					<path class="st1" d="M397.03,147.03c-0.04-0.01-0.08-0.01-0.13-0.03C396.34,147.23,396.59,147.18,397.03,147.03z"/>
					<path class="st1" d="M534.51,143.8c0.03,0,0.04-0.01,0.07-0.02c-0.03-0.01-0.06-0.01-0.08-0.02L534.51,143.8z"/>
					<path class="st1" d="M532.41,144.04c0.91-0.5,1.41-0.42,2.07-0.27l-0.64-1.28L532.41,144.04z"/>
					<path class="st1" d="M451.83,144.43l1.48,0.33c-1.73,0.71-3.02,0.54-1.62,1.04c0.15-1.37,5.66-0.37,5.81-1.73l0.97,0.25
						c-0.28,0-0.32,0.08-0.59,0.08c1.89,0.58,1.35-1.06,3.78-0.92c0.84,0.08,1.44,0.26,0.87,0.44l1.86-0.39
						c0.55,0.01,0.42,0.25-0.12,0.24l2.86-0.19l-0.02,0.04c0.4-0.22,1.32-0.58,1.77-0.73c0.73,0.18-0.36,0.15-0.17,0.32l1.58-0.37
						c0.65,0.33-0.65,0.71-1.74,0.69c1.51,1.32,1.31-0.38,4.51,0.33l-1.49,0.21c0.98,0.75,2.14,0.42,3.84,0.88
						c-0.4-0.26-3.4-1.13-1.69-1.52c0.49,0.09,1.13,0.13,2.05-0.16c0.02,0.48,0.92,0.35,2.05,0.31l-0.07,0.64
						c1.22-0.2,1.12-0.53,1.83-0.82c1.37,0.05,1.66,0.54,1.98,0.95c2.19,0.07-1.52-0.77,1.07-0.93c1.82,0.22,3.09-0.06,5.26-0.47
						c1.27,0.2-0.22,0.39,0.24,0.57l1.12-0.52c0.28,0.01,0.19,0.17,0.14,0.25c0.95-0.2,0.07-0.64,1.57-0.81
						c0.4-0.7,3.07,1.03,4.92,0.23c0.46,0.18-0.22,0.39-0.08,0.64c2.54-0.52,2.18-0.38,4.26-1.08l1.77,0.42
						c-1.3-0.48,0.37-1.06,1.84-1.5c-0.46-0.24-0.86-0.45-1.12-0.54l2.34-0.31c0.28,0.11,0.04,0.33-0.34,0.59
						c0.16-0.05,0.31-0.1,0.43-0.15c0.83,0.25,0.4,0.61-0.21,0.96c-0.28-0.14-0.56-0.27-0.84-0.41c-0.58,0.38-1.12,0.8-1,1.18
						c0.15-0.07,0.44-0.13,0.77-0.16c-0.15,0.1-0.25,0.2-0.18,0.26c0.08,0.07,0.32-0.07,0.71-0.23l0.52,0.72l0.13-0.28l3.04,0.49
						c2.19-0.68,4.1-1.71,7.58-1.95c-0.87,0.51-0.2,0.85-0.26,1.47c-0.93-0.67-2.69,0.24-4.48,0.08c0.93,0.08,0.72,0.38,0.48,0.47
						l3.21-0.55c-0.08,0.51,0.67,0.39,1.5,0.61c-0.61-1.02,2.4-0.63,3.71-0.89c0.07,0.34-0.25,0.67-1.83,0.54
						c1.73,0.81,2.29-1.11,4-0.42c-0.39,0-0.6-0.06-0.75,0.11c0.91-0.27,3.12,0.03,2.59,0.31l-0.39,0c2.57,0.19,7.83,0.24,8.25-0.6
						c0.02,0.11-0.37,1.01-0.54,1.18l4.7-2.68c-0.43,0.71,1.05,2.52-1.1,2.84c0.61,0.13,1.36,0.28,2.66,0.08
						c-0.41-0.12-1-1.1-0.42-1.14c1.53,0.88,1.07,0.48,2.97,1.25c-0.62-0.18,0.13-1.3,1.12-1.22c-0.16,0.16,0.03,1.13-0.34,1.24
						l2.52-1c-0.62,0.17-0.15,0.95,0.38,1.29c-0.24-0.23,2.13,0.13,2.79,0.05l-1.03-0.31c2.77,0.31,2.83-1.45,5.59-1.24
						c-0.35,0.21-0.9,1.38,0.49,1.6c0.67-0.54,3-2.6,5.48-2.9l0.45,0.36l1.9-0.26c-1.23,0.8-4.61,2.42-6.44,3.03
						c1.02,0.32,0.27,0.4,1.83,0.47c0.53,0.34-0.88,0.42-1.33,0.41l3.61,0.41c-0.12-0.68,2.81-0.51,2.71-1.07l-3.98,0.46
						c-0.12-0.67,2.39-1.78,4.96-1.49c0.64,0.31-0.57,1.16-0.53,1.39c0.35-0.21,2.47-0.28,2.69-0.1l-1.11,0.28
						c1.41,0.35,2.39-0.73,4.07,0.03c0.59,0.08,1.71,0.98,1.84,0.59c-0.91-0.83-0.93-3.21-0.25-3.74c0.21,0.06,3.07,0.96,3.72,1.39
						c0.93,0.67-1.57,1.32-0.78,1.9c0.05-0.18,0.61-0.37,0.84-0.42c0.61,0.2-0.3,0.55,1.06,0.57c0.28-0.66,2.75,0.27,0.68-0.53
						c1.34-0.09,1.4,0.25,2.95,0.34c-0.46-0.48,1.52-1.39,2.86-1.46c-0.09,0.17,0.19,0.42,0.32,0.53c2.71,0.29,4.14,0.72,6.67,0.95
						c0.22,0.19,1.42,0.5,0.87,0.74c0.37-0.09,0.73-0.28,1.51-0.23c1.45,0.73-1.75-0.07-0.66,0.74c0.13-0.39,2.06-0.35,3.2-0.5
						c-0.28-0.64-2.55-0.36-3.69-0.22c0.07-0.84,2.09-1.54,4.77-1.68c2.12-0.01,0.86,0.63,1.24,0.54c3.93,0.53,3.51-1.13,6.73-0.19
						c1.25,0.67-0.05,1.07,0.2,1.49c-1.73,0.03-2.59-0.61-3.75-0.71l1.4,0.4c-0.56,0.12-1.72,0.14-2.32-0.08
						c1.04,0.6,6.65,0.76,9.64,1.55c0.56-0.12,1.51-0.2,1.09-0.47l-0.97-0.03c-0.84-0.53,1.88-0.39,0.68-0.73
						c1.32-0.16,2.83-0.47,4.62-0.03l0.27,0.65c-0.02-0.18-1.15-0.49-1.68-0.37c0.79-0.18,2.69,1.13,3.61,0.44l-1.22-0.57
						c1.33-0.15,3.01-0.61,4.6-0.22c-0.66-0.69-0.38,0.02-1.44-0.82c0.89,0.99-4.12-0.53-2.63,0.58c-1.08-0.95-1.99-0.57-3.45-1.44
						c0.03,0.21,0.5,0.44-0.84,0.2c-0.07,0.05-0.22,0.11-0.32,0.14c-0.04-0.01-0.05-0.02-0.09-0.03c0.03,0.01,0.05,0.02,0.07,0.03
						c-0.06,0.02-0.07,0.03,0.03,0.01c0.31,0.12,0.56,0.26,0.66,0.38c-0.72,0.39-2.87,0.13-3.63,0.29
						c-0.79-0.18,0.36-0.19-0.05-0.46l-1.13,0.24c-0.06-0.46-2.06-0.96-0.13-1.03l-1.7-0.19c-0.98-0.35-2.35-0.59-3.22-0.49
						c-0.79-0.18-2.08,0.29-1.35,0.01l-2.7,0.01l-0.01-0.11c-2.64-0.3-5.5,0.23-8.45-0.86c-0.9,0.04-1.83,0.1-3.31-0.16l-0.26-0.41
						c-1.15,0.04-3.4-0.68-3.92-0.32c-1.15-1.15-5.53-0.66-7.53-1l-0.11,0.5c-1.38-0.14-2.72-0.09-4.45,0l0.07,0.45
						c-1.51,0.27-3.79-0.58-6.13-0.69c0.17-0.16,0.76-0.08,1.18,0.06c-2.74-1.2-5.95,0.38-8.45-0.51c-0.64,0.13-1.1,0.04-1.54-0.1
						c0.06,0,0.11,0,0.16-0.01c-0.06-0.01-0.16-0.02-0.26-0.02c-0.28-0.09-0.56-0.2-0.87-0.29c0.26,0.12,0.51,0.22,0.73,0.28
						c-0.49-0.02-1.23,0-1.96,0.08l-0.28-0.5c-0.06,0-0.11,0-0.17,0.01c-0.7-0.21-0.58,0.2-0.22,0.58
						c-0.37,0.06-0.71,0.14-0.98,0.24c-0.54-0.81-1.92,0.17-2.67-0.7c-0.51,0.38-3.67,0.12-4.09,0.96
						c-0.02-0.11-0.23-0.17,0.16-0.16c-0.8-0.13-1.61-0.26-2.35-0.05l-0.32-0.63l-1.8,0.75c-1.06-0.42-1.5-0.65-0.41-1.08
						c-2.6,0.62-2.1,0.18-4.32,0.83l0.12-0.39c-0.78-0.01-2.05,0.49-2.51,0.14c-1.73-0.79-8.66-0.39-13.14-1.16
						c0.85,1.18-2.08-0.55-2.28,0.35c-0.26-0.28-0.88-0.44-0.15-0.67c-2.3,0.24-3.44-0.49-5.04,0.25c-0.26-0.28,0.5-0.4,0.27-0.56
						c-0.19,0.06-0.73,0.23-0.97,0.06c-0.23-0.17,0.34-0.23,0.7-0.34c-2.35,0.01-2.59,0.86-2.77,1.65
						c-1.18-0.39-1.78-0.35-2.64,0.16c-0.41-0.26-1.1-0.54,0.36-0.62c-0.82-0.04-5.01-0.39-5.09,0.25
						c-0.26-0.16-1.15-0.05-1.36,0.03c-1.84-0.04-2-0.1-3.81-0.04l0.5,0.1c-0.71,0.77-1.5,0.17-2.95,0.26l0.04-0.08
						c-3.34-0.56-1.44,0.27-4.74-0.33l0.18,0.48c-0.3,1.04-2.92-0.57-4.83-0.15l0.69,0.26c-1.04,0.37-2.94-1.36-3.99-1.48
						c-0.23-0.09,0.36-0.15,0.68-0.22c-2.76-0.57-0.35,0.63-2.39,0.81c-0.38-0.33,0.47-0.87-0.91-0.91c-0.69-0.28-3.97,1.2-5.86,0.6
						c0.42,0.25,0.84,0.5-0.11,0.72c-1.45,0.13-3.96-0.88-5.25-0.02c-0.19-0.07-0.26-0.13-0.27-0.2c-1.11,0.25-3.61,0.44-4.26,0.93
						c-1.09-1.61-6.88,1.09-6.92-0.44l-3.42,0.22l0.08-0.16c-2.19-0.01-2.95,0.38-3.7,0.8c-0.51-0.08-0.15-0.24-0.11-0.32
						c-3.21-0.13-3.52-0.05-6.16,0.85l-0.31-0.48c-0.71,0.34-4.66-0.54-7.76,0.24c0.03-0.06,0.09-0.16,0.33-0.25
						c-3.48,0.82-8.53-0.8-9.69,1.09l-2.29,0.6c3.01-0.06-0.39,0.81,0.87,1.03c-1.17,0.18-3.09-0.31-1.65-0.52l0.23,0.07
						c0.46-0.98-3.75-0.03-3.72-0.68c-2.95,0.26-5.88,0.38-8.76,0.48c-2.88,0.12-5.71,0.26-8.48,0.49l0.71,0.67l-1.93,0.14
						c-0.52-0.12-0.73-0.51,0.64-0.6c-0.76-0.34-2.27,0.56-2.3,0.72c-2.72-0.04,0.97-0.95,0.14-0.89l-1.12,0.16l0.26,0.06
						c-0.88,0.39-0.93,0.7-2.59,0.83c-1.06-0.03-0.58-0.39-1-0.38c0-0.05-0.14-0.06-0.63,0.05l-2.43,0.2l1.03,0.47
						c-1.05,0.4-2.28,0.21-1.1,0.74c-1.75-0.82-9.09,0.58-10.13,0.42c-1.46,0.6-2.94,0.77-4.79,0.94c0.47,0.06,0.82,0.68-0.77,0.79
						c0.42-1.4-2.97-0.23-4.37-1.03c1.22,0.48-4.49,0.72-2.58,1.4c-1.33,0.07-0.14-0.49-1.19-0.67c-3.08,0.93-6.98,0.57-10.85,1.27
						c-0.04,0.18,0.65,0.36-0.15,0.73l-2.17-0.58c-0.76,0.2-0.56,1.11-2.05,0.7c0.22,0.12,0.55,0.3,0.04,0.43
						c-7.74,0.22-15.41,3-23.37,2.68c1.1,0.16,0.41,0.31-0.39,0.46c0.53-0.01,0.06,0.43,0.2,0.65l-3.33-0.11
						c-0.48,0.75-3.45,0.63-3.68,1.31l1-0.28c-1.23,0.96,2.18,1.32,2.14,2.29c1.38-1.09,4.2,0.57,6.49-1.05
						c0.58,0.1-0.42,0.38-0.09,0.55c0.56-0.51,1.31-0.73,2.75-0.76l-0.14,0.13c3.95-0.72,5.72-0.58,10.21-1.01l-0.4-0.42
						c0.97-0.09,1.19,0.03,1.66,0.08c0.99-0.88-2.7,0.38-1.81-0.56c1.41,0.73,6.77-0.97,7.78-0.02c1.48-0.21-0.51-0.48,0.97-0.69
						l0.43,0.24l0.32-0.43c0.98-0.08,1.52,0.22,1.59,0.46c-0.24,0-0.66,0.17-0.91,0.22c1.3,0.16,3.52-0.63,3.97-0.58l-1.44,0.02
						c3.99-0.84,8.97-1.08,12.79-2.2l-0.32-0.18c2.93-0.81,2.42-0.05,5.67-0.64l-0.11,0.07c0.63-0.3,1.49-0.52,2.39-0.6
						c-0.8,0.36,1.62,0.32,0.57,0.74c3.18-0.83,1.56-0.54,3.6-1.62l0.54,0.31c0.69-0.42,0.73-0.61,2.36-0.89
						c-1.31,0.46,1.11,0.45-0.35,1.03c3.52,0.44,5.01-1.36,6.72-0.35c1.47-1.19-3.03-0.25-2.17-0.56c-0.78-0.25,1.22-0.9,2.31-0.91
						c1.1-0.09,2,1.11,4.76,0.79c-0.28,0.02-0.29,0.1-0.56,0.13c1.06,0.15,1.99-0.57,3.3-0.26c0.65-0.68,1.65-0.12,1.78-0.93
						l-2.52,0.42c1.42-0.34,2.68-1.39,5.09-1.16c-0.17,0.18-0.85,0.45-1.33,0.61c0.71,0.17,1.32-0.28,2.06-0.11
						c-0.13,0.81-3.07,0.46-4.55,1.21c0.77,0.26,2.86-0.84,2.17,0.08c1.01-1.19,2.73-0.12,4.53-1.12l-0.08,0.48
						c0.29-0.1,0.88-0.38,1.43-0.42l-0.93,0.71c1.47-0.66,2.96,0.18,4.39-0.24c-3.04,0.3-0.73-0.51-2.05-0.73
						c3.7-0.98,2.27,1.05,6.45,0.47c-0.56,0.11-2.16-0.11-1.29-0.4c0.81,0.03,1.88,0.13,2.39,0.34c2.78-0.32-0.47-0.45,0.69-0.84
						c1,0.5,1.35-0.35,2.56-0.63l0.05,0.48c3.2,0.05,0.76-1.07,3.65-0.93l-1.16,0.76l1.48-0.29l-0.27,0.57
						c1.59-0.53,2.11-0.45,3.71-0.41c-0.39-0.31,0.15-0.89,1.55-1c0.98,0.22-0.51,0.49,1.49,0.29c-0.43,0.33-0.9,0.74-1.8,0.36
						c-0.08,0.16-0.42,0.33-0.5,0.49c1.06,0.26,2.6-0.1,3.32-0.15c-0.28,0-0.61,0-0.79-0.06l2.85-0.86
						c0.47,0.15,0.12,0.32-0.23,0.49c0.58-0.09,0.97-0.34,1.83-0.44c-0.2,0.41-0.12,0.81-1.33,1.07l2.73-0.62
						c0.19,0.16,1.44,0.37,1.09,0.54c1.54,0.14,3.7-0.97,5.75-0.77c0.1-0.08,0.31-0.17,0.74-0.25c1.91-0.01,3.62,0.37,5.85-0.29
						l1.31,0.63c1.76-0.25-1.78-0.8,1.16-1.2c2.08-0.31,0.81,0.57,1.55,0.73c1.02-0.4,2.79-1.19,4.73-0.7
						C452.92,144.44,452.42,144.35,451.83,144.43z M473.65,143.41c-0.42,0.11-1.26,0.45-1.57,0.17
						C472.55,143.02,472.93,143.27,473.65,143.41z M506.87,142.12c-0.32,0.15-0.8,0.07-1.35-0.12
						C505.91,141.96,506.37,141.99,506.87,142.12z M599.63,144.09c-0.02,0.01-0.03,0.01-0.05,0.02
						C598.65,143.83,598.98,143.94,599.63,144.09z M601.56,144.5c0.2-0.05,0.2-0.11,0.12-0.19c-0.15,0.11-0.59,0.07-1.09-0.01
						C600.72,144.44,600.97,144.55,601.56,144.5z M390.54,144.4l0.39,0.08C390.09,144.71,390.31,144.56,390.54,144.4z"/>
					<path class="st1" d="M503.09,142.72c-0.12-0.08-0.15-0.17-0.18-0.26C502.75,142.54,502.74,142.63,503.09,142.72z"/>
					<path class="st1" d="M438.28,145.35l-0.07,0c-0.03,0.03-0.05,0.06-0.06,0.09L438.28,145.35z"/>
					<path class="st1" d="M570.88,145.84c-0.4-0.1-0.62-0.21-0.76-0.31C570.1,145.65,570.27,145.76,570.88,145.84z"/>
					<path class="st1" d="M612.03,144.83l-1.27-0.02c0.61,0.04,0.81,0.17,1.11,0.29C611.86,144.99,611.63,144.8,612.03,144.83z"/>
					<path class="st1" d="M622.53,149.12c0.19-0.04,0.39,0.04,0.58,0.01l-0.02-0.23C622.3,148.82,621.73,148.92,622.53,149.12z"/>
					<path class="st1" d="M613,146.57c0.05,0.41,0.85,0.37,1.74,0.4c-0.05,0-0.1-0.01-0.15-0.02
						C614.91,146.42,613.95,146.49,613,146.57z"/>
					<path class="st1" d="M614.94,146.98c0.27,0.01,0.55,0.04,0.81,0.09C615.88,146.85,615.43,146.98,614.94,146.98z"/>
					<path class="st1" d="M604.08,144.5c0.41,0.15,0.32-0.49,0.54-0.3C605.13,143.74,601.77,144.52,604.08,144.5z"/>
					<polygon class="st1" points="613.55,147.98 613.3,147.44 612.76,147.79 					"/>
					<path class="st1" d="M606.68,146.82l1.39,0.29c-0.01-0.09,0.17-0.12,0.39-0.13C607.6,146.88,606.66,146.67,606.68,146.82z"/>
					<path class="st1" d="M608.46,146.99c0.45,0.06,0.88,0.1,1.14,0.04C609.35,147.01,608.83,146.97,608.46,146.99z"/>
					<polygon class="st1" points="611.62,147.9 611.22,147.75 610.24,147.6 					"/>
					<path class="st1" d="M591.62,145.17l-1.54,0c-0.17,0.16,0.24,0.3,0.81,0.29C591.27,145.37,591.84,145.35,591.62,145.17z"/>
					<path class="st1" d="M596.11,146.99c-0.4-0.15-0.42-0.26-0.64-0.45l-0.11,0.61L596.11,146.99z"/>
					<path class="st1" d="M591.64,146.69c-0.17,0.16-2.27,0.28-0.32,0.43C591.49,146.96,593.03,146.97,591.64,146.69z"/>
					<polygon class="st1" points="568.64,143.96 569.03,143.98 569.05,142.96 					"/>
					<path class="st1" d="M548.14,145.11c1.8,0.34,0.46-0.61,2.09-0.22c0.44-0.22-1.33-0.32-0.88-0.5
						C548.24,144.59,547.68,144.42,548.14,145.11z"/>
					<path class="st1" d="M549.35,144.39c0.18-0.03,0.37-0.07,0.57-0.13C549.6,144.31,549.45,144.35,549.35,144.39z"/>
					<polygon class="st1" points="319.47,153.58 318.28,153.57 319.08,153.78 					"/>
					<path class="st1" d="M317.38,154.7l-0.38-0.59l-0.59,0.7C316.66,154.73,317.15,154.59,317.38,154.7z"/>
					<path class="st1" d="M476.92,144.67l0.09-0.16c-0.18-0.17-0.46-0.18-1.01-0.19L476.92,144.67z"/>
					<polygon class="st1" points="461.08,144.57 461.35,144.58 460.82,144.01 					"/>
					<path class="st1" d="M447.83,145.85c0.54,0,1.17-0.15,1.72-0.15C448.37,145.86,447.65,145.13,447.83,145.85z"/>
				</g>
			</g>
		</g>
	</g>
</g>
</svg>
