<?xml version="1.0" encoding="utf-8"?>
<!-- Generator: Adobe Illustrator 21.0.0, SVG Export Plug-In . SVG Version: 6.00 Build 0)  -->
<svg version="1.1" id="Capa_1" xmlns="http://www.w3.org/2000/svg" xmlns:xlink="http://www.w3.org/1999/xlink" x="0px" y="0px"
	 viewBox="0 0 530 168.5" style="enable-background:new 0 0 530 168.5;" xml:space="preserve">
<style type="text/css">
	.st0{fill:#FFFFFF;}
	.st1{fill:#E30613;}
</style>
<g>
	<title>Layer 1</title>
	<g id="svg_151">
		<g id="svg_3">
			<path id="svg_4" class="st0" d="M76.1,35.2c0,4.1-1.5,8-4.6,11.7c-3.3,4.1-7.3,6.1-11.8,6.1h-7.8V92h-9.9V4.4h17.7
				c4.6,0,8.6,2,12,6c3,3.6,4.5,7.4,4.5,11.6L76.1,35.2C76.1,35.2,76.1,35.2,76.1,35.2z M66.2,33.7v-10c0-2.7-0.7-4.9-2.3-6.7
				c-1.5-1.8-3.6-2.7-6.4-2.7h-5.7v28.9h5.7c2.3,0,4.3-1,6-2.9C65.3,38.4,66.2,36.2,66.2,33.7z"/>
			<path id="svg_5" class="st0" d="M111.5,92h-6.6l-2.2-3.8c-2.6,2.5-5.4,3.8-8.3,3.8c-4.7,0-8.8-1.7-12.1-5s-5-7.4-5-12.1
				c0-5.4,2.1-10,6.2-14c1.1-1,5-3.7,11.7-8.3c4.2-2.9,6.4-5.5,6.4-8.1v-3.8c0-1.9-0.7-3.6-2.1-5.1c-1.4-1.4-3.1-2.1-5.1-2.1
				c-3.5,0-5.8,1.6-6.8,4.9l-8.3-4.3c0.7-3.3,2.5-5.9,5.3-7.7c2.8-1.8,6.1-2.8,9.9-2.8c4.7,0,8.7,1.7,12.1,5c3.3,3.3,5,7.4,5,12.1
				L111.5,92L111.5,92z M101.6,74.9V57.2c0,1.8-1.2,3.5-3.6,5.3s-4.8,3.4-7.1,5c-2.4,2.2-3.7,4.7-3.7,7.4c0,2,0.7,3.7,2.1,5.1
				c1.4,1.4,3.1,2.1,5.1,2.1c1.9,0,3.6-0.7,5.1-2.1C100.9,78.6,101.6,76.9,101.6,74.9L101.6,74.9z"/>
			<path id="svg_6" class="st0" d="M153.9,74.9c0,4.7-1.7,8.8-5,12.1c-3.3,3.3-7.4,5-12.1,5s-8.8-1.7-12.1-5s-5-7.4-5-12.1v-4.8
				l9.9,2.2v2.6c0,2,0.7,3.7,2.1,5.1c1.4,1.4,3.1,2.1,5.1,2.1c1.9,0,3.6-0.7,5.1-2.1s2.1-3.1,2.1-5.1c0-3.9-2.1-7.5-6.4-10.9
				c-3.9-3-7.8-6-11.7-8.9c-4.1-4.1-6.2-9.2-6.2-15.3c0-4.7,1.7-8.8,5-12.1c3.3-3.3,7.4-5,12.1-5s8.7,1.7,12.1,5
				c3.3,3.3,5,7.4,5,12.1v4.8l-9.9-2.2v-2.6c0-2-0.7-3.7-2.1-5.1c-1.4-1.4-3.1-2.1-5.1-2.1c-2,0-3.7,0.7-5.1,2.1s-2.1,3.1-2.1,5.1
				c0,4.1,2.1,7.8,6.2,11.3c3.9,3.1,7.8,6.1,11.7,9.1C151.8,64.5,153.9,69.4,153.9,74.9z"/>
			<path id="svg_7" class="st0" d="M196.4,74.9c0,4.7-1.7,8.8-5,12.1c-3.3,3.3-7.4,5-12.1,5s-8.8-1.7-12.1-5s-5-7.4-5-12.1V40.7
				c0-4.7,1.7-8.7,5-12.1c3.3-3.3,7.4-5,12.1-5s8.7,1.7,12.1,5c3.3,3.3,5,7.4,5,12.1c0,5.6-0.7,9.9-2.3,12.7c-1.5,2.9-4.2,5.6-8,8.2
				c-4.7,3-9.4,6-14,9v4.1c0,2,0.7,3.7,2.1,5.1c1.4,1.4,3.1,2.1,5.1,2.1c1.9,0,3.6-0.7,5.1-2.1s2.1-3.1,2.1-5.1v-1.1l9.9-3.3
				C196.4,70.5,196.4,74.9,196.4,74.9z M186.5,40.7c0-1.9-0.7-3.6-2.1-5.1c-1.4-1.4-3.1-2.1-5.1-2.1c-2,0-3.7,0.7-5.1,2.1
				c-1.4,1.4-2.1,3.1-2.1,5.1v18.7c5.9-3.3,9.6-5.9,11.2-7.8C185.4,49.2,186.5,45.5,186.5,40.7z"/>
			<path id="svg_8" class="st0" d="M238.9,74.9c0,4.7-1.7,8.8-5,12.1c-3.3,3.3-7.4,5-12.1,5s-8.8-1.7-12.1-5s-5-7.4-5-12.1V40.7
				c0-4.7,1.7-8.7,5-12.1c3.3-3.3,7.4-5,12.1-5s8.7,1.7,12.1,5c3.3,3.3,5,7.4,5,12.1C238.9,40.7,238.9,74.9,238.9,74.9z M229,74.9
				V40.7c0-1.9-0.7-3.6-2.1-5.1c-1.4-1.4-3.1-2.1-5.1-2.1c-2,0-3.7,0.7-5.1,2.1c-1.4,1.4-2.1,3.1-2.1,5.1v34.2c0,2,0.7,3.7,2.1,5.1
				c1.4,1.4,3.1,2.1,5.1,2.1c1.9,0,3.6-0.7,5.1-2.1C228.3,78.6,229,76.9,229,74.9z"/>
		</g>
		<g id="svg_9">
			<path id="svg_10" class="st1" d="M304.8,11.9c-0.4,0.7-0.7,1.4-0.7,2c0,1.5-0.6,3-1.2,4.4c-1.1,2.7-2.7,5.7-3.4,8.6
				c-0.6,2-1.5,3.8-1.6,6c-0.6,4.5-2,8.7-3,13.1c-0.7,3.4-1.5,6.7-1.6,10.1c-0.1,2.3-0.7,4.6-0.3,6.9c0,0.4,0,0.7-0.1,1.1
				c-0.8,3.3-0.3,6.5-0.3,9.8c0.3,4.6,0.6,9.1,0.8,13.8c0,1.4,0.7,2.9,0.6,4.4c0,0.8,0.1,1.2,0.7,2c0.3,0.4-0.4,1.1-0.3,1.5
				c0.6,1,0.1,1.4-0.7,1.6c-1.2,0.1-2.2-0.1-3.1-1c-1.9-1.6-3.3-3.7-3.5-6.3c-0.4-3.5-1-6.9-1.2-10.5c-0.4-5-0.6-10-0.8-15
				c0-1,0-1.9,0-3c0-0.1-0.1-0.3-0.3-0.4s-0.3,0.1-0.4,0.1c-0.1,0.1-0.1,0.3-0.3,0.3c-0.8,1.6-1.6,3.3-2.5,4.9
				c-1.2,2.3-2.5,4.6-3.7,6.9c-0.4,0.6-0.7,1.1-1,1.6c-0.7,1.2-1.4,2.2-2.5,3c-1.1,0.7-1.9,1.6-2.7,2.5c-1.5,1.6-2.9,1.9-4.5,0.6
				c-5.6-4.6-7.5-13.9-5.6-21c1.6-6,4.8-11.7,8.3-16.8c0.8-1.1,2-1.8,2.9-2.9c0-0.1,0.3-0.1,0.4-0.1c1.8-0.3,3.7-0.6,5.4-0.6
				c1.1,0,2.2,0.6,2.9,1.5c0.1,0.1,0.3,0.3,0.4,0.4c1.6,0.8,1.8,2.3,1.8,4.1c0.1,1.1,0.4,2,0.7,3.1c0.1,0.1,0.4,0.3,0.6,0.4
				c0.1-0.1,0.3-0.3,0.3-0.6c0.3-0.6,0.4-1.2,0.7-1.8c1.5-3.1,1.8-6.7,2.7-10c1.1-4,2.3-7.8,3.4-11.7c0.7-2,1.6-4.8,2.3-6.9
				c0.6-1.4,1.1-2.6,1.6-4c1.1-2.7,3.1-4.6,4.1-7.4c0.6-1.1,1.4-1.6,2.3-1.8c0.6-0.1,1.2-0.1,1.4,0.8c0,0.7,0.6,0.8,1.1,0.8
				c0.6,0.1,0.8,0.4,0.7,1.1C305.5,9.3,305.5,10.7,304.8,11.9L304.8,11.9z M279.9,44.6c-0.4-2.3-2.9-3-4.4-1.4c-0.8,1-1.6,1.9-2.3,3
				c-0.6,0.8-1.4,1.6-1.5,2.6c-0.3,2.3-0.6,4.1-1.2,6.7c-0.3,1.2-0.7,1.8-1,3c-0.4,1.9-0.6,3-0.7,5c-0.1,3.3,0.3,5.7,0.4,8.3
				c0,0.6,1.2,0,1.4-0.1c0.3-0.3,0.4-0.4,0.6-0.7c1.4-1.9,2.7-3.7,4-5.6c1.4-1.8,3-3,3.8-5.4c0.1-0.6,0.1-0.8,0.3-1.2
				c0.4-1.1,1.1-1.5,1.5-2.7c0.6-1.6,0.3-2.7,0.1-4.2C280.7,49.4,280.3,46.9,279.9,44.6L279.9,44.6z"/>
			<path id="svg_11" class="st1" d="M332.7,56.4c-1.2,3-5.4,7.2-7.2,9.8c-1.9,2.9-7.5,9.4-9.7,12c-1.6,1.9-4,2.9-6.4,2.6
				c-1.8-0.1-3.7-0.4-5.4-1.6c-2.6-2-4.5-4.5-4.6-7.9c-0.1-1.1-0.3-2.3-0.3-3.4c0.1-3.5,0.7-7.1,1.8-10.5c1-2.7,1.8-5.4,2.9-8
				c1.8-4.1,4-7.9,7.1-11.2c0.8-0.8,1.6-1.4,2.9-1.4c1,0,1.8,0,2.6-0.1c2-0.3,3.5,0.8,4.8,2.5c0.7,1,1.4,1.8,1.9,2.9
				c0.3,0.4,0.4,1.1,0.3,1.5c-0.7,2.6-1.2,5.2-2.5,7.5s-2.9,4.1-4.6,5.9c-1.9,1.6-3.5,3.5-5.9,4.9c-0.6,0.3-1,1.1-1.5,1.6
				c-0.3,0.1-0.4,0.6-0.7,0.6c-1.2,0.3-1.5,1.4-1.6,2.5c-0.3,2.7-0.7,5.3,0.3,8.2c0.4,1.1,0.8,1.5,1.9,1c1.6-0.7,3.1-1.5,4.8-2.3
				v0.1v-0.1c2.5-2,8.7-8,10.9-10.4c1.2-1.4,4.6-4.1,5.6-5.4c0.6-0.8,1.4-1.6,2.3-1.8c0.3,0,0.6,0.1,0.7,0.4
				C332.9,56.2,332.9,56.3,332.7,56.4z M318.8,40.9c-0.1-0.4-0.6-0.6-0.8-1c-0.7-1-1.2-1.1-2-0.3c-0.4,0.6-0.7,1.2-1.1,1.8
				c-0.3,0.6-0.4,1.2-0.7,1.8c-0.7,1.4-1.2,2.7-1.6,4.2c-0.4,1.8-1.2,3.4-2.5,4.8c-0.7,1-1,2-1.2,2.7c0,1.4,0.3,1.6,1.2,1.1
				c2.3-1.4,4.2-3.3,5.9-5.4c1.6-2.5,2.3-5.3,3.3-7.9C319.4,42.1,319.1,41.4,318.8,40.9z"/>
		</g>
		<g id="svg_12">
			<path id="svg_13" class="st0" d="M375.5,74.9c0,4.7-1.7,8.8-5,12.1s-7.4,5-12.1,5s-8.8-1.7-12.1-5s-5-7.4-5-12.1V40.7
				c0-4.7,1.7-8.7,5-12.1c3.3-3.3,7.4-5,12.1-5s8.7,1.7,12.1,5c3.3,3.3,5,7.4,5,12.1C375.5,40.7,375.5,74.9,375.5,74.9z M365.6,74.9
				V40.7c0-1.9-0.7-3.6-2.1-5.1c-1.4-1.4-3.1-2.1-5.1-2.1c-2,0-3.7,0.7-5.1,2.1c-1.4,1.4-2.1,3.1-2.1,5.1v34.2c0,2,0.7,3.7,2.1,5.1
				s3.1,2.1,5.1,2.1c1.9,0,3.6-0.7,5.1-2.1S365.6,76.9,365.6,74.9z"/>
			<path id="svg_14" class="st0" d="M393.7,92h-9.9V7.7l9.9-3.3V92z"/>
			<path id="svg_15" class="st0" d="M410.9,92H401V7.7l9.9-3.3V92z"/>
			<path id="svg_16" class="st0" d="M452.4,92h-6.6l-2.2-3.8c-2.6,2.5-5.4,3.8-8.3,3.8c-4.7,0-8.8-1.7-12.1-5s-5-7.4-5-12.1
				c0-5.4,2.1-10,6.2-14c1.1-1,5-3.7,11.7-8.3c4.2-2.9,6.4-5.5,6.4-8.1v-3.8c0-1.9-0.7-3.6-2.1-5.1c-1.4-1.4-3.1-2.1-5.1-2.1
				c-3.5,0-5.8,1.6-6.8,4.9l-8.3-4.3c0.7-3.3,2.5-5.9,5.3-7.7c2.8-1.8,6.1-2.8,9.9-2.8c4.7,0,8.7,1.7,12.1,5c3.3,3.3,5,7.4,5,12.1
				L452.4,92L452.4,92z M442.5,74.9V57.2c0,1.8-1.2,3.5-3.6,5.3s-4.8,3.4-7.1,5c-2.4,2.2-3.7,4.7-3.7,7.4c0,2,0.7,3.7,2.1,5.1
				s3.1,2.1,5.1,2.1c1.9,0,3.6-0.7,5.1-2.1C441.8,78.6,442.5,76.9,442.5,74.9L442.5,74.9z"/>
		</g>
		<g id="svg_29">
			<path id="svg_30" class="st0" d="M13.7,142.2c2,0,3.6,0.6,4.8,1.8c1.2,1.2,1.8,2.7,1.8,4.6c0,1.9-0.6,3.4-1.8,4.6
				s-2.8,1.7-4.9,1.7H8.2v-12.7H13.7z M13.7,143.6H9.8v9.7h3.9c1.6,0,2.8-0.4,3.7-1.3c0.9-0.9,1.3-2.1,1.3-3.5
				c0-1.5-0.5-2.7-1.4-3.5S15.2,143.6,13.7,143.6L13.7,143.6z"/>
			<path id="svg_31" class="st0" d="M20.7,154.8l6.2-12.7h1.3l6.3,12.7h-1.7l-1.7-3.4h-7l-1.7,3.4H20.7z M24.8,150h5.6l-2.8-5.6
				L24.8,150z"/>
			<path id="svg_32" class="st0" d="M36.5,154.8v-12.7H38v11.2h8.3v1.5H36.5z"/>
			<path id="svg_33" class="st0" d="M48.2,154.8v-12.7h10v1.5h-8.4v3.7h5.1v1.5h-5.1v4.6h8.9v1.5L48.2,154.8L48.2,154.8L48.2,154.8z
				"/>
			<path id="svg_34" class="st0" d="M68.8,154.8v-12.7H76c1.2,0,2.2,0.3,2.9,0.9s1.1,1.5,1.1,2.5c0,1.1-0.3,2-1,2.7
				c-0.7,0.7-1.6,1-2.7,1h-5.9v5.5L68.8,154.8L68.8,154.8L68.8,154.8z M70.3,147.8h5.6c0.8,0,1.4-0.2,1.8-0.5
				c0.4-0.4,0.6-0.9,0.6-1.6c0-0.7-0.2-1.2-0.6-1.6c-0.4-0.4-1-0.6-1.7-0.6h-5.7L70.3,147.8L70.3,147.8L70.3,147.8z"/>
			<path id="svg_35" class="st0" d="M82.6,154.8v-12.7h1.6v11.2h8.3v1.5H82.6z"/>
			<path id="svg_36" class="st0" d="M92.4,154.8l6.2-12.7h1.3l6.3,12.7h-1.7l-1.7-3.4h-7l-1.7,3.4H92.4z M96.5,150h5.6l-2.8-5.6
				L96.5,150z"/>
			<path id="svg_37" class="st0" d="M110.2,154.8v-6.3l-5.7-6.3h2l4.5,5l4.5-5h2l-5.7,6.3v6.3H110.2z"/>
			<path id="svg_38" class="st0" d="M124.2,154.8l6.2-12.7h1.3l6.3,12.7h-1.7l-1.7-3.4h-7l-1.7,3.4H124.2z M128.3,150h5.6l-2.8-5.6
				L128.3,150z"/>
			<path id="svg_39" class="st0" d="M147.7,154.8v-12.7h1.6v11.2h8.3v1.5H147.7z"/>
			<path id="svg_40" class="st0" d="M164.6,155.2c-1.9,0-3.5-0.6-4.7-1.9c-1.2-1.2-1.8-2.8-1.8-4.8s0.6-3.5,1.9-4.8s2.8-1.9,4.7-1.9
				s3.5,0.6,4.7,1.9c1.2,1.3,1.9,2.8,1.9,4.8s-0.6,3.5-1.9,4.8C168.1,154.5,166.5,155.2,164.6,155.2z M164.6,153.7
				c1.4,0,2.6-0.5,3.5-1.5c0.9-1,1.4-2.2,1.4-3.7c0-1.5-0.5-2.7-1.4-3.7c-0.9-1-2.1-1.5-3.5-1.5c-1.4,0-2.6,0.5-3.5,1.5
				c-0.9,1-1.4,2.2-1.4,3.7s0.5,2.7,1.4,3.7C162,153.2,163.2,153.7,164.6,153.7z"/>
			<path id="svg_41" class="st0" d="M172.7,152.9l0.9-1.4c0.9,0.7,1.8,1.2,2.8,1.6c1,0.4,1.9,0.6,2.9,0.6c1.2,0,2.1-0.3,2.9-0.7
				s1.1-1.1,1.1-1.9c0-0.6-0.3-1.1-0.8-1.5c-0.5-0.4-1.2-0.6-2.2-0.7c-0.2,0-0.5,0-1-0.1c-2.1-0.1-3.5-0.4-4.2-0.7
				c-0.6-0.3-1-0.6-1.3-1.1s-0.5-0.9-0.5-1.5c0-1,0.5-1.8,1.4-2.5c0.9-0.6,2.1-1,3.5-1c1.1,0,2.1,0.2,3.1,0.5c1,0.4,2,0.9,2.9,1.5
				l-0.9,1.3c-0.8-0.6-1.6-1.1-2.5-1.4s-1.8-0.5-2.7-0.5c-1,0-1.7,0.2-2.4,0.6c-0.6,0.4-0.9,0.8-0.9,1.4c0,0.2,0.1,0.4,0.2,0.6
				s0.3,0.4,0.5,0.5c0.5,0.4,1.6,0.6,3.4,0.7c0.8,0,1.4,0.1,1.8,0.2c1.3,0.1,2.3,0.6,3,1.2c0.7,0.7,1.1,1.5,1.1,2.5
				c0,1.2-0.5,2.2-1.5,2.9s-2.4,1.1-4,1.1c-1.3,0-2.4-0.2-3.5-0.6C174.7,154.3,173.7,153.7,172.7,152.9L172.7,152.9z"/>
			<path id="svg_42" class="st0" d="M195.7,154.8v-12.7h1.5l5.1,7.7l5.2-7.7h1.4v12.7h-1.6V145l-5,7.5l-5-7.5v9.9L195.7,154.8
				L195.7,154.8z"/>
			<path id="svg_43" class="st0" d="M212.5,154.8v-12.7h10v1.5h-8.4v3.7h5.1v1.5h-5.1v4.6h8.9v1.5L212.5,154.8L212.5,154.8
				L212.5,154.8z"/>
			<path id="svg_44" class="st0" d="M223.9,149.4h1.6v2c0,0.8,0.3,1.4,0.9,1.8c0.6,0.4,1.6,0.6,2.9,0.6c1.3,0,2.2-0.2,2.7-0.7
				c0.5-0.5,0.7-1.3,0.7-2.6v-8.2h1.6v8.6c0,1.6-0.4,2.7-1.2,3.4c-0.8,0.7-2.2,1-4.1,1c-1.7,0-3-0.3-3.9-0.9s-1.3-1.6-1.3-2.8
				L223.9,149.4L223.9,149.4L223.9,149.4z"/>
			<path id="svg_45" class="st0" d="M243.5,155.2c-1.9,0-3.5-0.6-4.7-1.9c-1.2-1.2-1.8-2.8-1.8-4.8s0.6-3.5,1.9-4.8s2.8-1.9,4.7-1.9
				s3.5,0.6,4.7,1.9c1.2,1.3,1.9,2.8,1.9,4.8s-0.6,3.5-1.9,4.8C247,154.5,245.4,155.2,243.5,155.2z M243.5,153.7
				c1.4,0,2.6-0.5,3.5-1.5c0.9-1,1.4-2.2,1.4-3.7c0-1.5-0.5-2.7-1.4-3.7c-0.9-1-2.1-1.5-3.5-1.5c-1.4,0-2.6,0.5-3.5,1.5
				c-0.9,1-1.4,2.2-1.4,3.7s0.5,2.7,1.4,3.7C240.9,153.2,242.1,153.7,243.5,153.7z"/>
			<path id="svg_46" class="st0" d="M252.8,154.8v-12.7h7.3c1.2,0,2.2,0.3,2.9,0.9c0.7,0.6,1.1,1.5,1.1,2.6c0,0.9-0.3,1.7-0.8,2.4
				c-0.6,0.6-1.3,1.1-2.2,1.2l3.2,5.6h-1.8l-3.2-5.5h-4.9v5.5L252.8,154.8L252.8,154.8z M254.4,147.8h5.6c0.8,0,1.4-0.2,1.8-0.5
				c0.4-0.4,0.6-0.9,0.6-1.6c0-0.7-0.2-1.2-0.6-1.6c-0.4-0.4-1-0.6-1.7-0.6h-5.7L254.4,147.8L254.4,147.8L254.4,147.8z"/>
			<path id="svg_47" class="st0" d="M266.9,154.8v-12.7h10v1.5h-8.4v3.7h5.1v1.5h-5.1v4.6h8.9v1.5L266.9,154.8L266.9,154.8
				L266.9,154.8z"/>
			<path id="svg_48" class="st0" d="M278.5,152.9l0.9-1.4c0.9,0.7,1.8,1.2,2.8,1.6c1,0.4,1.9,0.6,2.9,0.6c1.2,0,2.1-0.3,2.9-0.7
				s1.1-1.1,1.1-1.9c0-0.6-0.3-1.1-0.8-1.5s-1.2-0.6-2.2-0.7c-0.2,0-0.5,0-1-0.1c-2.1-0.1-3.5-0.4-4.2-0.7c-0.6-0.3-1-0.6-1.3-1.1
				s-0.5-0.9-0.5-1.5c0-1,0.5-1.8,1.4-2.5c0.9-0.6,2.1-1,3.5-1c1.1,0,2.1,0.2,3.1,0.5c1,0.4,2,0.9,2.9,1.5l-0.9,1.3
				c-0.8-0.6-1.6-1.1-2.5-1.4s-1.8-0.5-2.7-0.5c-1,0-1.7,0.2-2.4,0.6c-0.6,0.4-0.9,0.8-0.9,1.4c0,0.2,0.1,0.4,0.2,0.6
				s0.3,0.4,0.5,0.5c0.5,0.4,1.6,0.6,3.4,0.7c0.8,0,1.4,0.1,1.8,0.2c1.3,0.1,2.3,0.6,3,1.2c0.7,0.7,1.1,1.5,1.1,2.5
				c0,1.2-0.5,2.2-1.5,2.9c-1,0.8-2.4,1.1-4,1.1c-1.3,0-2.4-0.2-3.5-0.6C280.5,154.3,279.5,153.7,278.5,152.9L278.5,152.9z"/>
			<path id="svg_49" class="st0" d="M301.5,154.8v-12.7h7.3c1.2,0,2.2,0.3,2.9,0.9s1.1,1.5,1.1,2.5c0,1.1-0.3,2-1,2.7
				c-0.7,0.7-1.6,1-2.7,1H303v5.5L301.5,154.8L301.5,154.8z M303,147.8h5.6c0.8,0,1.4-0.2,1.8-0.5c0.4-0.4,0.6-0.9,0.6-1.6
				c0-0.7-0.2-1.2-0.6-1.6c-0.4-0.4-1-0.6-1.7-0.6H303L303,147.8L303,147.8L303,147.8z"/>
			<path id="svg_50" class="st0" d="M315.3,154.8v-12.7h1.6v11.2h8.3v1.5H315.3L315.3,154.8z"/>
			<path id="svg_51" class="st0" d="M325.1,154.8l6.2-12.7h1.3l6.3,12.7h-1.7l-1.7-3.4h-7l-1.7,3.4H325.1z M329.2,150h5.6l-2.8-5.6
				L329.2,150z"/>
			<path id="svg_52" class="st0" d="M341.8,154.8v-11.2h-5.3v-1.5h12.2v1.5h-5.3v11.2H341.8z"/>
			<path id="svg_53" class="st0" d="M354.9,155.2c-1.9,0-3.5-0.6-4.7-1.9c-1.2-1.2-1.8-2.8-1.8-4.8s0.6-3.5,1.9-4.8s2.8-1.9,4.7-1.9
				s3.5,0.6,4.7,1.9c1.2,1.3,1.9,2.8,1.9,4.8s-0.6,3.5-1.9,4.8C358.3,154.5,356.8,155.2,354.9,155.2z M354.9,153.7
				c1.4,0,2.6-0.5,3.5-1.5c0.9-1,1.4-2.2,1.4-3.7c0-1.5-0.5-2.7-1.4-3.7c-0.9-1-2.1-1.5-3.5-1.5c-1.4,0-2.6,0.5-3.5,1.5
				c-0.9,1-1.4,2.2-1.4,3.7s0.5,2.7,1.4,3.7C352.3,153.2,353.5,153.7,354.9,153.7z"/>
			<path id="svg_54" class="st0" d="M363,152.9l0.9-1.4c0.9,0.7,1.8,1.2,2.8,1.6c1,0.4,1.9,0.6,2.9,0.6c1.2,0,2.1-0.3,2.9-0.7
				s1.1-1.1,1.1-1.9c0-0.6-0.3-1.1-0.8-1.5s-1.2-0.6-2.2-0.7c-0.2,0-0.5,0-1-0.1c-2.1-0.1-3.5-0.4-4.2-0.7c-0.6-0.3-1-0.6-1.3-1.1
				c-0.3-0.5-0.5-0.9-0.5-1.5c0-1,0.5-1.8,1.4-2.5c0.9-0.6,2.1-1,3.5-1c1.1,0,2.1,0.2,3.1,0.5c1,0.4,2,0.9,2.9,1.5l-0.9,1.3
				c-0.8-0.6-1.6-1.1-2.5-1.4s-1.8-0.5-2.7-0.5c-1,0-1.7,0.2-2.4,0.6c-0.6,0.4-0.9,0.8-0.9,1.4c0,0.2,0.1,0.4,0.2,0.6
				s0.3,0.4,0.5,0.5c0.5,0.4,1.6,0.6,3.4,0.7c0.8,0,1.4,0.1,1.8,0.2c1.3,0.1,2.3,0.6,3,1.2c0.7,0.7,1.1,1.5,1.1,2.5
				c0,1.2-0.5,2.2-1.5,2.9s-2.4,1.1-4,1.1c-1.3,0-2.4-0.2-3.5-0.6C365,154.3,364,153.7,363,152.9L363,152.9z"/>
			<path id="svg_55" class="st0" d="M391.5,142.2c2,0,3.6,0.6,4.8,1.8c1.2,1.2,1.8,2.7,1.8,4.6c0,1.9-0.6,3.4-1.8,4.6
				c-1.2,1.1-2.8,1.7-4.9,1.7h-5.4v-12.7H391.5L391.5,142.2z M391.5,143.6h-3.9v9.7h3.9c1.6,0,2.8-0.4,3.7-1.3
				c0.9-0.9,1.3-2.1,1.3-3.5c0-1.5-0.5-2.7-1.4-3.5S393,143.6,391.5,143.6L391.5,143.6z"/>
			<path id="svg_56" class="st0" d="M400.9,154.8v-12.7h10v1.5h-8.4v3.7h5.1v1.5h-5.1v4.6h8.9v1.5L400.9,154.8L400.9,154.8
				L400.9,154.8z"/>
			<path id="svg_57" class="st0" d="M431.6,150.8l1.3,0.9c-0.6,1.1-1.4,1.9-2.4,2.5c-1,0.6-2.2,0.9-3.4,0.9c-1.9,0-3.5-0.6-4.7-1.9
				c-1.2-1.2-1.8-2.8-1.8-4.8s0.6-3.5,1.9-4.8s2.8-1.9,4.7-1.9c1.2,0,2.2,0.3,3.2,0.8c1,0.5,1.8,1.2,2.4,2.2l-1.3,0.9
				c-0.4-0.8-1-1.4-1.7-1.8c-0.7-0.4-1.6-0.6-2.5-0.6c-1.4,0-2.6,0.5-3.5,1.5c-0.9,1-1.4,2.2-1.4,3.7s0.5,2.7,1.4,3.7
				s2.1,1.5,3.5,1.5c1,0,1.9-0.2,2.7-0.7S431.1,151.8,431.6,150.8L431.6,150.8z"/>
			<path id="svg_58" class="st0" d="M441.2,155.2c-1.9,0-3.5-0.6-4.7-1.9c-1.2-1.2-1.8-2.8-1.8-4.8s0.6-3.5,1.9-4.8s2.8-1.9,4.7-1.9
				s3.5,0.6,4.7,1.9c1.2,1.3,1.9,2.8,1.9,4.8s-0.6,3.5-1.9,4.8C444.7,154.5,443.1,155.2,441.2,155.2z M441.2,153.7
				c1.4,0,2.6-0.5,3.5-1.5c0.9-1,1.4-2.2,1.4-3.7c0-1.5-0.5-2.7-1.4-3.7c-0.9-1-2.1-1.5-3.5-1.5c-1.4,0-2.6,0.5-3.5,1.5
				c-0.9,1-1.4,2.2-1.4,3.7s0.5,2.7,1.4,3.7C438.6,153.2,439.8,153.7,441.2,153.7z"/>
			<path id="svg_59" class="st0" d="M450.6,154.8v-12.7h1.6v11.2h8.3v1.5H450.6L450.6,154.8z"/>
			<path id="svg_60" class="st0" d="M467.5,155.2c-1.9,0-3.5-0.6-4.7-1.9c-1.2-1.2-1.8-2.8-1.8-4.8s0.6-3.5,1.9-4.8s2.8-1.9,4.7-1.9
				s3.5,0.6,4.7,1.9c1.2,1.3,1.9,2.8,1.9,4.8s-0.6,3.5-1.9,4.8C470.9,154.5,469.3,155.2,467.5,155.2z M467.5,153.7
				c1.4,0,2.6-0.5,3.5-1.5c0.9-1,1.4-2.2,1.4-3.7c0-1.5-0.5-2.7-1.4-3.7c-0.9-1-2.1-1.5-3.5-1.5c-1.4,0-2.6,0.5-3.5,1.5
				c-0.9,1-1.4,2.2-1.4,3.7s0.5,2.7,1.4,3.7C464.9,153.2,466,153.7,467.5,153.7z"/>
			<path id="svg_61" class="st0" d="M476.7,154.8v-12.7h1.5l5.1,7.7l5.2-7.7h1.4v12.7h-1.6V145l-5,7.5l-5-7.5v9.9L476.7,154.8
				L476.7,154.8z"/>
			<path id="svg_62" class="st0" d="M493.6,154.8v-12.7h7.5c1.2,0,2.2,0.3,2.8,0.8c0.6,0.5,1,1.3,1,2.4c0,0.5-0.1,1-0.3,1.4
				c-0.2,0.4-0.5,0.7-0.8,1c0.7,0.4,1.2,0.9,1.5,1.4c0.3,0.6,0.5,1.2,0.5,1.9c0,1.2-0.4,2.1-1.2,2.8c-0.8,0.7-1.8,1-3.1,1H493.6
				L493.6,154.8z M495.1,147.2h6.1c0.7,0,1.2-0.2,1.5-0.5s0.5-0.7,0.5-1.3c0-0.6-0.2-1-0.5-1.3s-0.8-0.5-1.5-0.5h-6.1L495.1,147.2
				L495.1,147.2z M495.1,153.4h6.6c0.7,0,1.3-0.2,1.7-0.6c0.4-0.4,0.6-1,0.6-1.7c0-0.7-0.2-1.3-0.6-1.7c-0.4-0.4-1-0.6-1.7-0.6h-6.6
				V153.4L495.1,153.4z"/>
			<path id="svg_63" class="st0" d="M508.9,154.8v-12.7h1.6v12.7H508.9z"/>
			<path id="svg_64" class="st0" d="M512.4,154.8l6.2-12.7h1.3l6.3,12.7h-1.7l-1.7-3.4h-7l-1.7,3.4H512.4z M516.5,150h5.6l-2.8-5.6
				L516.5,150z"/>
		</g>
		<g id="svg_65">
			<g id="svg_66">
				<g id="svg_67">
					<g id="svg_68">
						<g id="svg_69">
							<path id="svg_70" class="st1" d="M509.5,122.6c0.7,0.2,0.6-0.5,0.7-0.5C509,121.9,509.5,122.7,509.5,122.6z"/>
							<polygon id="svg_71" class="st1" points="497.3,121.9 497.5,121.6 495.7,121.9 							"/>
							<path id="svg_72" class="st1" d="M486,120c0.9,1.1,4.1,0.5,6,1.2l0.3,0.3l1-0.6C491,120.6,487.7,120.6,486,120L486,120z"/>
							<path id="svg_73" class="st1" d="M480.4,117c0.3,0.4-1.4,0.1,1.4,0.3c-0.1-0.1-0.2-0.1-0.2-0.1
								C481.3,117.1,480.9,117.1,480.4,117z"/>
							<path id="svg_74" class="st1" d="M481.5,117.2C482.7,117.3,480.8,116.7,481.5,117.2L481.5,117.2z"/>
							<path id="svg_75" class="st1" d="M476,116.6l1.6-0.1c-0.3-0.3-1.7-0.6-1.1-0.6C474.9,115.8,475.1,116,476,116.6z"/>
							<path id="svg_76" class="st1" d="M474.4,117.1l0.8,0C475.1,116.9,474.9,116.9,474.4,117.1z"/>
							<path id="svg_77" class="st1" d="M477,117l-1.8,0.1c0.2,0.2,0.2,0.5,0.8,0C475.9,117.3,476.2,117.1,477,117L477,117z"/>
							<path id="svg_78" class="st1" d="M478,117.3c0.8,0.4,2,0.7,0.3,0.8C481.3,118.4,481,117.6,478,117.3z"/>
							<path id="svg_79" class="st1" d="M485.3,121l1.1,0.5l1.1-0.2C487,121.4,485.3,120.7,485.3,121z"/>
							<path id="svg_80" class="st1" d="M466.3,114.6c-0.1,0.2,0.5,0.6,0.5,0.9l1.2-0.1C467.5,115.3,466.4,115,466.3,114.6
								L466.3,114.6z"/>
							<path id="svg_81" class="st1" d="M466.8,115.6l-1.8,0.1C466.6,115.9,466.9,115.8,466.8,115.6z"/>
							<polygon id="svg_82" class="st1" points="474,118.1 476.9,117.8 473.4,118.1 							"/>
							<polygon id="svg_83" class="st1" points="459.7,113.7 460.8,113.3 458.9,113.8 							"/>
							<path id="svg_84" class="st1" d="M455.3,113.2c0.8-0.3-0.9-0.8-0.1-1c-1.2-0.1-2.3,0.1-3.2,0.3
								C453,112.5,454,112.7,455.3,113.2z"/>
							<path id="svg_85" class="st1" d="M450.4,112.8c0.5,0,1-0.1,1.6-0.3C451.4,112.5,450.9,112.6,450.4,112.8z"/>
							<path id="svg_86" class="st1" d="M462.1,115.2c-0.1-0.1-0.3-0.5-1.3-0.8l0.6,0.7C461.7,115.1,461.9,115.1,462.1,115.2z"/>
							<path id="svg_87" class="st1" d="M461.5,115.1L461.5,115.1c-0.8-0.1-1.3-0.2-1.5-0.3C460.2,114.9,460.6,114.9,461.5,115.1z"
								/>
							<path id="svg_88" class="st1" d="M462.3,115.2c-0.1,0-0.1,0-0.2,0C462.2,115.2,462.2,115.3,462.3,115.2z"/>
							<path id="svg_89" class="st1" d="M469.5,116.9c-1.1,0.2-3.2,0.2-1.3,1C469,117.7,467.9,117.2,469.5,116.9z"/>
							<path id="svg_90" class="st1" d="M463.1,116l1.8,0.4c0-0.2-0.3-0.4,0.2-0.5L463.1,116L463.1,116z"/>
							<polygon id="svg_91" class="st1" points="462.1,116.1 463.1,116 462.4,115.9 							"/>
							<path id="svg_92" class="st1" d="M453.5,113.7c-0.8,0.2-1.7,0.1-2.7,0c1,0.3,2.1,0.5,3.1,0.6
								C454.1,114.2,454.6,113.9,453.5,113.7L453.5,113.7z"/>
							<path id="svg_93" class="st1" d="M457.3,114.4c-0.1,0-0.1,0-0.2,0C457.3,114.5,457.3,114.5,457.3,114.4z"/>
							<polygon id="svg_94" class="st1" points="441.1,112.5 441.2,112.6 441.3,112.5 							"/>
							<path id="svg_95" class="st1" d="M454.1,114.5c0.8,0.2,1.3,0.1,1.7,0c-0.6,0-1.2-0.1-1.9-0.2
								C453.8,114.4,453.8,114.4,454.1,114.5z"/>
							<path id="svg_96" class="st1" d="M447.7,112.7c0.4,0.2,0.8,0.3,1.3,0.5C448.6,113,447.8,112.6,447.7,112.7z"/>
							<path id="svg_97" class="st1" d="M456.9,114.3c0,0,0.1,0,0.1,0C456.8,114.1,456.8,114.2,456.9,114.3z"/>
							<path id="svg_98" class="st1" d="M456.9,114.3c-0.4,0-0.8,0.1-1.1,0.2c0.5,0,0.9,0,1.3,0C457.1,114.4,457,114.3,456.9,114.3z
								"/>
							<path id="svg_99" class="st1" d="M437.7,116c0.2-0.5,2.4-0.8,4.1,0c1.8-0.2,0.9-2.2-0.5-3.4c-0.1,0.2-0.1,0.5-2,0.6
								c0.6,0.4,4,1.2,2.4,1.5c-2.4,0-1.9-0.4-3.1-0.9c0.9,0.8-3.2,0.6-2.8,1.7l2.2-0.1C437.9,115.6,437.1,115.8,437.7,116
								L437.7,116z"/>
							<path id="svg_100" class="st1" d="M444.7,113.1l0.8,0c-0.8-0.2-1.4-0.5-2.5-1.1c-1.3,0.1-1.6,0.3-1.7,0.5l3.7,0.6
								L444.7,113.1z"/>
							<path id="svg_101" class="st1" d="M448.8,113.6c-0.7,0.5-2.5,0.6-1.5,1.4c2.2,0.2,1.6-0.3,2.9-0.4
								C446.7,114.2,451.4,114.3,448.8,113.6c0.7,0.1,1.4,0.1,1.9,0.2c-0.6-0.2-1.2-0.3-1.8-0.5c0,0,0.1,0,0.1,0h0v0
								c0.1,0.1,0.2,0.1,0,0.1c0,0-0.1,0-0.1,0C449,113.4,448.9,113.5,448.8,113.6c-1-0.3-0.1-0.2,0.2-0.2c0,0,0-0.1,0.1-0.1l0,0
								l-3.6-0.1C446.2,113.3,447.1,113.4,448.8,113.6z"/>
							<path id="svg_102" class="st1" d="M466.2,119c-0.1-0.1-0.1-0.1-0.1-0.2C465.9,118.9,465.8,118.9,466.2,119z"/>
							<path id="svg_103" class="st1" d="M464.8,118.4c0.3,0,0.5-0.3,1.3-0.1c0.7,0.3,0,0.3,0,0.5c0.5-0.1,1.8-0.2,0.3-0.7l-0.3,0
								c-1.4-0.4-3.1-1.4-2.9-1.5C463.6,117.3,463.9,117.8,464.8,118.4L464.8,118.4z"/>
							<path id="svg_104" class="st1" d="M456.7,116.1l-3-0.1l1.4,0.7l0-0.3C456.8,116.8,456.4,116.3,456.7,116.1L456.7,116.1z"/>
							<polygon id="svg_105" class="st1" points="440.8,112.1 441.3,111.6 439.5,112.2 							"/>
							<polygon id="svg_106" class="st1" points="436.9,111.8 437.2,111.2 436.1,111.4 							"/>
							<path id="svg_107" class="st1" d="M219,109l-0.9,0.2C218.5,109.2,218.8,109.1,219,109z"/>
							<path id="svg_108" class="st1" d="M225.3,108.9l0.1-0.3C225.1,108.8,225,108.9,225.3,108.9z"/>
							<path id="svg_109" class="st1" d="M342.2,103.5c-1.2-0.6-2.6-1.5-2.5-0.8l0.4,0.6C340.9,103.3,341.6,103.4,342.2,103.5z"/>
							<path id="svg_110" class="st1" d="M277,105.1c0.1,0.1,0.2,0.1,0.4,0.2c0.3-0.2,0.6-0.4,0.9-0.6
								C277.9,104.9,277.5,105,277,105.1L277,105.1z"/>
							<path id="svg_111" class="st1" d="M276.1,107.7l-1.7-0.4C274.8,107.4,275.3,107.5,276.1,107.7z"/>
							<path id="svg_112" class="st1" d="M184.6,111.2l-1,0.7C185.2,111.8,184.5,111.5,184.6,111.2z"/>
							<path id="svg_113" class="st1" d="M397.5,107.8c-1.1-0.3-1.9-0.5-2.7-0.6C396.1,107.6,397.1,108.2,397.5,107.8z"/>
							<path id="svg_114" class="st1" d="M221.3,102.5c-0.5,0.1-0.8,0.3-0.7,0.4C221.1,102.7,221.4,102.6,221.3,102.5z"/>
							<path id="svg_115" class="st1" d="M391.6,106.9c0.2,0.1,0.4,0.1,0.6,0.2c0.8,0,1.6,0,2.6,0.1
								C393.8,106.8,392.7,106.5,391.6,106.9z"/>
							<path id="svg_116" class="st1" d="M60.2,123c-0.1,0-0.2,0-0.3,0C59.9,123,60,123,60.2,123z"/>
							<path id="svg_117" class="st1" d="M23.2,122.5c0.4-0.1,0.9-0.2,1.5-0.3C24.4,122.2,23.9,122.2,23.2,122.5z"/>
							<path id="svg_118" class="st1" d="M421.5,109.7C422.3,109.8,421.6,109.7,421.5,109.7L421.5,109.7z"/>
							<path id="svg_119" class="st1" d="M425.2,112.6c-0.2,0-0.3,0.1-0.4,0.3C424.9,112.7,425,112.6,425.2,112.6z"/>
							<path id="svg_120" class="st1" d="M383.1,110C383.1,110,383.1,110,383.1,110C383.3,110.1,383.2,110.1,383.1,110z"/>
							<path id="svg_121" class="st1" d="M422.7,110.1c-0.3-0.1-0.6-0.2-1-0.3C421.8,109.9,422.1,110,422.7,110.1z"/>
							<path id="svg_122" class="st1" d="M422.6,109.8c0.3,0.1,0.5,0.1,0.7,0.1C423.4,109.9,423.3,109.8,422.6,109.8z"/>
							<path id="svg_123" class="st1" d="M420.3,109.6c0.5,0,0.9,0.1,1.3,0.2c-0.2-0.1-0.2-0.1-0.2-0.1
								C421.2,109.7,420.9,109.7,420.3,109.6z"/>
							<path id="svg_124" class="st1" d="M126.5,113.4c-0.1,0-0.1,0-0.2,0C125.5,113.7,125.9,113.7,126.5,113.4z"/>
							<path id="svg_125" class="st1" d="M320.6,108.9C320.6,108.9,320.6,108.9,320.6,108.9C320.6,108.8,320.6,108.8,320.6,108.9
								L320.6,108.9z"/>
							<path id="svg_126" class="st1" d="M317.6,109.2c1.3-0.7,2-0.6,2.9-0.4l-0.9-1.8L317.6,109.2z"/>
							<path id="svg_127" class="st1" d="M203.9,109.8l2.1,0.5c-2.4,1-4.3,0.8-2.3,1.5c0.2-1.9,8-0.5,8.2-2.4l1.4,0.4
								c-0.4,0-0.5,0.1-0.8,0.1c2.7,0.8,1.9-1.5,5.3-1.3c1.2,0.1,2,0.4,1.2,0.6l2.6-0.6c0.8,0,0.6,0.4-0.2,0.3l4-0.3l0,0.1
								c0.6-0.3,1.9-0.8,2.5-1c1,0.3-0.5,0.2-0.2,0.5l2.2-0.5c0.9,0.5-0.9,1-2.5,1c2.1,1.9,1.8-0.5,6.4,0.5l-2.1,0.3
								c1.4,1.1,3,0.6,5.4,1.2c-0.6-0.4-4.8-1.6-2.4-2.1c0.7,0.1,1.6,0.2,2.9-0.2c0,0.7,1.3,0.5,2.9,0.4l-0.1,0.9
								c1.7-0.3,1.6-0.7,2.6-1.2c1.9,0.1,2.3,0.8,2.8,1.3c3.1,0.1-2.1-1.1,1.5-1.3c2.6,0.3,4.4-0.1,7.4-0.7c1.8,0.3-0.3,0.6,0.3,0.8
								l1.6-0.7c0.4,0,0.3,0.2,0.2,0.4c1.3-0.3,0.1-0.9,2.2-1.1c0.6-1,4.3,1.5,6.9,0.3c0.6,0.3-0.3,0.6-0.1,0.9
								c3.6-0.7,3.1-0.5,6-1.5l2.5,0.6c-1.8-0.7,0.5-1.5,2.6-2.1c-0.6-0.3-1.2-0.6-1.6-0.8l3.3-0.4c0.4,0.2,0.1,0.5-0.5,0.8
								c0.2-0.1,0.4-0.1,0.6-0.2c1.2,0.4,0.6,0.9-0.3,1.4c-0.4-0.2-0.8-0.4-1.2-0.6c-0.8,0.5-1.6,1.1-1.4,1.7
								c0.2-0.1,0.6-0.2,1.1-0.2c-0.2,0.1-0.4,0.3-0.3,0.4c0.1,0.1,0.5-0.1,1-0.3l0.7,1l0.2-0.4l4.3,0.7c3.1-1,5.8-2.4,10.7-2.8
								c-1.2,0.7-0.3,1.2-0.4,2.1c-1.3-0.9-3.8,0.3-6.3,0.1c1.3,0.1,1,0.5,0.7,0.7l4.5-0.8c-0.1,0.7,0.9,0.6,2.1,0.9
								c-0.9-1.4,3.4-0.9,5.2-1.3c0.1,0.5-0.4,0.9-2.6,0.8c2.4,1.1,3.2-1.6,5.6-0.6c-0.6,0-0.8-0.1-1.1,0.2c1.3-0.4,4.4,0,3.7,0.4
								h-0.6c3.6,0.3,11.1,0.3,11.6-0.8c0,0.2-0.5,1.4-0.8,1.7l6.6-3.8c-0.6,1,1.5,3.6-1.6,4c0.9,0.2,1.9,0.4,3.8,0.1
								c-0.6-0.2-1.4-1.6-0.6-1.6c2.2,1.2,1.5,0.7,4.2,1.8c-0.9-0.3,0.2-1.8,1.6-1.7c-0.2,0.2,0,1.6-0.5,1.8l3.6-1.4
								c-0.9,0.2-0.2,1.3,0.5,1.8c-0.3-0.3,3,0.2,3.9,0.1l-1.5-0.4c3.9,0.4,4-2,7.9-1.8c-0.5,0.3-1.3,1.9,0.7,2.3
								c0.9-0.8,4.2-3.7,7.7-4.1l0.6,0.5l2.7-0.4c-1.7,1.1-6.5,3.4-9.1,4.3c1.4,0.5,0.4,0.6,2.6,0.7c0.7,0.5-1.2,0.6-1.9,0.6
								l5.1,0.6c-0.2-1,4-0.7,3.8-1.5l-5.6,0.6c-0.2-0.9,3.4-2.5,7-2.1c0.9,0.4-0.8,1.6-0.7,2c0.5-0.3,3.5-0.4,3.8-0.1l-1.6,0.4
								c2,0.5,3.4-1,5.7,0c0.8,0.1,2.4,1.4,2.6,0.8c-1.3-1.2-1.3-4.5-0.4-5.3c0.3,0.1,4.3,1.4,5.3,2c1.3,0.9-2.2,1.9-1.1,2.7
								c0.1-0.3,0.9-0.5,1.2-0.6c0.9,0.3-0.4,0.8,1.5,0.8c0.4-0.9,3.9,0.4,1-0.7c1.9-0.1,2,0.4,4.2,0.5c-0.6-0.7,2.1-2,4-2.1
								c-0.1,0.2,0.3,0.6,0.5,0.7c3.8,0.4,5.8,1,9.4,1.3c0.3,0.3,2,0.7,1.2,1c0.5-0.1,1-0.4,2.1-0.3c2,1-2.5-0.1-0.9,1
								c0.2-0.6,2.9-0.5,4.5-0.7c-0.4-0.9-3.6-0.5-5.2-0.3c0.1-1.2,2.9-2.2,6.7-2.4c3,0,1.2,0.9,1.8,0.8c5.5,0.7,5-1.6,9.5-0.3
								c1.8,0.9-0.1,1.5,0.3,2.1c-2.4,0-3.7-0.9-5.3-1l2,0.6c-0.8,0.2-2.4,0.2-3.3-0.1c1.5,0.8,9.4,1.1,13.6,2.2
								c0.8-0.2,2.1-0.3,1.5-0.7l-1.4,0c-1.2-0.7,2.7-0.6,1-1c1.9-0.2,4-0.7,6.5,0l0.4,0.9c0-0.3-1.6-0.7-2.4-0.5
								c1.1-0.3,3.8,1.6,5.1,0.6l-1.7-0.8c1.9-0.2,4.2-0.9,6.5-0.3c-0.9-1-0.5,0-2-1.2c1.3,1.4-5.8-0.7-3.7,0.8
								c-1.5-1.3-2.8-0.8-4.9-2c0,0.3,0.7,0.6-1.2,0.3c-0.1,0.1-0.3,0.2-0.5,0.2c-0.1,0-0.1,0-0.1,0c0,0,0.1,0,0.1,0
								c-0.1,0-0.1,0,0,0c0.4,0.2,0.8,0.4,0.9,0.5c-1,0.6-4.1,0.2-5.1,0.4c-1.1-0.3,0.5-0.3-0.1-0.6l-1.6,0.3
								c-0.1-0.6-2.9-1.4-0.2-1.5l-2.4-0.3c-1.4-0.5-3.3-0.8-4.5-0.7c-1.1-0.3-2.9,0.4-1.9,0l-3.8,0l0-0.2
								c-3.7-0.4-7.8,0.3-11.9-1.2c-1.3,0.1-2.6,0.1-4.7-0.2l-0.4-0.6c-1.6,0.1-4.8-1-5.5-0.5c-1.6-1.6-7.8-0.9-10.6-1.4l-0.2,0.7
								c-1.9-0.2-3.8-0.1-6.3,0l0.1,0.6c-2.1,0.4-5.3-0.8-8.7-1c0.2-0.2,1.1-0.1,1.7,0.1c-3.9-1.7-8.4,0.5-11.9-0.7
								c-0.9,0.2-1.6,0.1-2.2-0.1c0.1,0,0.2,0,0.2,0c-0.1,0-0.2,0-0.4,0c-0.4-0.1-0.8-0.3-1.2-0.4c0.4,0.2,0.7,0.3,1,0.4
								c-0.7,0-1.7,0-2.8,0.1l-0.4-0.7c-0.1,0-0.2,0-0.2,0c-1-0.3-0.8,0.3-0.3,0.8c-0.5,0.1-1,0.2-1.4,0.3c-0.8-1.1-2.7,0.2-3.8-1
								c-0.7,0.5-5.2,0.2-5.8,1.4c0-0.2-0.3-0.2,0.2-0.2c-1.1-0.2-2.3-0.4-3.3-0.1l-0.5-0.9l-2.5,1.1c-1.5-0.6-2.1-0.9-0.6-1.5
								c-3.7,0.9-3,0.3-6.1,1.2l0.2-0.6c-1.1,0-2.9,0.7-3.5,0.2c-2.4-1.1-12.2-0.6-18.5-1.6c1.2,1.7-2.9-0.8-3.2,0.5
								c-0.4-0.4-1.2-0.6-0.2-0.9c-3.2,0.3-4.9-0.7-7.1,0.4c-0.4-0.4,0.7-0.6,0.4-0.8c-0.3,0.1-1,0.3-1.4,0.1
								c-0.3-0.2,0.5-0.3,1-0.5c-3.3,0-3.7,1.2-3.9,2.3c-1.7-0.6-2.5-0.5-3.7,0.2c-0.6-0.4-1.6-0.8,0.5-0.9
								c-1.2-0.1-7.1-0.6-7.2,0.4c-0.4-0.2-1.6-0.1-1.9,0c-2.6-0.1-2.8-0.1-5.4-0.1l0.7,0.1c-1,1.1-2.1,0.2-4.2,0.4l0.1-0.1
								c-4.7-0.8-2,0.4-6.7-0.5l0.3,0.7c-0.4,1.5-4.1-0.8-6.8-0.2l1,0.4c-1.5,0.5-4.1-1.9-5.6-2.1c-0.3-0.1,0.5-0.2,1-0.3
								c-3.9-0.8-0.5,0.9-3.4,1.1c-0.5-0.5,0.7-1.2-1.3-1.3c-1-0.4-5.6,1.7-8.3,0.8c0.6,0.4,1.2,0.7-0.2,1c-2,0.2-5.6-1.2-7.4,0
								c-0.3-0.1-0.4-0.2-0.4-0.3c-1.6,0.4-5.1,0.6-6,1.3c-1.5-2.3-9.7,1.5-9.8-0.6l-4.8,0.3l0.1-0.2c-3.1,0-4.2,0.5-5.2,1.1
								c-0.7-0.1-0.2-0.3-0.2-0.5c-4.5-0.2-5-0.1-8.7,1.2l-0.4-0.7c-1,0.5-6.6-0.8-11,0.3c0-0.1,0.1-0.2,0.5-0.4
								c-4.9,1.2-12-1.1-13.7,1.5l-3.2,0.8c4.2-0.1-0.6,1.1,1.2,1.5c-1.7,0.3-4.4-0.4-2.3-0.7l0.3,0.1c0.6-1.4-5.3,0-5.3-1
								c-4.2,0.4-8.3,0.5-12.4,0.7c-4.1,0.2-8.1,0.4-12,0.7l1,0.9l-2.7,0.2c-0.7-0.2-1-0.7,0.9-0.8c-1.1-0.5-3.2,0.8-3.2,1
								c-3.8-0.1,1.4-1.3,0.2-1.3l-1.6,0.2l0.4,0.1c-1.2,0.6-1.3,1-3.7,1.2c-1.5,0-0.8-0.6-1.4-0.5c0-0.1-0.2-0.1-0.9,0.1l-3.4,0.3
								l1.5,0.7c-1.5,0.6-3.2,0.3-1.6,1c-2.5-1.2-12.8,0.8-14.3,0.6c-2.1,0.8-4.1,1.1-6.8,1.3c0.7,0.1,1.2,1-1.1,1.1
								c0.6-2-4.2-0.3-6.2-1.5c1.7,0.7-6.3,1-3.6,2c-1.9,0.1-0.2-0.7-1.7-0.9c-4.3,1.3-9.9,0.8-15.3,1.8c-0.1,0.3,0.9,0.5-0.2,1
								l-3.1-0.8c-1.1,0.3-0.8,1.6-2.9,1c0.3,0.2,0.8,0.4,0.1,0.6c-10.9,0.3-21.8,4.2-33,3.8c1.6,0.2,0.6,0.4-0.6,0.6
								c0.7,0,0.1,0.6,0.3,0.9l-4.7-0.2c-0.7,1.1-4.9,0.9-5.2,1.8l1.4-0.4c-1.7,1.4,3.1,1.9,3,3.2c1.9-1.5,5.9,0.8,9.2-1.5
								c0.8,0.1-0.6,0.5-0.1,0.8c0.8-0.7,1.8-1,3.9-1.1l-0.2,0.2c5.6-1,8.1-0.8,14.4-1.4L46,124c1.4-0.1,1.7,0,2.3,0.1
								c1.4-1.2-3.8,0.5-2.6-0.8c2,1,9.6-1.4,11,0c2.1-0.3-0.7-0.7,1.4-1l0.6,0.3l0.5-0.6c1.4-0.1,2.1,0.3,2.2,0.6
								c-0.3,0-0.9,0.2-1.3,0.3c1.8,0.2,5-0.9,5.6-0.8l-2,0c5.6-1.2,12.7-1.5,18.1-3.1l-0.5-0.3c4.1-1.1,3.4-0.1,8-0.9l-0.2,0.1
								c0.9-0.4,2.1-0.7,3.4-0.8c-1.1,0.5,2.3,0.5,0.8,1c4.5-1.2,2.2-0.8,5.1-2.3l0.8,0.4c1-0.6,1-0.9,3.3-1.3
								c-1.8,0.6,1.6,0.6-0.5,1.5c5,0.6,7.1-1.9,9.5-0.5c2.1-1.7-4.3-0.4-3.1-0.8c-1.1-0.4,1.7-1.3,3.3-1.3c1.6-0.1,2.8,1.6,6.7,1.1
								c-0.4,0-0.4,0.1-0.8,0.2c1.5,0.2,2.8-0.8,4.7-0.4c0.9-1,2.3-0.2,2.5-1.3l-3.6,0.6c2-0.5,3.8-2,7.2-1.6
								c-0.2,0.3-1.2,0.6-1.9,0.9c1,0.2,1.9-0.4,2.9-0.2c-0.2,1.1-4.3,0.6-6.4,1.7c1.1,0.4,4-1.2,3.1,0.1c1.4-1.7,3.9-0.2,6.4-1.6
								l-0.1,0.7c0.4-0.1,1.2-0.5,2-0.6l-1.3,1c2.1-0.9,4.2,0.3,6.2-0.3c-4.3,0.4-1-0.7-2.9-1c5.2-1.4,3.2,1.5,9.1,0.7
								c-0.8,0.2-3-0.2-1.8-0.6c1.1,0,2.7,0.2,3.4,0.5c3.9-0.5-0.7-0.6,1-1.2c1.4,0.7,1.9-0.5,3.6-0.9l0.1,0.7
								c4.5,0.1,1.1-1.5,5.2-1.3l-1.6,1.1l2.1-0.4l-0.4,0.8c2.2-0.7,3-0.6,5.2-0.6c-0.6-0.4,0.2-1.3,2.2-1.4
								c1.4,0.3-0.7,0.7,2.1,0.4c-0.6,0.5-1.3,1-2.5,0.5c-0.1,0.2-0.6,0.5-0.7,0.7c1.5,0.4,3.7-0.1,4.7-0.2c-0.4,0-0.9,0-1.1-0.1
								l4-1.2c0.7,0.2,0.2,0.5-0.3,0.7c0.8-0.1,1.4-0.5,2.6-0.6c-0.3,0.6-0.2,1.1-1.9,1.5l3.9-0.9c0.3,0.2,2,0.5,1.5,0.8
								c2.2,0.2,5.2-1.4,8.1-1.1c0.1-0.1,0.4-0.2,1-0.4c2.7,0,5.1,0.5,8.3-0.4l1.8,0.9c2.5-0.4-2.5-1.1,1.6-1.7
								c2.9-0.4,1.1,0.8,2.2,1c1.4-0.6,3.9-1.7,6.7-1C205.4,109.8,204.7,109.7,203.9,109.8L203.9,109.8z M234.7,108.3
								c-0.6,0.2-1.8,0.6-2.2,0.2C233.1,107.8,233.6,108.1,234.7,108.3z M281.6,106.5c-0.5,0.2-1.1,0.1-1.9-0.2
								C280.2,106.3,280.8,106.3,281.6,106.5z M412.5,109.3C412.5,109.3,412.4,109.3,412.5,109.3
								C411.1,108.9,411.6,109.1,412.5,109.3z M415.2,109.9c0.3-0.1,0.3-0.2,0.2-0.3c-0.2,0.2-0.8,0.1-1.5,0
								C414,109.8,414.4,109.9,415.2,109.9z M117.4,109.7l0.6,0.1C116.7,110.2,117,110,117.4,109.7z"/>
							<path id="svg_128" class="st1" d="M276.2,107.4c-0.2-0.1-0.2-0.2-0.3-0.4C275.7,107.1,275.7,107.2,276.2,107.4z"/>
							<path id="svg_129" class="st1" d="M184.7,111.1L184.7,111.1c-0.1,0-0.2,0.1-0.2,0.1L184.7,111.1z"/>
							<path id="svg_130" class="st1" d="M371.9,111.8c-0.6-0.1-0.9-0.3-1.1-0.4C370.8,111.5,371,111.7,371.9,111.8z"/>
							<path id="svg_131" class="st1" d="M430,110.3l-1.8,0c0.9,0.1,1.1,0.2,1.6,0.4C429.7,110.6,429.4,110.3,430,110.3z"/>
							<path id="svg_132" class="st1" d="M444.8,116.4c0.3-0.1,0.6,0.1,0.8,0l0-0.3C444.5,116,443.7,116.1,444.8,116.4z"/>
							<path id="svg_133" class="st1" d="M431.3,112.8c0.1,0.6,1.2,0.5,2.5,0.6c-0.1,0-0.1,0-0.2,0
								C434,112.6,432.7,112.7,431.3,112.8L431.3,112.8z"/>
							<path id="svg_134" class="st1" d="M434.1,113.4c0.4,0,0.8,0.1,1.1,0.1C435.4,113.2,434.8,113.4,434.1,113.4z"/>
							<path id="svg_135" class="st1" d="M418.8,109.9c0.6,0.2,0.5-0.7,0.8-0.4C420.2,108.8,415.5,109.9,418.8,109.9z"/>
							<polygon id="svg_136" class="st1" points="432.1,114.8 431.8,114 431,114.5 							"/>
							<path id="svg_137" class="st1" d="M422.4,113.2l2,0.4c0-0.1,0.2-0.2,0.6-0.2C423.7,113.2,422.4,112.9,422.4,113.2z"/>
							<path id="svg_138" class="st1" d="M424.9,113.4c0.6,0.1,1.2,0.1,1.6,0.1C426.2,113.4,425.5,113.4,424.9,113.4z"/>
							<polygon id="svg_139" class="st1" points="429.4,114.7 428.8,114.5 427.5,114.3 							"/>
							<path id="svg_140" class="st1" d="M401.2,110.8H399c-0.2,0.2,0.3,0.4,1.1,0.4C400.7,111.1,401.5,111.1,401.2,110.8z"/>
							<path id="svg_141" class="st1" d="M407.5,113.4c-0.6-0.2-0.6-0.4-0.9-0.6l-0.2,0.9L407.5,113.4z"/>
							<path id="svg_142" class="st1" d="M401.2,113c-0.2,0.2-3.2,0.4-0.5,0.6C401,113.3,403.2,113.4,401.2,113z"/>
							<polygon id="svg_143" class="st1" points="368.7,109.1 369.3,109.1 369.3,107.7 							"/>
							<path id="svg_144" class="st1" d="M339.8,110.7c2.5,0.5,0.6-0.9,2.9-0.3c0.6-0.3-1.9-0.5-1.2-0.7
								C339.9,110,339.2,109.8,339.8,110.7z"/>
							<path id="svg_145" class="st1" d="M341.5,109.7c0.3,0,0.5-0.1,0.8-0.2C341.9,109.6,341.7,109.7,341.5,109.7z"/>
							<polygon id="svg_146" class="st1" points="17,122.7 15.4,122.7 16.5,123 							"/>
							<path id="svg_147" class="st1" d="M14.1,124.3l-0.5-0.8l-0.8,1C13.1,124.3,13.8,124.1,14.1,124.3z"/>
							<path id="svg_148" class="st1" d="M239.3,110.1l0.1-0.2c-0.3-0.2-0.6-0.3-1.4-0.3L239.3,110.1L239.3,110.1z"/>
							<polygon id="svg_149" class="st1" points="216.9,110 217.3,110 216.6,109.2 							"/>
							<path id="svg_150" class="st1" d="M198.2,111.8c0.8,0,1.7-0.2,2.4-0.2C199,111.8,198,110.8,198.2,111.8z"/>
						</g>
					</g>
				</g>
			</g>
		</g>
	</g>
</g>
</svg>
